<?xml version="1.0" encoding="UTF-8"?>
<svg id="Calque_1" xmlns="http://www.w3.org/2000/svg" version="1.1" viewBox="0 0 3000 3000">
  <!-- Generator: Adobe Illustrator 29.8.6, SVG Export Plug-In . SVG Version: 2.1.1 Build 1)  -->
  <defs>
    <style>
      .st0 {
        fill: #fdb842;
      }

      .st1 {
        fill: #102916;
      }

      .st2 {
        fill: #f9ce91;
      }

      .st3 {
        fill: #174724;
      }

      .st4 {
        fill: #377038;
      }

      .st5 {
        fill: #ebb571;
      }

      .st6 {
        fill: #508943;
      }

      .st7 {
        fill: #f2e8b0;
      }

      .st8 {
        fill: #f28a20;
      }
    </style>
  </defs>
  <g>
    <path class="st1" d="M370.43,907.23c1.12,2.35,4.01,1.15,5.81,1.45,47.84,8.07,102.34,53.34,120.94,97.84,11.24,26.89,8.67,56.57,25.88,79.51-2.11-1.93-6.51-3.97-7.89-5.93-7.16-10.15-10.29-41.47-14.33-55.44-15.96-55.13-63.26-96.45-117.67-112-37.98-10.85-18.37,5.03-12.65,24.28,17.77,59.81-52.02,91.45-58.05,150-1.18,11.46,1.31,22.93-1.64,33.98-6.48-32.39,4.33-60.55,20.84-87.5,18.57-30.34,46.24-47.44,38.36-88.71-1.5-7.85-12.42-29.16-12.4-31.22.02-2.67,3.09-4.03,4.09-6.26h8.72Z"/>
    <path class="st7" d="M376.25,907.23v1.45c-1.81-.31-4.69.9-5.81-1.45h5.81Z"/>
    <path class="st3" d="M310.83,1120.91c2.95-11.05.46-22.52,1.64-33.98,6.02-58.54,75.82-90.19,58.05-150-5.72-19.26-25.33-35.14,12.65-24.28,54.41,15.55,101.71,56.87,117.67,112,4.04,13.96,7.17,45.28,14.33,55.44,1.94,2.45,7.12,4.61,9.34,7.38.13.1-.55,1.9.93,3,4.16,3.64,22.86,4.58,22.33-3,12.41-11.86,14.39-25.78,14.22-42.88-.04-7.71-8.02-44.97-6.73-47.02,2.61-4.14,18.55,3.92,21.8,5.76,9.23,5.24,17.55,15.59,27.41,20.18,4.36,4.42,8.74,8.62,13.08,13.08,1.57,4.5,5.72,10.19,10.18,11.63,9.36,14.1,19.83,29.13,27.44,44.52,6.08,13.87,9.11,28.7,14.72,42.7,5.96,35.14.67,69.79-9.96,102.95.49,7.81,19.97,13.93,23.14,18.7,25.7,95.68,27.58,207.43,32.12,306.92,31.89,10.78,63.07,24.44,90.63,43.83,1.25-.84-.9-2.73-.75-2.87,15.68-1.01,24.06-36.19,33.35-47.23-13.86-27.03-13.29-56.38-8.58-85.72.51-15.51-5.34-53.32,3.07-63.79,13.14-14.5,37.4-3.03,47.75,9.23,1.51,2.09,6.75,12.56,7.29,13.08,3.08,2.9,2.7-2.73,2.88-2.9,10.05-10.27,19.57-34.74,29.19-48.2,1.81-2.89,6.39-5.83,5.7-9.95.41-.54,1.05-.93,1.45-1.45,6.19-1.83,9.15-11.7,13.08-15.99,5.13,1.31,3.83-1.59,5.07-2.92,8.7-9.29,14.93-9.39,27.37-11.64,1.09-.2,1.01-2.86,1.89-2.96.94-.11,17.63,3.87,18.43,4.37,19.43,22.41-2.82,56.56-13.19,78.13-2.48,5.19-8.2,11.44-7.59,16.43,2.29,6.22,9.49,5.45,13.04,9.89,6.67,8.33,2.66,24.58,5.05,27.98,25.12,6.18,32.8,19.31,29.54,48.29,0,0-15.66,38.85-15.66,38.85-14.68,23.31-27.51,32.26-45.06,50.88-8.7,1.93-8.36,10.61-10.92,15.98-15.98,32.68-29.86,66.61-51.58,95.95-.47.45-4.79-.23-4.36,5.81-19.1,20.88-44.41,36.46-73.44,37.77-8.35.26-16.63-3.35-23.96.02-.47-.08-.98.07-1.45,0,.66-3.37-2.74-5.04-5.81-2.91-4.88,3.38-2.01,6.83-12.2,5.7l-54.6-18.05c-1.1-.35-2.13.03-2.98.71-14.02,75.77-30.2,166.6-50.5,242.4-.34,2.79-1.12,7.08-.17,9.6,23.94,12.13,59.32,22.67,64.93,57.28,7.79,24.67-92.5,18.86-108.08,19.29-154.2-13.15-107.89.23-108.25-139.6l-6.92,1.81-58.16,127.15c-42.28,25.41-168.05,30.39-213.78,11.09-8.55-15.98,10.14-44.58,21.58-55.75,4.48-1.65,18.18-11.02,19.67-14.5l13.77-88.71c-41.59,11.02-82.48,26.08-117.74-8.72-.68-5.68-5.72-9.46-7.21-15.32-1.94-7.64-3.29-20.07,2.93-26.02,4.19-4,10.93-1.84,12.39-6.56l-3.76-26.23c-.06-.52.15-1.24,0-1.45-1.29-.74-4.91-3.23-5.81-4.36-1.67-1.64-2.11-4.56-5.81-4.36-3.13-2.24-3.76-7.14-8.72-7.27-9.17-9.72-19.89-19.63-29.07-29.07-5.54-10.75-15.66-19.7-20.63-30.98-12.58-28.2-7.91-46.95-1.18-75.14,10.9-15.26,24.39-33.45,37.79-46.52,6.61-.52,7.08-6.64,10.18-8.72,12.68-5.74,22.83-16.12,34.63-23.12,21.16-12.55,44.57-21.12,65.7-33.17-3.46-84.43-12.8-170.17-20.3-253.97-.01-2.58,1.59-3.33,1.38-8.09-.04-.93.2-2.2,0-2.91-2.23-7.82-3.28-4.77-5.81-7.27-6.84-9.01-11.79-19.73-18.21-29.09-.97-1.53-3.28-2.38-3.59-2.89s-1.12-.89-1.45-1.45l-15.83-56.12c-5.58-64.63,15.14-112.68,53.63-163.37.49-.48.94-1,1.45-1.45.17-.15,1.59.43,2.54-.34,1.67-1.35,11.27-14.91,16.35-9.83,1.3,23.9.87,65.22,24.72,81.41,5.95,6.42,17.05,18.03,20.35,2.91ZM389.33,933.39c-.14.17-2.8-.52-2.96.85,10.04,31.63-.14,56.28-17.39,83.46-1.83,2.78-5.86,2.74-5.81,7.27-3.9,4.36-11.75,12.34-13.08,18.9-6.62,2.18-4.52,4.56-5.81,7.27-10.05,12.21-17.84,34.02-17.58,50.15-.22,12.67,5.46,26.07-2.77,38.52-39.24,18.57-72.1-30.27-74.15-65.41-1.92-.41-1.66,1.79-2.89,2.9-7.48,7.2-13.15,17.09-15.99,27.62-.13.34-.88-2.44-2.91,4.36-.14.46.16,1.05,0,1.45-3.69-.76-3.01,1.77-3.95,3.97-25.47,60.07-23.04,120.8,18.48,170.46-.93,3.35,2.47,6.84,5.81,7.27.32.39.93.83,1.45,1.45.25.29-.46,4.89,4.51,3.65,111.29-69.57,255.7-89.87,383.13-60.35,16.48-5.26,19.07-59.37,19.36-74.83,1.17-13.88-16.95-76.96-29.05-80.7.62-2.2-2.6-4.03-2.91-4.36-2.31-7.64-8.95-17.79-15.99-21.81-4.78-7.26-13.12-18.66-21.81-21.8-4.12-2.88-3.15-9.59-8.72-7.27-6.02-.11.74,20.38.14,25.44-.66,17.25-6.3,35.75-17.58,48.7-3.16,1.36-7.49,1.45-7.27,5.81-28.81,8.86-48.77-6.12-59.6-31.98,0,0-5.36-34.62-5.36-34.62-.76-9.16-5.71-15.91-9.18-23.53,1.66-10.11-18.15-33.3-26.17-39.25-.65-4.08-4.6-8.06-8.72-8.72-13.83-14.78-33.36-28.93-52.7-34.96-1.68-.76-1-2.71-1.11-2.81-1.74-1.63-1.29,2.72-1.43,2.89ZM696.05,1557c4.92-5.84,3.2-20.49,2.96-28.4-2.17-72.76-10.15-176.38-26.66-246.63-3.47-14.75-4.39-17.15-19.12-23.03-128.68-36.22-291.62-15.29-401.66,62.88,8.45,74.44,14.41,151.07,18.58,225.72.25,2.14.87,6.54,2.19,7.99,50.41,13.45,125.65,32.9,176.57,54.57,37.24,13.8,68.34,23.5,100.33,47.21,5.37,3.51,8.69,10.42,11.9,14.37.43.33,1.1-1.31,1.18-1.29.86.22,2.55,1.56,2.91,1.45,2.1-.63,3.37-2.55,4.36-4.36.33-.6-.33-2.38,0-2.91,1.16,1.55,28.79-28.35,29.83-29.04,16.34-10.23,47.87-33.25,61.74-46.55,5.57-2.59,21.57-16.06,24.71-18.93.78-1.05-1.49-1.33-1.45-1.42,2.26-5.45,3.33-3.26,4.36-4.36v.73l.73.73.73-.73-1.45-.73c1.45-1.56-1.12-2.12,4.36-4.36.78-.68,2.27-2.19,2.91-2.91ZM956.25,1427.63c7.75-14.18,35.59-58.04,29.75-72.64-7.03-17.58-32.02,6.97-38.38,14.23-11.11,12.69-45.1,64.06-48.84,78.72-1.69,7.9.67,48.14-15.22,35.66.77-20.83.95-44.1-17.44-58.87-5.3-5.23-11.47-11.68-19.69-7.34-8.66,4.6-2.35,20.24-2.13,28.44.71,26.98-8.49,62.65-.63,86.4,3.04,9.19,12.26,18.35,10.24,27.77-1.38,6.43-34.31,62.51-39.31,66.84-7.38,6.39-12.4-1.06-17.39.21-21,21.79-39.5,87.28-22.6,115.23,39.53,18.99,85.22,3.09,108.96-32.65,15.87-21.5,30.01-45.77,40.96-70.25,3.73-8.26,10.88-31.6,14.76-36.85,7.21-8.25,30.5-20.46,35.86-33.91,13.57-9.34,28.97-40.65,31.82-56.12,2.3-23.69-16.72-38.83-34.72-19.47-9.04,7.11-44.79,40.14-21.73,48.61,8.41,2.82,13.27-.7,20.3-4.26,4.05-2.05,20.17-15.75,17.12-3.24-6.99,23.23-60.36,30.02-56.64-4.53-50.5-9.67-20.72-67.28,6.76-90.41,6.47-5,14.33-6.8,18.2-11.59ZM932.99,1514.85c5.01.7,13.67-20.43,21.24-26,4.68-4.59,19.28-13.75,21.53-17.71,6.31-11.12-4.83-28.71-18.46-25.75-12.79,2.78-41.07,41.5-41.8,54.24-.38,6.73,6.35,15.87,12.81,17.78,6.34,1.87,4.33-2.28,4.68-2.56ZM309.38,1583.17c3.79-1.06-2.91-3.11-3.34-3.19-28-7.67-140.44,56.12-155.11,80.24,38.06,16.92,79.16,34.89,99.52,73.78,27.6-10.45,51.66-28.08,77.01-41.78,5.08,1.48-.77,14.98.81,18.88l-18.91,13.79-1.44,2.92c2.8,22.82,1.72,47.13,4.37,69.77,1.61,13.77,13.76,11.22,24.7,13.82,59.48,11.57,43.44,18.41,63.96-20.35.09-.05.88,1.21,1.42,1.47,3.7-7.47-1.2-11.91-2.87-17.46,2.1-28.48,12.3-42.14,39.98-49.42,0,0,21.08,0,21.08,0,1.97,0-.05,13.75-.76,15.97-2.52,7.92-13.79,17.72-10.16,26.35.72,1.72,2.11-.23,2.2-.17,12.13,8.38,13.93-.49,23.26-7.27,1.83,2.08,4.64-2.9,7.19-3.71,13.97-4.41,12.74,10.66,14.44,20.26l-5.64,24.15c-15.82,24.82-41.65,15.86-40.81,28.13.28,1.55,2.82.76,3.01.94s-.62,2.46.97,2.93c9.45-1.1,96.59,11.09,92.07,1.43.58-.41,1.06-.87,1.45-1.46.15-.23,2.31.95,2.94-.97,3.44-20.6,5.62-46.38,2.88-67.35,4.39.82,2.82-2.22,2.91-5.02,1.2-14.53-.57-30.1-1.45-44.41,4.39.82,2.82-2.23,2.91-5.02.11-3.46.65-16.17-.33-17.97-.35-.63-2.49-.13-2.57-.27-2.52-4.07-2.86-5.09-6.51-8.76-6.18-6.2-31.52-29.91-38.97-28.77-13.01,3.08-57.36,51.71-65.59,50.63-10.11-1.33-42.82-37.81-51.74-46.53-25.72-24.97-52.8-56.53-82.86-75.59ZM678.6,1652.94c11.09-19.88,29.62-51.17,20.35-74.14l-72.68,58.89c-.71,3.13,37.11,23.18,41.67,28.19,2.27.32,9.23-10.62,10.66-12.94ZM720.76,1727.08c1.87,7.67,25.62,12.06,32.88,14.38,4.27.95.56-1.23.55-1.3-.05-.96.07-1.95,0-2.91,3.55,2.34,3.16,1.86,2.73-1.99-2.27-20.56-4.46-36.84-.9-57.96,4.02-22.64,16.58-43.32,25.16-63.63-.56-1.28-11.48-7.35-13.91-8.71,3.59-1.36-1.35-2.1-2.44-2.63-5.54-1.77-38.02-21.07-39.71-16.27-1.72-.38-3.59-1.99-5.81-1.45l1.45,142.46ZM384.97,1628.23c79.63,75.19,35.99,65.62,103.2,18.87.91-3.07-1.52-2.68-2.89-4.33-.06-.08,1.25-.79,1.45-1.38-33.26-11.36-65.86-24.87-99.55-35.01-1.91-.58-5.26-2.71-6.57.05-9.25-2.99-18.57-5.84-27.59-9.46,11.17,9.9,21.33,20.85,31.95,31.27ZM579.76,1683.47c-.53-2.2-5.57,3.74-5.74,4.05-11.43,18.29-3.05,51.19-5.84,73.77-1.31,23.03-5.31,45.97-5.87,68.99-.01.16-2.35,1.99-1.44,2.9.33.33,2.5-.32,2.9.01.22.18-.22,1.36,0,1.45,30.66,4.3,91.12-.03,120.65-10.17,3.46-2.57,6.23-12.62,4.35-14.54s-26.15,8.35-31.44,8.62c-5.17.27-5.69-1.4-9.25-2.81h.73l.73-.73-.73-.73-.73,1.45c-7.32-3.66-36.26-15.06-39.01-21.42,0,0,5.57-80.34,5.57-80.34l81.41-4.35c1.07-.14,6.44-2.1,7.27-2.91,2.09-2.03,2.57-5.6,0-7.27v-2.91c4.4.82,2.8-2.23,2.91-5.02.06-3.23,2.2-66.54-4.77-47.04-6.03,10.5-19.57,52.75-35.57,43.69-13.59-8.33-40.41-30.38-56.37-35.2-3.92.14-26.41,25.8-29.76,30.48ZM136.4,1674.75c-41.17,37.69-16.63,90.45,20.35,120.65h1.45c2.57,4.63,4.58,9.99,10.18,11.63,4.54,3.97,7.88,9.09,11.79,13.65,2.11,2.22,12.3,9,12.75,10.56-5.42,22.81,7.94,44.48,26.33,57.19,1.24,5.73-10.11,1.74-11.97,1.07-7.59-2.7-13.02-10.04-20.01-11.25-.77-.13-2.09-.1-2.91,0-.1.01-.77-1.93-1.38-1.47-18.18,28.53,33.35,49.17,55.79,44.98,6.44-.98,12.77-6.78,18.17-8,10.48-2.36,23.68,2.67,29.18-10.8,2.41-4.02,12.87-2.71,13.08-8.72,2.33-3.74,9.42-7.03,11.63-10.18,17.58-19.69,5.53-58.12-15.99-68.32v-1.45l-37.79-30.53c-9.63-9.6-34.48-40.52-39.92-50.96-3.2-7.61,2.95-4.7,2.12-8.64.25-5.11-8.69-9.88-13.08-13.08-12.28-12.74-52.54-39.49-69.78-36.34ZM699.68,1722.72v1.45l.73-.73-.73-.73ZM678.6,1727.08c-14.49-1.5-31.01-2.42-45.86-1.45-2.79.11-5.83-1.49-5.02,2.91-1.44.04-2.88-.05-4.36-.01,1.56,6.08-1.46,14.65-1.46,19.63v26.17c0,2.8-2.9,8.31-1.51,12.9.55,1.83,2.54.6,2.97.91,8.06,5.56,25.6,15.38,35.54,16.02,10.68-.15,22.63-10.36,32.76-13.25-.11-.61-1.49-1.24-1.43-1.32,8.03-6.77,10.75-57.83,10.18-63.97-.22-.25-3.22.11-4.36,0-3.55-2.05-18.94-3.54-17.44,1.45ZM427.12,1743.07c-21.25,10.32-11.81,32.52-13.47,49.77-.91,6.29-13.61,28.81-12.69,30.16,1.08,1.59,30.04,7.33,33.43,4.38,1.03-.9,3.49-6.26,5.81-8.72,11.69-12.41,25-5.7,37.08-20.34,6.04-7.28,12.29-19.1,5.08-27.63-2.19-1.27-.77-1.46-2.87.76-2.59,2.73-4.5,7.2-8.03,9.41-10.08,6.33-30.75,3.03-33.58-10.1-3.23-15.63,12.17-24.63,11.05-34.96-.23-.64.31-2.68,0-2.9-2-1.37-19.9,6.41-21.8,10.17ZM289.03,1738.71c-2.91-3.89-30.76,13.67-34.49,15.66-.69.49-2.88-.03-1.84,2.48,7.47,9.02,27.33,31.52,39.23,35.64,4.45-1.39-1.96-46.36.05-52.85-.38-1.78-2.2-.67-2.96-.93ZM456.19,1847.74l-72.62-11.59c-2.22,24.12-34.22,62.84-2.52,77.27,13.86,6.31,53.76,11.32,60.23-5.74,6.44-16.97,8.3-42.1,14.91-59.94ZM661.16,1844.82c-2.31-2.19-4.97-1.55-7.75-1.31-17.35,1.53-33.61,3.58-51.19,4.21-2.79.1-5.83-1.48-5.02,2.91-2.14,0-95.87,0-98.85,0,1.71-4.9-17.14-4.02-20.35-1.45-.95.27-2.83-.6-3.99.3-9.52,13.85-14.58,71.03-27.98,73.84-32.08,14.34-99.75,10.86-92.87-38.36.79-7.31,7.95-23.75,7.13-29.21-.21-1.4-1.72-.61-2.93-.75-33.04-3.36-17.94-3.8-26.89,26.17-4.31,10.85-15.4,18.63-20.37,29.05l-13.91,84.91c.22.82,13.64,4.49,16.1,5.23,12.92,3.98,25.9,7.84,38.95,11.2,23.51,3.2,94.14,10.17,110.77-8.29,8.04-11.64,14-25.34,21.13-37.75.76-1.41,3.5-5.03.68-5.86,4.25-7.81,20.92-39.53,26.58-42.47,6.24-3.23,19.22-2.94,27.21-4.77,5.38-1.23,34.93-9.85,36.9-9.36,4.53,1.13.87,5.68-.59,7.88-46.32,46.73-44.23-26.47-43.59,87.96,38.52,10.53,80.03,5.69,117.74-5.83l-1.45-1.43c1.68-2.21,5.02-2,6.31-4.71,13.19-46.2,24.06-96.55,32.97-144.27-1.23-2.86-20.14,2.22-24.74,2.16Z"/>
    <path class="st3" d="M395.14,1238.66c-.47.09-.99-.09-1.45,0,.24-.62.82-1.33,1.45-1.45v1.45Z"/>
    <path class="st3" d="M685.87,1926.23l-1.45-1.45h1.45c-.1.46.1.99,0,1.45Z"/>
    <path class="st3" d="M671.34,1135.45h-1.45c-.07-.47.07-.98,0-1.45.54.34,1.28.86,1.45,1.45Z"/>
    <path class="st3" d="M194.54,1148.53h-1.45c.1-.46-.11-1,0-1.45l1.45,1.45Z"/>
    <path class="st0" d="M898.17,1328.71c-1.11-.84-4.11-22.7-5.48-27.23-5.46-18.03-14.3-29.56-32.68-35.64-5.17-1.71-20.86-1.94-21.57-7.55-.17-1.34.84-5.44,1.86-6.22s19.94-3.7,25.35-5.88c13.02-5.25,21.53-14.42,26.23-27.55,1.8-5.02,7.42-49.16,14.9-30.09,5.54,14.14,1.92,27.09,13.13,42.11,14.32,19.2,26.13,13.54,42.98,20.98,19.39,8.56-21.63,15.48-27.05,18.22-9.78,4.93-17.22,13.65-21.4,23.66-3.05,7.3-6.61,33.18-11.54,34.99-1.05.39-4.13.67-4.73.21Z"/>
    <path class="st1" d="M662.61,1243.02c14.55,5.75,22.12,11.17,26.57,26.49,10.37,35.72,13.04,84.31,17.04,121.78l1.45,2.91c5.81,55.98,7.79,112.25,10.33,168.47,30.8,9.88,60.05,24.77,87.06,42.31-.15.14,2,2.03.75,2.87-27.57-19.39-58.75-33.05-90.63-43.83-2.15-42.7-2.69-85.68-6.07-128.37-2.55-32.13-5.96-66.9-10.34-98.69-1.67-12.11-10.99-73.45-15.71-79.86-2.87-3.9-16.11-8.95-20.46-14.08Z"/>
    <path class="st1" d="M236.7,1311.34c.21,4.75-1.39,5.5-1.37,8.09.2,31.36,7.41,66.9,10.07,98.78,4.32,51.69,6.8,103.46,10.23,155.2-21.13,12.04-44.54,20.61-65.7,33.17-11.8,7-21.94,17.38-34.63,23.12,5.63-5.36,12.28-10.01,18.61-14.43,24.08-16.79,51.18-30.28,78.6-40.99-1.06-24.08-1.22-48.46-2.72-72.51l-1.45-5.81c-2.46-37.55-5.32-75.16-8.74-112.64-1.71-18.7-7.14-43.3-7.08-61.23.01-3.25.76-9.08,4.19-10.75Z"/>
    <path class="st1" d="M717.85,1759.06l-1.45,2.91c-1.74,14.15-3.36,28.11-5.81,42.16l-1.45,1.45c-1.18,6.67-1.66,13.63-2.91,20.35l-1.45,2.91c-1.19,6.31-1.6,13.63-2.91,20.35l-1.45,2.91c-4.77,24.28-9.35,48.49-14.54,72.68h-1.45c7.63-35.45,14.61-71.62,21.4-107.25,1.71-9,9.37-65.03,12.04-67.19-.22,2.85.32,5.91,0,8.72Z"/>
    <path class="st1" d="M685.87,1926.23c-5.41,25.2-12.04,50.26-17.38,75.49,24.29,2.88,73.4,38.05,65.03,65.93-2.67,8.89-38.22,11.99-46.94,12.64-38.24,2.87-86.65.68-124.73-4.59-8.95-1.24-44.27-6.48-49.95-10.39-.52-.36-4.32-5.76-4.49-6.41l5.54-97-1.49-21.12-57.27,126.62c-5.4,9.33-19.36,11.7-29.42,14.19-42.11,10.39-96.77,12.69-140.09,10.36l-4.36-1.45c-3.75-.28-8.01.45-11.63,0l-4.36-1.45c-17.09-2.83-35.11-1.87-31.33-24.8,2.26-13.73,10.64-25.2,19.7-34.8-7.6,10.7-24.33,37.03-15.77,49.93,2.86,4.3,34.44,8.94,41.23,9.65,34.58,3.63,75.75,1.44,110.25-3.1,12.9-1.7,54.93-8.06,62.31-17.64l58.16-127.15,6.92-1.81c1.67,14.35-8.8,118.51-4.35,122.82,8.47,8.21,96.53,16.2,112.6,16.77,27.43.98,67.16.91,93.61-5.35,9.55-2.26,15.79-2.59,14.47-13.95-1.9-16.29-16.96-32.66-30.37-40.97-5.49-3.4-33.89-14.52-34.56-16.31-.95-2.52-.17-6.82.18-9.6,2.58-20.71,12.55-47.01,17.06-67.97l1.45,1.45Z"/>
    <path class="st1" d="M180,1917.5c12.67,7.28,24.83,14.79,39.92,16.04,24.17,2,48.78-8.07,72.01-13.14l-13.77,88.71c-1.48,3.48-15.18,12.85-19.67,14.5,4.93-4.88,16.07-12.06,17.94-17.67.13-10.28,15.06-80.64,12.57-84.08-.5-.7-12.98,5.91-15.88,6.64-34.86,8.77-64.38,15.73-93.13-11Z"/>
    <path class="st1" d="M925.72,1369.48c.69,4.12-3.89,7.05-5.7,9.95-1.3,2.08-2.48,3.74-3.02,4.59-7.71,12.09-17.57,35.2-26.17,43.61-.18.18.19,5.8-2.88,2.9-.55-.51-5.78-10.98-7.29-13.08-3.51-3.13-6.58-6.85-11.31-9.76-10.08-6.22-27.91-10.07-36.43.54-8.42,10.48-2.56,48.28-3.07,63.79-.23,7.11-2.66,16.14-2.94,23.23-.9,22.71,1.39,42.02,11.52,62.5-7.21,9.84-18.24,39.53-27.54,45.77,1.93-9.95,25.76-40.08,25.65-47.26-.01-.96-7.04-13.6-8.25-17.39-8.09-25.45-2.14-42.26-1.35-66.86.54-16.99-3.97-41.81-.12-56.81,6.07-23.62,40.43-17.1,52.51-1.44,1.06,1.37.97,3.18,1.34,3.69.25.22,2.08,0,3.58,1.44,3.01,2.89,2.07,9.97,6.59,8.74,6.91-14.4,14.42-29.27,23.15-42.67,1.04-1.6,2.92-.81,3.01-.94,2.87-4.33,4.25-8.61,8.72-14.54Z"/>
    <path class="st1" d="M245.42,1048.23c-10.87,17.32-24.61,33-33.25,51.79-5.5,11.95-14.97,36.13-17.63,48.51l-1.45-1.45c7.43-31.37,29.14-76.31,52.33-98.85Z"/>
    <path class="st1" d="M207.62,1267.73c-9.64-16.26-13.03-32.58-15.99-50.88l-1.45-1.45c-.55-3.92-1.2-10.54-1.45-14.54l1.42-.73-1.42-.73c-.37-7.57-.51-17.21,0-24.71l1.45-2.91c.49-5.6.46-10.17,1.45-15.99l1.45-2.91c.26-1.31-.28-3.1,0-4.36h1.45c-4.4,20.48-2.51,42.25-2.75,63.07l15.83,56.12Z"/>
    <path class="st1" d="M669.88,1133.99c.07.47-.07.98,0,1.45-5.6-14-8.63-28.83-14.72-42.7-6.09-13.87-16.13-25.4-23.08-38.7,18.1,24.01,33.35,49.63,37.79,79.95Z"/>
    <path class="st1" d="M1001.31,1350.59l1.45,2.91c3.26,25.05-16.66,58.36-30.53,78.5.15-4.02,5.38-10.46,7.59-14.97,9.32-19.08,26.62-46.7,18.93-68.95-.54-1.57-4.57-8.44-5.73-9.18-.8-.51-17.49-4.48-18.43-4.37-.87.1-.8,2.76-1.89,2.96-12.44,2.26-18.67,2.35-27.37,11.64-1.25,1.33.05,4.24-5.07,2.92,4.75-4.8,8.84-10.13,15.01-13.32,16.69-8.65,40.39-9.4,46.05,11.87Z"/>
    <path class="st1" d="M550.68,1084.57c9.6-17.78,9.92-39.09,7.11-58.71-.92-6.41-9.41-27.45-2.43-31.07,11.42-5.92,40.73,21.07,49.1,28.73-9.86-4.58-18.18-14.93-27.41-20.18-3.24-1.84-19.19-9.91-21.8-5.76-1.29,2.05,6.69,39.3,6.73,47.02.08,16.01-1.24,27.81-11.31,39.98Z"/>
    <path class="st1" d="M178.55,1837.55l3.76,26.23c-1.46,4.72-8.21,2.56-12.39,6.56-6.23,5.95-4.87,18.38-2.93,26.02,1.49,5.86,6.53,9.64,7.21,15.32-7.73-9.49-12.95-16.57-11.63-29.79,1.71-17.04,16.51-16.41,17.33-19.07.55-1.78-2.67-10.61-2.92-14.38-.25-3.85,1.89-7.95,1.57-10.89Z"/>
    <path class="st1" d="M246.87,1046.77c26.5-34.05,20.72,6.75,23.45,25.25,2.42,16.44,8.86,33.83,20.16,45.98-15.08-10.4-20.87-32.67-23.22-50.19-.73-5.4-.39-30.12-1.5-31.22-5.08-5.07-14.68,8.48-16.35,9.83-.95.77-2.36.19-2.54.34Z"/>
    <path class="st1" d="M107.32,1684.92l-7.24,34.2c-.54,12.29,3.45,29.69,8.41,40.94,4.97,11.28,15.09,20.23,20.63,30.98-26.63-28.42-43.03-69-21.8-106.12Z"/>
    <path class="st1" d="M972.24,1433.44c9.35,2.14,18.3,11.97,20,21.43.61,3.4-.21,13.83.51,14.76.66.85,14.13,3.39,19.35,8.99,22.43,24.09,6.73,56.63-7.88,79.83l15.66-38.85c.79-13.75,2.15-24.79-6.45-36.32-6.84-9.18-21.87-10.22-23.1-11.97-2.39-3.41,1.62-19.65-5.05-27.98-3.55-4.44-10.75-3.67-13.04-9.89Z"/>
    <path class="st1" d="M879.21,1740.16c-25.05,21.21-41.74,28.43-75.59,26.17l-1.45-1.45c-2.32-.22-5.11.37-7.27,0,7.32-3.38,15.61.23,23.96-.03,23.09-.71,42.43-11.34,60.36-24.69Z"/>
    <path class="st1" d="M547.78,1087.48c-.16.14.64,1.87-.9,3.02-4.78,3.59-16.45,3.66-21.43-.02-1.49-1.1-.8-2.9-.93-3,8.35,3.9,14.93,3.89,23.26,0Z"/>
    <path class="st1" d="M959.16,1609.33c-11.4,12.09-26.13,55.45-36.07,73.68-6.72,12.33-15.38,26.69-24.98,36.79,20.33-29.62,34.7-62.19,50.13-94.5,2.57-5.37,2.23-14.04,10.92-15.98Z"/>
    <path class="st1" d="M310.83,1122.36c-5.02,11.47-11.44,4.27-17.44-1.45,5.9,3.12,11.45,7.23,17.44,1.45Z"/>
    <path class="st1" d="M143.66,1639.86c-4.06,4.33-2.72,4.12-8.72,8.72-8.13,10.79-19.36,23.56-26.17,34.89,3.08-9.9,10.33-17.44,16.62-24.76,4.64-5.4,3.34-5.37,9.54-10.12,2.12-2.82,2.91-8.39,8.72-8.72Z"/>
    <path class="st1" d="M209.08,1269.18c.31.52,2.62,1.36,3.59,2.89,5.73,9.04,11.33,18.36,16.76,27.63-7.94-8.38-16.28-19.68-20.35-30.53Z"/>
    <path class="st1" d="M130.58,1792.49c8.1,8.44,18.06,17.43,26.17,26.17-5.08-3.22-11.15-9.28-15.47-13.6-3.66-3.66-8.39-7.79-10.7-12.56Z"/>
    <path class="st1" d="M236.7,1308.43l-5.81-7.27c2.53,2.5,3.59-.55,5.81,7.27Z"/>
    <path class="st1" d="M787.63,1761.97c3.07-2.13,6.47-.46,5.81,2.91-1.81-.27-4.39-1.63-5.81-2.91Z"/>
    <path class="st1" d="M938.8,1353.49c-2.24,4.53-6.57,12.97-11.63,14.54,3.91-5.05,7.19-9.89,11.63-14.54Z"/>
    <path class="st4" d="M249.78,1501.76c-.02-.3-1.26-2.87-1.45-5.81l1.45,5.81Z"/>
    <path class="st1" d="M896.65,1721.26c.03,2.76-2.61,3.88-4.36,5.81-.42-6.04,3.89-5.37,4.36-5.81Z"/>
    <path class="st1" d="M153.84,1631.14c-1.3,1.35-3.48,7.3-8.72,7.27,2.22-2.44,5.43-6.49,8.72-7.27Z"/>
    <path class="st1" d="M165.47,1825.93c-2.64-.09-5.68-3.92-7.27-5.81,4.18-.1,5.18,3.83,7.27,5.81Z"/>
    <path class="st4" d="M268.68,2090.49c-2.62-.33-4.13-1.42-4.36-1.45l4.36,1.45Z"/>
    <path class="st4" d="M284.67,2091.94c-3.08-.17-4.13-1.44-4.36-1.45l4.36,1.45Z"/>
    <path class="st1" d="M617.55,1036.6c3.78,4.07,6.64,7.31,10.18,11.63-4.46-1.44-8.61-7.13-10.18-11.63Z"/>
    <path class="st6" d="M674.24,1154.34l-1.45-4.36c.02.23,1.27,1.33,1.45,4.36Z"/>
    <path class="st1" d="M630.63,1052.59l-1.45-2.91c1.04,1.3,1.19,2.57,1.45,2.91Z"/>
    <path class="st4" d="M716.4,1761.97l1.45-2.91c-.27,2.42-1.43,2.75-1.45,2.91Z"/>
    <path class="st4" d="M707.68,1394.19l-1.45-2.91c.02.16,1.2.46,1.45,2.91Z"/>
    <path class="st6" d="M704.77,1828.83l1.45-2.91c-.4,2.14-1.42,2.75-1.45,2.91Z"/>
    <path class="st1" d="M172.74,1831.74c-2.15-1.19-4.07-2.63-5.81-4.36,3.71-.2,4.15,2.72,5.81,4.36Z"/>
    <path class="st1" d="M178.55,1836.1c-.15-.21-2.07-.24-4.36-2.91l4.36,2.91Z"/>
    <path class="st6" d="M700.41,1852.09l1.45-2.91c-.41,2.12-1.42,2.75-1.45,2.91Z"/>
    <path class="st6" d="M1002.76,1353.49l-1.45-2.91c.04.16,1.15.56,1.45,2.91Z"/>
    <path class="st6" d="M188.73,1174.69c.17-2.46,1.44-2.75,1.45-2.91l-1.45,2.91Z"/>
    <path class="st6" d="M191.63,1155.8c.37-2.18,1.42-2.75,1.45-2.91l-1.45,2.91Z"/>
    <path class="st1" d="M880.66,1738.71l4.36-4.36c-1.51,1.46-2.48,2.7-4.36,4.36Z"/>
    <path class="st6" d="M709.13,1805.57l1.45-1.45c-.16.92-1.44,1.35-1.45,1.45Z"/>
    <path class="st6" d="M191.63,1216.85c-.02-.1-1.31-.44-1.45-1.45l1.45,1.45Z"/>
    <path class="st6" d="M188.73,1200.86c-.03-.48.02-.97,0-1.45l1.42.73-1.42.73Z"/>
    <path class="st4" d="M803.62,1766.33c-.95-.06-1.35-1.44-1.45-1.45l1.45,1.45Z"/>
    <path class="st1" d="M611.74,1030.78l-1.45-1.45c.49.48.97.97,1.45,1.45Z"/>
    <path class="st1" d="M607.37,1026.42l-1.45-1.45c.5.47.96.98,1.45,1.45Z"/>
    <path class="st2" d="M309.38,1290.99c110.1-41.52,241.03-65.38,354.3-22.88,5.12,5.47,17.55,100.56,19.25,115.22,6.51,55.94,10.16,112.33,11.73,168.67-1.13,7.51-25.24,26.82-32.33,32.66-.38.32-6.39,5.12-4.09,5.78-4.88,3.71-9.44,7.97-14.54,11.63l-.71-1.42c-24.2,21.92-60.63,35.47-73.42,66.83,0,0-4.36,2.91-4.36,2.91-5.64-5.76-8.55-10.95-15.99-14.54-2.5-1.2-2.27,2.14-2.91-2.91-.01-.1,1.89-.7,1.43-1.31-.35-.47-8.48-5.5-10.15-5.96-5.77-5.51-9.81-9.04-17.19-12.61-43.21-20.68-106.46-40.66-152.89-55.71-3.93-27.73-7.05-55.76-10.15-83.61-1.34-12.05-2.78-70.1-12.4-74.83-2.23-1.09-2.53,1.51-2.9,2.84-5.27,39.35,4.32,108.21,9.46,149.78-5.27-1.59-16.02-4.92-20.35-2.91-18.99-5.37-38.4-11.9-58.15-13.08-2.42-28.45-2.16-57.33-4.35-85.77l-1.45-1.45c-1.26-16.06-2.97-31.98-4.36-47.97l1.42-.73-1.42-.73c-.79-9.01-.62-18.64-1.45-27.62l-1.45-1.45c-1.67-17.85-3.03-35.9-4.36-53.78l-1.45-1.45c-.16-3.41-.71-10.4.75-13.06,1.81-3.3,22.11-14.92,26.87-17.46l1.46,1.33c-5.61,2.2-27.08,14.66-27.61,19.77,8.2,68.52,14.81,137.4,18.94,206.33.31,5.11-1.21,16.69-.14,20.28.81,2.73,48.67,9.6,55.32,13.92l-20.34-274.73ZM634.99,1325.87c13.42-14.95-19.76-31.1-32.73-31.94-13.7-.89-39.31,7.73-40.09,23.98-.93,19.43,21.52,4.55,29.94,3.6,4.85-.55,12.17-.26,17.07.38,8.07,1.07,20.89,9.47,25.82,3.98ZM460.56,1317.15c-14.14-12.26-30.67-15.36-48.75-8.77-10.84,3.95-37.62,25.06-26.36,37.37,9.4,10.28,25.67-13.9,47.16-13.65,9.66-.34,31.33,10.81,33.76-5.63.85-9.38-3.85-5.89-5.81-9.32ZM611.74,1434.9c26.84-13.24,21.31-70.75-7.28-76.36-42.48-8.88-36.81,97.07,7.28,76.36ZM453.29,1449.43c33.27-14.03,19.48-86.81-16.65-79.87-36.36,5.41-23.23,100.68,16.65,79.87ZM547.78,1491.59c12.66,25.63,76.56-13.73,46.55-45.82-11.5-13.16-27.06-10.18-37.27-24.5-2.4-3.36-4.23-17.49-12.27-8.97-8.83,9.36,3.19,29.44,11.37,35.71,8.8,6.74,26.19,6.15,19.92,21.75-2.88,10.6-42.11,10.37-28.3,21.84ZM428.58,1487.23c-10.81,3.01-22.69,30.34-7.97,33.42,6.29.76,8.59-5.83,12.97-4.43,1.08.05,7.99,18.15,10.99,14.62,48.1,79.2,169.12,60.88,185.84-30.92-3.97-15.56-24.91,4.36-32.23,7.91-35.31,17.12-77.48,17.65-114.67,6.61-4.18-1.24-33.51-12.61-34.53-14.18-1.39-2.15,8.95-15.94,1.07-19.33-6.92-2.98-17.06.23-21.47,6.31Z"/>
    <path class="st8" d="M441.66,965.37c.8.68,1.81,1.92,2.91,2.91,3.35,3.02,5.68,5.45,8.72,8.72.47.5,1.01.95,1.45,1.45,10.28,11.59,17.88,23.89,24.71,37.79.47.96,1.01,1.96,1.45,2.91,6.34,17.58,6.08,38.17,13.08,55.24.5,1.23,1.04,2.01,1.45,2.91,5.44,22.91,34.14,43.6,56.69,29.07.45-.14,1.04.16,1.45,0,4.59-1.76,4.57-3.47,7.27-5.81,1.24-1.08,1.83-1.65,2.91-2.91,17.25-20.1,19.66-45.75,13.08-71.23.17-.21.98.17,1.45,0,1.51,3.04,4.88,3.87,7.27,5.81.52.42.94,1.01,1.45,1.45,6.93,6,14.23,13.48,20.35,20.35.45.51,1,.94,1.45,1.45,5.57,6.33,10.08,14.17,15.99,20.35.21.36-.21,1.09,0,1.45l2.91,2.91c.21.37-.2,1.08,0,1.45,27.96,51.53,35.04,95.93,14.54,152.63-.42.43-1.1,1.29-1.45,1.45-13.63-5.1-27.91-6.62-42.16-8.72,2.87-1.19,2.5-2.45,3.07-4.91,5.57-24.04,7.95-47.59,1.7-71.82-1.04-4.02-10.17-27.86-12.07-29.38-3.75-3.01-3.01,8.25-3.83,11.39-15.67,60.41-88.75,65.5-119.42,13.75-16.55-27.92-12.33-61.85-31.64-89.02-1.9-2.67-16.58-17.5-18.78-17.56-1.33-.03-1.66,22.03-2.61,26.49-10.79,50.47-66.32,74.15-44.7,142.93.88,2.81,10.48,18.12,5.14,18.12h-26.17c-19.25,0-53.97-17.5-67.58-31.27-7.84-7.93-12.21-18.36-18.57-26.43-.55-.7-1.27-4.65-3.25-1.9-5.29,7.36-2.2,49.74.18,60.14,4.53,19.77,13.92,27.7,21.69,43.79,1.33,2.76,2.04,3.73-.07,6.55-6.11,3.2-21.23,16.11-26.67,17.83-2.89.92-3.22-.35-5.31-1.84-.53-.62-1.14-1.07-1.45-1.45-1.98-2.41-3.76-4.84-5.81-7.27-.44-.52-1.04-.93-1.45-1.45-40.25-54.9-36.78-112.23-13.08-172.98.16-.4-.14-.99,0-1.45l2.91-4.36c.17-.42-.18-1.05,0-1.45l15.99-26.17c1.23-1.11.97-3.31,2.89-2.9,1.92,18.76,7.91,35.4,20.37,49.42,11.02,16.02,34.65,30.9,52.33,17.44.52-.4.99-.98,1.45-1.45,12.57-13.01,4.88-26.81,5.77-42.93.82-14.99,6.93-29.43,13.13-42.83.44-.94.98-1.93,1.45-2.91,2.59-1.61,4.43-4.65,5.81-7.27.2-.38-.21-1.09,0-1.45l11.63-15.99c.43-.49.98-1,1.45-1.45,1.8-1.69,3.14-3.69,4.36-5.81.47-.49,1.01-.93,1.45-1.45,20.21-24.01,28.87-53.28,20.35-84.31,18.99,8.24,36.56,18.59,52.33,31.98Z"/>
    <path class="st6" d="M309.38,1583.17c6.74,3.19,28.35,21.69,34.89,27.62l5.81,5.81c12.59,11.78,25.22,25.52,37.79,37.79l4.36,4.36c8.92,8.72,41.62,45.2,51.74,46.53,8.23,1.08,52.58-47.54,65.59-50.63,7.45-1.13,32.79,22.57,38.97,28.77,3.65,3.67,3.99,4.68,6.51,8.76.34,7.76.02,15.54,0,23.26,0,1.94.03,3.88,0,5.81-.24,14.57-.73,29.07-1.45,43.61-.07,1.45.08,2.91,0,4.36-1.18,21.4-2.47,42.79-5.81,63.96-.4.59-.88,1.05-1.45,1.45l-93.03-4.36c-.19-.18-2.73.61-3.01-.94-1.55-8.47,16.63-8.64,23.83-12.4,5.19-2.71,13.89-10.8,16.98-15.73,7.08-11.28,9.82-26.24,4.64-38.81-6.1-14.8-11.49-8.55-20.63-1.9-9.32,6.78-11.13,15.64-23.26,7.27-5.53-9.95,24.92-38.59,5.88-44.4-27.37-8.35-63.44,21.53-58.21,51.67.29,1.67,1.42,2.71,1.45,2.91v13.08c-3.17,1.72-10.66,27.19-15.54,28.85-5.26,1.79-40.6-6.64-48.42-8.5l-8.72-100.3c-1.58-3.9,4.27-17.4-.81-18.88-25.35,13.71-49.41,31.34-77.01,41.78-11.86-22.29-30.31-37.89-51.55-50.52-14.14-10.17-30.98-18.97-47.97-23.26-.81-2.96,10.44-11.46,13.2-13.69,12.31-9.92,31.13-22.03,44.94-29.92,19.17-10.95,46.52-24.19,67.55-30.57,10.63-3.22,22.23-7.84,32.75-2.86Z"/>
    <path class="st6" d="M682.96,1841.92c-6.1,35.36-12.29,71.18-20.35,106.12-.11.46.11.99,0,1.45l-1.45,5.81c-1.39,5.92-6.47,27.92-8.23,31.63-1.28,2.71-4.63,2.5-6.31,4.71-32.8,10.01-66.13,12.41-100.3,8.72l5.91-2.28,2.81-71.86c2.8-1.12,16.95-12.38,18.88-15.28,1.46-2.2,5.12-6.75.59-7.88-1.97-.49-31.52,8.13-36.9,9.36-7.99,1.83-20.98,1.53-27.21,4.77-5.66,2.93-22.33,34.65-26.58,42.47-6.58,12.11-12.23,27.84-18.9,39.25-.58,1-1.05,2.3-1.45,2.91l-1.45,1.45c-.33.4-4.1,4.2-4.36,4.36-40.48,8.05-80.14,7.11-120.65,0-8.03-2.02-16.71-4.86-24.71-7.27l5.88-2.38,18.83-113.92c.77-.75,11.03,2.87,14.19-.35,2.14-2.18,7.08-24.25,6.16-28.72,1.21.14,2.72-.65,2.93.75.81,5.46-6.35,21.91-7.13,29.21-2.68,24.87,9.8,38.55,33.27,42.72,17.68,6.99,44.12,7.48,59.6-4.36.72-.55,2.85-.26,4.4-2.08,6.34-7.47,14.97-50.78,20.29-64.08.7-1.75,2.35-6.94,3.3-7.68,1.16-.9,3.04-.03,3.99-.3,6.82.48,13.5,1.13,20.35,1.45.97.04,1.94-.05,2.91,0,31.33,1.71,60.31,1.55,91.58,0,1.45-.07,2.91.08,4.36,0,21.46-1.16,42.63-3.67,63.96-5.81,6.54-.66,16.31-2.87,21.8-2.91Z"/>
    <path class="st2" d="M134.94,1767.78c-15.31-24.18-21.1-39.8-10.87-68.29,1.98-5.5,9.24-21.84,15.53-21.61,18.83,1.08,49.65,24.2,66.57,33.2,4.04,1.6,10.35,10.04,13.08,13.08-.13.49.16,1.09,0,1.45-2.33.22-3.95,1.77-5.81,2.91-.07.04-2.62-3.31-1.48.74,4.02,8.51,28.99,44.63,39.27,50.14,2.12,2.28,4.16,10.1,10.18,10.17,11.05,10.62,21.41,19.6,34.89,26.17v1.45c18.57,20.02,29.49,56.08,2.91,74.14.65-3.67,2.92-16.92-.09-18.83-.37-.24-4.1-.22-4.26-.07-1.03,1.81-6.84,24.8-7.28,29.08-11.38,10.8-17.22,10.22-31.98,10.17-5.53.35-9.73,4.38-17.1,5.44-19.19,2.72-64.55-8.96-54.06-35.89,3.85-2.89,32.24,24.17,38.5,13.04,1.61-2.86.56-2.7-.77-4.39-1.17-.72-3.45-1.45-4.36-2.91-4.77-10.56-15.68-16.62-19.6-29.1-2.97-9.33-.1-22.95-2.52-27.94-2.19-4.51-6.53-5.58-9.86-8.37-2.32-1.95-4.9-3.67-7.27-5.81,3-.79-1.61-3.67-2.31-4.28-5.08-4.39-9.29-9.68-15.13-13.17h-1.45c-2.16-2.8-1.43-6.51-5.1-8.69l-.72,1.42c-.77-1.04-3.29-1.56-2.91-4.36-1.41-1.81-16.06-16.74-15.99-18.9ZM268.47,1908.58c1.11-.7,3.6-18.37,4.55-21.6-3.48,7.83-27.26,26.02-4.55,21.6Z"/>
    <path class="st6" d="M704.77,1641.31c-.48,18.45-1.45,36.76-1.45,55.24v2.91c0,2.42,0,4.85,0,7.27-.83.81-6.2,2.77-7.27,2.91-17.43,2.32-39.49.59-57.39,1.48-4.92.24-23.6,1.18-25.23,3.84l-5.73,79.41c2.06,7.1,29.69,18.04,37.48,19.94.86.35,1.76,1,2.91,1.45,3.56,1.41,4.08,3.08,9.25,2.81,5.29-.27,29.62-10.5,31.44-8.62s-.89,11.97-4.35,14.53l-120.65,10.18c-.22-.09.22-1.27,0-1.45l-1.45-2.91c.11-1.44-.09-2.92,0-4.36,2.02-1.76,2.36-4.23,2.74-6.7,6.18-40.44,5.76-83.84,7.52-124.76.61-4.82,4.65-7.44,7.18-10.99,3.34-4.68,25.84-30.34,29.76-30.48,3.01-.11,23.99,12.73,28.26,15.35,6.79,4.17,23.15,17.85,28.11,19.85,9.75,3.93,12.18-1.65,17.12-8.31,7.75-10.44,12.91-23.8,18.45-35.38.64-1.34-.04-4.93,3.32-3.18Z"/>
    <path class="st6" d="M456.19,1847.74c-6.6,17.84-8.47,42.98-14.91,59.94-6.48,17.06-46.37,12.05-60.23,5.74-31.7-14.43.29-53.15,2.52-77.27l72.62,11.59Z"/>
    <path class="st6" d="M725.12,1586.07c10.63,2.37,32.15,13.31,42.16,18.9,2.43,1.35,13.34,7.43,13.91,8.71.68,1.55-1.55,3.13-2.28,4.38-27.9,47.83-28.48,64.24-24.71,119.2.07.96-.05,1.94,0,2.91l-31.98-10.18c-.6-.76-.87-2.05-1.45-2.91l2.96-61.83-4.42-80.62c2.23-.54,4.09,1.07,5.81,1.45Z"/>
    <path class="st6" d="M696.05,1725.62c1.15.1,4.14-.26,4.36,0,1.9,2.17-4.48,51.4-5.92,57.31-.7,2.9-2.65,4.38-4.25,6.65-8.32,3.43-22.7,12.56-31.5,12.62s-21.67-10.19-31-11.16c-1.45-.89-2.97-1.92-4.36-2.91l2.91-59.6c.46-.08.98.03,1.45,0,15.44-1.09,32.35-.74,47.97-1.45.97-.04,1.94.03,2.91,0,5.89-.21,11.5-1.95,17.44-1.45Z"/>
    <path class="st6" d="M380.61,1606.43c35.18,11.37,70.15,23.12,104.66,36.34,1.38,1.65,3.8,1.26,2.89,4.33-8.31,1.55-42.64,38.22-45.54,37.68-3.77-.7-47.84-46.85-54.74-53.64l-2.91-2.91c-10.62-10.42-20.78-21.37-31.95-31.27,9.02,3.62,18.33,6.47,27.59,9.46Z"/>
    <path class="st0" d="M448.93,1735.8c.12.33,0,.96,0,1.45-7.81,12.77-21.91,30.08-6.8,43.13,15.23,13.16,30.84,4.95,40.24-9.7.24.14,1.37,1.28,1.45,1.45,1.14,15.28-5.6,28.81-20.43,34.09-8.93,3.18-19.59,1.2-23.18,12.43-2.32,2.46-4.78,7.82-5.81,8.72-4.12-1.53-29.38-3.33-30.53-4.37-2.02-1.83,12.27-27.53,12.78-33.13,1.57-17.31-10.53-29.49,9.03-45.36.52-.42.95-1.11,1.45-1.45,5.96-4.02,14.56-7.05,21.8-7.27Z"/>
    <path class="st4" d="M357.35,1855c.91,4.47-4.02,26.54-6.16,28.72-3.16,3.22-13.42-.4-14.19.35l-18.83,113.92-5.88,2.38c-2.46-.74-15.89-4.41-16.1-5.23l13.91-84.91c4.97-10.42,16.06-18.2,20.37-29.05,2.29-5.76,4.1-26.62,5.17-27.52.83-.71,18.61,1,21.71,1.35Z"/>
    <path class="st6" d="M698.95,1578.81c2.23,23.86-7.91,53.86-20.35,74.14-1.43,2.33-8.38,13.27-10.66,12.94-4.56-5.01-42.38-25.06-41.67-28.19l72.68-58.89Z"/>
    <path class="st4" d="M328.28,1711.09l8.72,100.3c-10.95-2.6-23.09-.04-24.7-13.82-2.65-22.64-1.58-46.94-4.37-69.77l1.44-2.92,18.91-13.79Z"/>
    <path class="st4" d="M555.04,1926.23l-2.81,71.86-5.91,2.28c-5.32-.57-10.56-1.92-15.99-1.45,1.37-9.45-2.85-65.51,2.56-68.3,4.28-2.21,17.57-2.54,22.15-4.38Z"/>
    <path class="st7" d="M688.78,1426.17l1.45,7.27c3.09,35.22,6.66,74.53,7.32,109.69.1,5.28.37,8.76-1.5,13.87-.12.32-1.03,1-1.45,1.45-.47.49-1.03.91-1.45,1.45-5.49,2.24-2.91,2.8-4.36,4.36-1.03,1.1-2.1-1.09-4.36,4.36l-20.35,18.9c-.52.41-1.87.64-2.91,1.45-.8.62-2.11.85-2.91,1.45-2.3-.66,3.71-5.47,4.09-5.78,7.09-5.85,31.19-25.15,32.33-32.66-1.57-56.33-5.22-112.73-11.73-168.67-1.7-14.65-14.13-109.75-19.25-115.22-5.85-6.24-56.58-16.19-67.41-17.62-99.39-13.09-194.79,5.24-286.89,40.5-1.06.41-4.17,2.04-4.36,0,86.98-41.65,221.2-58.12,315.48-38.57,7.76,1.61,41.05,9.87,45.1,14.5,4.78,5.46,14.02,73.76,15.68,86.07,3.29,24.34,5.22,48.74,7.49,73.18Z"/>
    <path class="st1" d="M696.05,1557c1.88-5.11,1.6-8.59,1.5-13.87-.65-35.16-4.23-74.47-7.32-109.69-.26-3-1.34-6.09-1.45-7.27-2.27-24.44-4.21-48.84-7.49-73.18-1.66-12.31-10.9-80.61-15.68-86.07-4.05-4.63-37.34-12.89-45.1-14.5-94.29-19.55-228.5-3.08-315.48,38.57-7.78,3.73-16.56,7.61-23.26,13.08-4.76,2.54-25.06,14.16-26.87,17.46-1.46,2.66-.91,9.66-.75,13.06.04.94,1.45,1.35,1.45,1.45,1.33,17.89,2.69,35.93,4.36,53.78.09.97,1.44,1.35,1.45,1.45.84,8.98.66,18.61,1.45,27.62.04.48-.04.97,0,1.45,1.39,15.99,3.1,31.91,4.36,47.97.08.96,1.45,1.35,1.45,1.45,2.19,28.44,1.93,57.32,4.35,85.77,19.75,1.18,39.17,7.71,58.15,13.08,46.25,13.08,94.22,30.5,139.25,47.54,22.19,8.4,45.36,16.11,65.71,28.05.51.45.96.98,1.45,1.45,2.76,2.68,4.75,5.62,8.72,7.27.64,5.05.41,1.7,2.91,2.91v1.45c-32-23.71-63.09-33.4-100.33-47.21-32.19-11.93-67.58-25.02-100.3-34.88-10.59-3.19-73.61-16.77-76.26-19.68-1.32-1.45-1.94-5.85-2.19-7.99-3.65-31.52-3.09-66.64-5.84-98.82-3.62-42.29-9.09-84.8-12.73-126.9,57.27-43.48,130.28-65.05,201.22-74.22,55.78-7.21,147.96-9.6,200.44,11.34,14.74,5.88,15.66,8.28,19.12,23.03,16.51,70.25,24.49,173.87,26.66,246.63.24,7.91,1.95,22.57-2.96,28.4Z"/>
    <path class="st1" d="M393.69,1238.66c.47-.09.99.09,1.45,0-40.16,11.1-77.95,23.35-114.87,42.85-5.77,3.05-21.85,15-25.99,16.04-4.97,1.24-4.26-3.36-4.51-3.65,2.09,1.49,2.42,2.76,5.31,1.84,5.44-1.73,20.55-14.63,26.67-17.83,32.46-17.01,75.97-32.04,111.93-39.25Z"/>
    <path class="st1" d="M598.65,1227.03c14.25,2.1,28.53,3.62,42.16,8.72-.85.39-.77,1.61-3.39,1.45-6.05-.36-19.32-5.3-27.1-6.57-72.13-11.77-143.85-6.05-215.17,8.03v-1.45c68.03-13.26,134.37-20.38,203.51-10.18Z"/>
    <path class="st1" d="M227.98,1110.73c-23.7,60.76-27.16,118.09,13.08,172.98-39.96-50.16-42.33-109.31-17.03-169.01.94-2.21.26-4.73,3.95-3.97Z"/>
    <path class="st7" d="M941.71,1379.66l-38.58,66.8c-.59,10.84.34,48.9-18.5,43.37-7.99-2.35-5.26-28.22-7.29-37.8-2.93-13.85-13.62-35.93-30.95-30.31.9,17.26,3.16,34.34,2.35,51.75-1.1,23.45-7.94,36.27.27,60.67,2.66,7.9,10.86,17.44,9.53,24.68-.82,4.47-14.67,28.54-18.02,34.35-4.14,7.18-23.84,39.93-30.44,40.89-3.81.55-12.2-3.54-13.52-2.79-7.87,4.48-29.11,70.29-23.48,82.72-.94-.13-1.96.09-2.91,0-.47-23.1,6.01-49.01,17.2-69.29,1.48-2.68,7.31-13.53,8.99-14.36,4.68-2.3,11.89,3.79,18.12-.69,3.15-2.27,18.2-27.15,21.35-32.43,3.68-6.18,20.5-35.27,21.26-39.9.62-3.76-9.57-19.81-11.36-25.74-7.18-23.91,1.21-46.04,1.31-69.96.07-17.35-13.82-59.03,17.61-38.36.49.47,1,.95,1.45,1.45,6.68,7.45,12.39,19.06,13.89,29,1.21,8.01-3.78,43.71,12.29,34.26,9.21-5.42,5.66-31.7,8.07-39.92,4.52-15.46,30.75-54.47,41.34-68.4Z"/>
    <path class="st1" d="M579.76,1683.47c-2.53,3.54-6.57,6.16-7.18,10.99-1.76,40.92-1.34,84.33-7.52,124.76-.38,2.47-.72,4.94-2.74,6.7,1.38-21.56,4.46-43.06,5.87-64.63,1.21-18.5-1.47-49.43,1.47-65.39.42-2.3,3.06-6.03,4.36-8.38.17-.31,5.21-6.26,5.74-4.05Z"/>
    <polygon class="st1" points="720.76 1727.08 719.31 1584.62 723.72 1665.24 720.76 1727.08"/>
    <path class="st1" d="M642.26,1234.29c20.5-56.7,13.43-101.1-14.54-152.63,3.67-.13,3.71,2.07,5.06,4.39,12.08,20.87,23.03,52.15,23.99,76.31.6,15.23-4.42,61.44-14.51,71.93Z"/>
    <path class="st1" d="M864.67,1423.27c-31.43-20.66-17.54,21.01-17.61,38.36-.1,23.91-8.5,46.05-1.31,69.96,1.78,5.93,11.97,21.98,11.36,25.74-.76,4.62-17.58,33.72-21.26,39.9-3.15,5.28-18.2,30.16-21.35,32.43-6.23,4.49-13.44-1.6-18.12.69-1.68.82-7.51,11.67-8.99,14.36-11.18,20.28-17.66,46.2-17.2,69.29.09,4.32,1.82,23.88,3.59,26.21,2.23,2.94,32.61,8.61,37.81,8.75,21.06.58,31.94-5.92,47.27-17.52,1.29-.98,2.75-1.56,4.36-2.91,6.2-5.18,15.28-12.91,20.35-18.9-19.32,26.16-46.62,44.22-80.52,40.54-4.28-.47-25.61-5.89-28.45-7.9-9.03-6.39-5.81-47.93-3.77-58.88,1.63-8.71,19.02-54.47,26.36-56.35,4.99-1.28,10.01,6.18,17.39-.21,5-4.33,37.93-60.42,39.31-66.84,2.02-9.42-7.2-18.58-10.24-27.77-7.86-23.74,1.34-59.41.63-86.4-.21-8.2-6.53-23.84,2.13-28.44,7.5-3.99,13.25,1.1,18.24,5.89Z"/>
    <path class="st1" d="M684.42,1824.47c-7.42,5.5-50.36,9.3-61.81,10.15-11.91.88-50.59,3.66-58.85.03l120.65-10.18Z"/>
    <path class="st1" d="M646.62,1991.64l1.45,1.43c-37.71,11.52-79.22,16.37-117.74,5.83,5.43-.47,10.67.88,15.99,1.45,34.17,3.69,67.5,1.29,100.3-8.72Z"/>
    <path class="st1" d="M457.65,2007.63c-17.29,10.71-85.45,8.22-106.41,3.93-4.85-.99-9.53-2.74-14.24-3.93,40.51,7.11,80.18,8.05,120.65,0Z"/>
    <path class="st1" d="M778.9,1618.05c-7.78,19.5-19.3,38.07-22.88,59.25-3.56,21.11-1.37,37.39.9,57.96.42,3.84.82,4.33-2.73,1.99-3.77-54.96-3.19-71.36,24.71-119.2Z"/>
    <path class="st1" d="M592.84,1850.64c-31.27,1.55-60.24,1.71-91.58,0h91.58Z"/>
    <path class="st1" d="M546.32,1834.65c-.23.16.87,2.46-.92,2.97-3.75,1.07-23.29.14-28.93,0-20.67-.54-41.52-3.78-62.21-4.39-1.59-.47-.78-2.74-.97-2.93l93.03,4.36Z"/>
    <path class="st1" d="M682.96,1841.92c1.01,0,2.96-.56,2.93.75-7.27,35.17-12.66,71.11-23.28,105.37,8.06-34.94,14.25-70.76,20.35-106.12Z"/>
    <path class="st5" d="M287.57,1900.06c1.15-3.6,6.24-26.65,7.28-27.63.16-.15,3.89-.17,4.26.07,3.01,1.91.74,15.16.09,18.83-.36,2.04.05,2.77,0,2.91-.17.47.2,1.15,0,1.45l-11.63,4.36Z"/>
    <path class="st1" d="M323.92,1139.81c8.23-12.45,2.55-25.86,2.77-38.52.24-14.19,5.82-36.94,16.13-47.24-6.2,13.4-12.31,27.84-13.13,42.83-.89,16.12,6.8,29.92-5.77,42.93Z"/>
    <path class="st1" d="M696.05,1709.63l-81.41,4.35-5.57,80.34c1.4,5.13,29.84,17.4,36.1,19.97-7.8-1.9-35.42-12.83-37.48-19.94l5.73-79.41c1.64-2.66,20.31-3.59,25.23-3.84,17.9-.89,39.97.84,57.39-1.48Z"/>
    <path class="st7" d="M934.44,1609.33c-9.88,22.08-17.28,45.5-29.07,66.87-2.23,4.05-6.17,10.47-8.72,14.54l-5.81,8.72c-1.71,2.39-6,8.68-7.27,10.18-5.07,5.98-14.15,13.72-20.35,18.9l19.47-21.96c21.73-28.32,33.85-60.43,47.4-92.88.57-1.37,3.43-3.2,2.93-5.81l1.43,1.45Z"/>
    <path class="st1" d="M956.25,1427.63c6.87-10.66,29.04-56.49,28.79-67.63-.36-16.04-24.07-6.4-28.79,3.66-3.44,2.64-3.12,3.24-4.36,4.36-1.9,1.71-2.65,2.46-4.36,4.36-2.42,2.69-3.71,4.49-5.81,7.27-10.59,13.94-36.82,52.95-41.34,68.4-2.4,8.22,1.14,34.5-8.07,39.92-16.07,9.45-11.08-26.25-12.29-34.26-1.5-9.94-7.21-21.55-13.89-29,8.37,5.48,17.44,24.58,17.44,34.16v24.71c0,1.43,3.51,2.33,5.09,2.33,10.89-.02,8.25-30.62,10.13-37.99,3.74-14.66,37.72-66.03,48.84-78.72,6.36-7.26,31.34-31.81,38.38-14.23,5.84,14.61-22,58.46-29.75,72.64Z"/>
    <path class="st1" d="M389.33,933.39c.14-.17-.32-4.51,1.43-2.89.11.1-.57,2.05,1.11,2.81,3.82,1.72,7.63,2.09,12.44,4.73,12.84,7.05,27.6,16.56,37.36,27.33-15.77-13.39-33.34-23.74-52.33-31.98,8.52,31.03-.15,60.3-20.35,84.31,10.94-18.05,22.17-38.3,21.85-60.24-.08-5.2-4.73-20.98-4.46-23.22.16-1.37,2.82-.68,2.96-.85Z"/>
    <path class="st1" d="M553.59,1769.23c2.77,11.75,1.16,26.41-.02,38.5-.54,5.52-1.52,20.39-2.86,24.49-.63,1.92-2.78.74-2.94.97,3.34-21.17,4.63-42.56,5.81-63.96Z"/>
    <path class="st1" d="M661.16,1844.82c-21.33,2.15-42.5,4.65-63.96,5.81-.82-4.39,2.22-2.81,5.02-2.91,17.59-.63,33.84-2.68,51.19-4.21,2.78-.24,5.44-.88,7.75,1.31Z"/>
    <path class="st1" d="M626.27,1728.53l-2.91,59.6c-.43-.31-2.42.92-2.97-.91-1.38-4.59,1.51-10.1,1.51-12.9v-26.17c0-4.99,3.02-13.56,1.46-19.63.94-.14,2.01.16,2.9.01Z"/>
    <path class="st1" d="M493.99,1074.39c-7.01-17.07-6.74-37.66-13.08-55.24,3.02,6.42,7.17,12.65,7.73,20.62l5.36,34.62Z"/>
    <path class="st1" d="M704.77,1641.31c2.35,1.23,1.71,43.8,1.45,50.22-.11,2.79,1.49,5.83-2.91,5.02,0-18.48.97-36.79,1.45-55.24Z"/>
    <path class="st1" d="M563.77,1097.65c8.34-13.62,14.56-29.42,14.68-45.79.04-5.74-4.44-21.91-1.59-25.44,6.57,25.48,4.17,51.13-13.08,71.23Z"/>
    <path class="st1" d="M289.03,1738.71c.76.27,2.58-.85,2.96.93-2.02,6.49,4.39,51.46-.05,52.85l-2.91-53.78Z"/>
    <path class="st7" d="M310.83,1884.07c-2.21,3.14-9.3,6.43-11.63,10.18.05-.14-.36-.87,0-2.91,26.58-18.05,15.66-54.12-2.91-74.14,18.93,12.33,27.55,48.33,14.54,66.87Z"/>
    <path class="st1" d="M134.94,1767.78c.49.77.75,1.87,1.45,2.91,3.78,5.57,8.33,11.93,14.54,15.99-.38,2.8,2.14,3.32,2.91,4.36,1.04,1.4,1.94,2.91,2.91,4.36-20.81-19.01-44.28-46.25-42.12-76.29.88-12.22,10.06-35.69,20.31-42.91-21.48,25.46-25.8,67.46,0,91.58Z"/>
    <path class="st1" d="M675.7,1727.08c-15.62.71-32.53.36-47.97,1.45-.82-4.4,2.22-2.8,5.02-2.91,13.72-.54,29.61-.81,42.95,1.45Z"/>
    <path class="st1" d="M386.42,1927.68c19.61,3.48,41.52,5.14,59.6-4.36-15.48,11.84-41.92,11.35-59.6,4.36Z"/>
    <path class="st1" d="M178.55,1815.75c2.37,2.14,4.94,3.87,7.27,5.81,13.06,9.72,6.74,19.04,9.36,32.06,1.11,5.52,10.23,21.46,13.89,26.08-11.29-11.08-16.93-22.77-17.53-38.59-.12-3.21,1.88-8.12,1.37-9.88-.45-1.57-10.64-8.35-12.75-10.56-2.7-2.83-4.8-6.41-7.43-9.29,1.87,1.46,4.07,2.78,5.81,4.36Z"/>
    <path class="st1" d="M555.04,1721.26c2.37,12.07,1.87,26.25,1.45,38.59-.09,2.79,1.48,5.83-2.91,5.02.72-14.54,1.21-29.03,1.45-43.61Z"/>
    <path class="st1" d="M425.67,1744.52c-19.56,15.87-7.46,28.04-9.03,45.36-.51,5.6-14.8,31.31-12.78,33.13,1.14,1.03,26.41,2.84,30.53,4.37-3.39,2.95-32.34-2.79-33.43-4.38-.92-1.35,11.78-23.87,12.69-30.16,2.3-16.02-8.46-38.71,12.02-48.32Z"/>
    <path class="st1" d="M954.79,1429.08c-3.26,3.39-11.26,5.78-16.75,10.14-17.14,13.61-37.74,46.2-33.77,68.73,3.47,19.7,24.97,18,27.01,21.68.9,1.62,0,6.84.9,10.02,6.88,24.67,51.2,13.15,55.75-5.49,3.05-12.51-13.07,1.19-17.12,3.24-7.03,3.55-11.9,7.07-20.3,4.26-22.5-7.54,11.18-40.77,20.28-47.16-2.94,2.36-10.68,11.21-13.08,14.54-.79,1.1-.99,2.2-1.45,2.91-9.58,6.54-19.4,26.48-1.55,28.42,14.33,1.56,23.93-13.67,31.18-13.84,11.06-.27,1.62,12.05-.56,15.95-.44.48-.98.97-1.45,1.45-12.48,10.64-30.51,16.84-45.55,7.03-11.29-7.37-8.06-19.55-9.82-21.44-.5-.53-10.6-2.27-13.96-4.21-25.78-14.92-8.32-49.2,3.91-67.15,1.07-1.57,8.08-10.94,8.72-11.63,6.66-7.11,17.76-15.89,27.62-17.44Z"/>
    <path class="st1" d="M310.83,1884.07c13.02-18.53,4.39-54.54-14.54-66.87v-1.45c19.95,13.16,32.2,48.09,14.54,68.32Z"/>
    <path class="st1" d="M451.84,1767.78c-.09-.06-1.47,1.89-2.2.17-3.63-8.63,7.64-18.44,10.16-26.35.71-2.22,2.73-15.97.76-15.97h-21.08c-1.87,0-19.19,7.33-21.58,8.94-14.5,9.74-16.25,24.5-18.39,40.48-5.22-30.15,30.84-60.03,58.21-51.67,19.04,5.81-11.41,34.46-5.88,44.4Z"/>
    <path class="st7" d="M200.36,1708.18c-13.36-9.11-45.38-29.72-60.75-30.3-6.29-.23-13.55,16.11-15.53,21.61-10.23,28.49-4.44,44.11,10.87,68.29-25.8-24.12-21.48-66.11,0-91.58.54-.38,1.01-1.25,1.45-1.45,22.95,5.59,47.14,16.96,63.96,33.43Z"/>
    <path class="st1" d="M972.24,1493.04c18-19.36,37.03-4.22,34.72,19.47-1.23,12.63-15.38,37.05-23.09,47.73-1.75,2.42-5.72,7.47-8.72,8.39,4.53-5.54,11.11-15.44,14.54-21.8,1.3-2.41,1.7-3.23,2.91-5.81,20.13-18.74,16.7-75.12-20.35-47.97Z"/>
    <path class="st1" d="M270.13,1123.82c14.03,15.79,30.82,25.24,52.33,17.44-17.69,13.45-41.31-1.43-52.33-17.44Z"/>
    <path class="st1" d="M184.37,1878.26c-15.06,34.29,49.92,53.68,71.23,33.43,6.87-.44,12.53.74,19.54-1.53,4.79-1.55,7.11-5.01,10.98-7.19-5.5,13.47-18.69,8.44-29.18,10.8-5.4,1.22-11.73,7.02-18.17,8-18.8,2.87-46.93-7.4-57.32-23.88-3.51-5.57-3.25-17.43,1.53-21.1.6-.46,1.28,1.48,1.38,1.47Z"/>
    <path class="st1" d="M555.04,1692.19c.09.14,2.23-.37,2.57.27.99,1.8.45,14.52.33,17.97-.09,2.79,1.48,5.83-2.91,5.02.02-7.72.34-15.49,0-23.26Z"/>
    <path class="st1" d="M495.44,1077.3c10.83,23.75,29.69,37.73,56.69,29.07-22.55,14.52-51.25-6.16-56.69-29.07Z"/>
    <path class="st1" d="M209.08,1616.6l36.01-19.96c18.59-5.8,41.25-20.7,60.96-16.67.42.09,7.13,2.14,3.34,3.19-10.52-4.98-22.12-.37-32.75,2.86-21.03,6.38-48.38,19.62-67.55,30.57Z"/>
    <path class="st7" d="M956.25,1427.63c-.29.46-.99.98-1.45,1.45-9.86,1.55-20.96,10.33-27.62,17.44,4.94-6.34,10.92-12.06,17.53-16.63,3.15-2.18,7.05-1.7,9.35-3.73,2.61-2.3,22.85-43.89,24.68-49.45,9.65-29.34-2.08-28.68-22.49-13.05,4.73-10.07,28.44-19.7,28.79-3.66.25,11.14-21.92,56.96-28.79,67.63Z"/>
    <path class="st1" d="M482.36,1770.69c-9.4,14.65-25.01,22.86-40.24,9.7-15.1-13.05-1-30.36,6.8-43.13.13,9.08-14.22,18.76-11.05,33.51,2.83,13.13,23.49,16.43,33.58,10.1,3.53-2.21,5.44-6.68,8.03-9.41,2.11-2.22.69-2.03,2.87-.76Z"/>
    <path class="st1" d="M698.95,1578.81c8.1,19.75-3.38,34.87-8.45,53.33l-11.9,20.8c12.44-20.27,22.58-50.28,20.35-74.14Z"/>
    <path class="st1" d="M754.19,1740.16c0,.07,3.72,2.25-.55,1.3-5.77-1.28-28.4-7.67-31.43-11.48l31.98,10.18Z"/>
    <path class="st1" d="M491.08,1801.21l5.64-24.15c-1.7-9.6-.47-24.67-14.44-20.26-2.55.81-5.36,5.78-7.19,3.71,9.15-6.65,14.53-12.91,20.63,1.9,5.18,12.56,2.43,27.52-4.64,38.81Z"/>
    <path class="st1" d="M380.61,1606.43c1.3-2.76,4.65-.63,6.57-.05,33.68,10.14,66.29,23.65,99.55,35.01-.21.59-1.52,1.3-1.45,1.38-34.51-13.22-69.49-24.97-104.66-36.34Z"/>
    <path class="st1" d="M690.23,1789.58c-.06.08,1.32.71,1.43,1.32-10.13,2.89-22.09,13.1-32.76,13.25-7.4.11-24.97-9.3-31.18-13.11,9.33.98,22,11.22,31,11.16s23.18-9.18,31.5-12.62Z"/>
    <path class="st7" d="M992.59,1541.01c7.93-16.97,23.04-59.86-11.97-50.49l-22.92,18.51c2.4-3.33,10.14-12.17,13.08-14.54.53-.43.95-1.08,1.45-1.45,37.05-27.15,40.48,29.23,20.35,47.97Z"/>
    <path class="st1" d="M932.99,1514.85c-.35.28,1.65,4.42-4.68,2.56-6.46-1.9-13.19-11.04-12.81-17.78.72-12.74,29-51.46,41.8-54.24,13.63-2.96,24.77,14.63,18.46,25.75-2.25,3.96-16.85,13.12-21.53,17.71-8.36,8.19-12.09,16.77-18.3,25-.99,1.31-2.68.8-2.94,1,.83-.31,4.55-6.84,4.36-8.72,4.6-1.31,5.44-7.92,7.27-10.18l7.27-7.27c.46-.51.98-.96,1.45-1.45,9.82-11.48,25.74-11.3,21.49-29.49-3.16-13.54-21.89-12.76-28.76-2.49-3.6,2.58-4.57,4.23-7.27,7.27-3.38,3.81-7.37,8.01-8.72,13.08-.5.68-1.81,1.28-2.91,2.91-4.86,7.25-10.09,16.23-8.66,25.34,1.01,6.41,7.55,13.57,14.47,11Z"/>
    <path class="st1" d="M478,1849.18c.86-.24,1.61-1.29,3.53-1.5,4.08-.45,18.66-1.48,16.82,2.96-6.86-.32-13.53-.97-20.35-1.45Z"/>
    <path class="st1" d="M187.27,1878.26c6.99,1.21,12.42,8.54,20.01,11.25,1.86.66,13.21,4.66,11.97-1.07.75.6,2.51.95,2.91,1.45-.27,7.27-9.11,3.48-13.05,2.14-7.6-2.58-15.37-9.12-21.84-13.77Z"/>
    <path class="st7" d="M187.27,1878.26c6.47,4.65,14.24,11.19,21.84,13.77,3.93,1.33,12.78,5.13,13.05-2.14,1.33,1.69,2.38,1.53.77,4.39-6.25,11.13-34.65-15.93-38.5-13.04-1.14.85-1.69,10.53-.89,13.08,5.39,17.31,39.24,25.06,54.95,22.81,7.37-1.05,11.56-5.09,17.1-5.44-21.31,20.25-86.28.86-71.23-33.43.82-.1,2.13-.13,2.91,0Z"/>
    <path class="st1" d="M440.21,1818.66c3.59-11.23,14.26-9.25,23.18-12.43,14.82-5.27,21.56-18.81,20.43-34.09,4.33,9.58-.49,18.85-6.53,26.18-12.07,14.64-25.39,7.93-37.08,20.34Z"/>
    <path class="st1" d="M696.05,1725.62c-5.94-.5-11.55,1.24-17.44,1.45-1.5-4.99,13.89-3.51,17.44-1.45Z"/>
    <path class="st1" d="M400.96,1777.96c.72,4.02,4.95,7.92,1.42,14.55-.55-.26-1.33-1.52-1.42-1.47v-13.08Z"/>
    <path class="st1" d="M427.12,1743.07c1.89-3.76,19.8-11.54,21.8-10.17.32.22-.22,2.26,0,2.9-7.24.22-15.84,3.25-21.8,7.27Z"/>
    <path class="st7" d="M549.23,1655.85c7.44,3.59,10.35,8.77,15.99,14.54v1.45c-.36.11-2.05-1.23-2.91-1.45l-7.27-7.27c-3.21-3.87-1.04-2.28-5.81-5.81v-1.45Z"/>
    <path class="st1" d="M246.87,1077.3l-15.99,26.17c4.32-9.99,8.29-19.26,15.99-26.17Z"/>
    <path class="st7" d="M216.35,1884.07h-2.91c-1.14-1.17-3.77-3.62-4.36-4.36-3.67-4.63-12.78-20.56-13.89-26.08-2.62-13.02,3.69-22.35-9.36-32.06,3.34,2.79,7.68,3.87,9.86,8.37,2.42,4.99-.45,18.61,2.52,27.94,3.56,11.2,12.87,17.58,18.15,26.19Z"/>
    <path class="st1" d="M454.74,978.45c7.58,5.17,15.48,16.6,20.21,24.44,1.16,1.92,6.33,11.07,4.5,13.35-6.83-13.9-14.43-26.21-24.71-37.79Z"/>
    <path class="st7" d="M161.11,1798.31c5.84,3.49,10.05,8.78,15.13,13.17.7.61,5.32,3.49,2.31,4.28-1.75-1.58-3.95-2.9-5.81-4.36-.46-.5-1-.94-1.45-1.45l-1.45-1.45c-.45-.51-1-.95-1.45-1.45-2.48-2.78-5-5.75-7.27-8.72Z"/>
    <path class="st7" d="M257.05,1783.77c1.52,1.77,2.78,4.11,4.36,5.81-6.01-.08-8.05-7.89-10.18-10.18h1.45c2.1,2.52,3.66,3.55,4.36,4.36Z"/>
    <path class="st1" d="M136.4,1674.75c4.39-2.02,13.63,1.66,18.86,3.67,13.39,5.15,27.07,14.17,39.12,21.93l11.79,10.74c-2.08-1.44-4.58-2.06-5.81-2.91-16.82-16.47-41.01-27.84-63.96-33.43Z"/>
    <path class="st1" d="M973.69,1570.08c-4.1,13.34-28.44,24.38-34.41,32.45-3.88,5.25-11.03,28.59-14.76,36.85-5.64,12.47-11.88,25.21-19.15,36.82,11.79-21.37,19.19-44.79,29.07-66.87.86-1.92,2.7-6.94,2.91-7.27,2.02-3.28,28.83-23.08,36.34-31.98Z"/>
    <path class="st1" d="M661.16,1588.98l-27.29,23.19-34.45,23.36-26.93,27.58c9.35-9.19,17.1-20.95,27.61-29.81,8.36-7.06,18.66-11.58,26.18-19.61,2.48-1.71,3.84-2.92,5.81-4.36,4.67-1.04,7.94-4.62,11.63-7.27,5.09-3.66,9.66-7.92,14.54-11.63.79-.6,2.11-.83,2.91-1.45Z"/>
    <path class="st1" d="M585.57,1032.24c-2.39-1.94-5.76-2.78-7.27-5.81,5.15-1.81,4.08,2.04,7.27,5.81Z"/>
    <path class="st1" d="M587.02,1033.69c7.41,2.96,17.1,13.04,20.35,20.35-6.13-6.87-13.42-14.35-20.35-20.35Z"/>
    <path class="st1" d="M553.59,1106.37c-.22-4.36,4.11-4.46,7.27-5.81-2.7,2.35-2.68,4.06-7.27,5.81Z"/>
    <path class="st1" d="M198.9,1683.47c-15.39-9.16-31.88-15.58-47.97-23.26,16.99,4.29,33.83,13.08,47.97,23.26Z"/>
    <path class="st7" d="M989.68,1546.83c-3.43,6.36-10,16.27-14.54,21.8-.43.52-1.01.93-1.45,1.45-7.51,8.9-34.32,28.7-36.34,31.98-2.88.6-9.6-.86-11.63,0,19.11-1.75,31.35-18.11,44.35-30.51l19.61-24.73Z"/>
    <path class="st1" d="M257.05,1783.77l37.79,30.53-31.98-23.26c-.48-.49-.99-.95-1.45-1.45-1.58-1.7-2.84-4.05-4.36-5.81Z"/>
    <path class="st7" d="M158.2,1795.4h-1.45c-.96-1.45-1.87-2.96-2.91-4.36l.72-1.42c2.79,1.25,2.67,4.13,3.64,5.78Z"/>
    <path class="st1" d="M219.25,1725.62c-.7,1.56-4.88.87-2.12,7.19,3.61,8.26,28.29,37.88,35.56,46.6h-1.45c-.47-.51-1-.96-1.45-1.45l-36.34-49.42c1.87-1.14,3.49-2.68,5.81-2.91Z"/>
    <path class="st1" d="M168.38,1807.03c-4.75-1.24-6.24-5.09-8.72-8.72h1.45c2.27,2.97,4.79,5.94,7.27,8.72Z"/>
    <path class="st1" d="M344.27,1051.14c1.29-2.71-.81-5.09,5.81-7.27-1.38,2.62-3.22,5.66-5.81,7.27Z"/>
    <path class="st1" d="M361.71,1026.42l-11.63,15.99c4.03-7.09,7.16-10.94,11.63-15.99Z"/>
    <path class="st1" d="M248.33,1292.44c-3.35-.43-6.74-3.92-5.81-7.27,2.05,2.43,3.83,4.86,5.81,7.27Z"/>
    <path class="st1" d="M725.12,1586.07c1.58-2.6,6.33.37,8.25,1.21,10.62,4.67,21.02,10.01,31.47,15.06,1.09.53,6.03,1.27,2.44,2.63-10.01-5.58-31.53-16.53-42.16-18.9Z"/>
    <path class="st1" d="M703.32,1706.73c0-2.42,0-4.85,0-7.27,2.57,1.67,2.09,5.23,0,7.27Z"/>
    <path class="st1" d="M216.35,1884.07c.56.92.93,1.97,1.45,2.91-.71-.62-1.97-.46-4.36-2.91h2.91Z"/>
    <path class="st1" d="M563.77,1833.19c-.4-.34-2.56.32-2.9-.01-.91-.9,1.43-2.73,1.44-2.9l1.45,2.91Z"/>
    <path class="st1" d="M684.42,1568.63c-.04.09,2.24.37,1.45,1.42-1.36,1.83-18.41,14.8-21.8,17.48l20.35-18.9Z"/>
    <path class="st1" d="M608.83,1055.5c7.67,4.08,11.63,13.02,15.99,20.35-5.91-6.18-10.42-14.02-15.99-20.35Z"/>
    <path class="st1" d="M230.88,1104.92l-2.91,4.36c2.02-6.8,2.77-4.02,2.91-4.36Z"/>
    <path class="st1" d="M890.83,1699.46l5.81-8.72c-2.07,3.31-3.55,5.55-5.81,8.72Z"/>
    <path class="st1" d="M661.16,1955.3l1.45-5.81c-.46,2-1.01,3.91-1.45,5.81Z"/>
    <path class="st1" d="M453.29,977c-3.04-3.27-5.37-5.7-8.72-8.72,4.12.67,8.07,4.64,8.72,8.72Z"/>
    <path class="st1" d="M363.16,1024.97c-.23-3.71,2.8-4.17,4.36-5.81-1.22,2.12-2.57,4.13-4.36,5.81Z"/>
    <path class="st1" d="M387.88,1631.14c-.97-.96-2.64-2.65-2.91-2.91l2.91,2.91Z"/>
    <path class="st1" d="M562.31,1670.39c-.08-.02-.75,1.62-1.18,1.29s-4.74-6.93-6.09-8.56l7.27,7.27Z"/>
    <path class="st1" d="M299.2,1895.7c-2.36,3.62-8.78,4.04-11.63,5.81v-1.45l11.63-4.36Z"/>
    <path class="st1" d="M464.92,1998.91c6.67-11.4,12.31-27.14,18.9-39.25,2.82.83.09,4.45-.68,5.86-6.04,11.13-11.89,22.43-18.22,33.38Z"/>
    <polygon class="st1" points="688.78 1564.27 690.23 1565 689.51 1565.72 688.78 1565 688.78 1564.27"/>
    <path class="st1" d="M693.14,1559.91c.42-.54.99-.96,1.45-1.45-.5.39-.97,1.26-1.45,1.45Z"/>
    <path class="st1" d="M350.08,1616.6l-5.81-5.81c2.27,2.06,3.92,4.04,5.81,5.81Z"/>
    <path class="st1" d="M392.24,1658.76l-4.36-4.36c1.49,1.45,2.9,2.94,4.36,4.36Z"/>
    <path class="st7" d="M572.49,1663.12c-.6.59-2.1.88-2.91,1.45,15.22-23.79,34.38-35.44,56.69-50.88-7.52,8.03-17.81,12.55-26.18,19.61-10.51,8.87-18.25,20.62-27.61,29.81Z"/>
    <path class="st1" d="M565.22,1671.84v-1.45l4.36-2.91c-.99,1.81-2.26,3.73-4.36,4.36Z"/>
    <path class="st1" d="M219.25,1724.17l-8.72-10.18c3.19,2.38,9.56,6.92,8.72,10.18Z"/>
    <polygon class="st1" points="699.68 1722.72 700.41 1723.44 699.68 1724.17 699.68 1722.72"/>
    <path class="st1" d="M462.01,2003.27l1.45-1.45c-.38.57-1.03.94-1.45,1.45Z"/>
    <path class="st1" d="M171.28,1809.94c-.45-.51-1-.94-1.45-1.45l1.45,1.45Z"/>
    <path class="st7" d="M294.84,1814.3v1.45c-12.07-8.41-21.63-14.16-31.98-24.71l31.98,23.26Z"/>
    <polygon class="st1" points="648.08 1815.75 648.8 1814.3 649.53 1815.02 648.8 1815.75 648.08 1815.75"/>
    <path class="st1" d="M627.73,1080.21l-2.91-2.91c.18.3,1.87,1.05,2.91,2.91Z"/>
    <path class="st5" d="M309.38,1290.99l20.34,274.73c-6.65-4.33-54.51-11.19-55.32-13.92-1.07-3.59.45-15.17.14-20.28-4.13-68.93-10.75-137.81-18.94-206.33.53-5.11,22.01-17.57,27.61-19.77l-1.46-1.33c6.7-5.47,15.48-9.36,23.26-13.08.19,2.04,3.3.41,4.36,0Z"/>
    <path class="st5" d="M367.52,1577.35c-5.14-1.67-11.61-4.49-15.99-5.81-2.19-15.66-4.45-31.49-5.79-47.27-1.84-21.66-8.46-85.27-3.67-102.51.37-1.33.67-3.94,2.9-2.84,9.62,4.73,11.06,62.78,12.4,74.83,3.1,27.85,6.23,55.88,10.15,83.61Z"/>
    <path class="st7" d="M428.58,1487.23c4.41-6.07,14.55-9.29,21.47-6.31,7.88,3.39-2.46,17.18-1.07,19.33,1.01,1.57,30.35,12.94,34.53,14.18,37.19,11.04,79.36,10.52,114.67-6.61,7.32-3.55,28.26-23.47,32.23-7.91,2.49,9.75-17.35,41.22-24.42,49.11-43.37,48.34-114.75,40.54-154.15-8.01,21.46,20.7,44.83,35.83,75.59,37.79,3.19,2.46,11.3,2.47,14.54,0,20.47-1.22,41.92-8.3,55.24-24.71,3.34-2.96,2.85-2.28,5.81-5.81,8.91-4.35,29.17-44.58,24.52-50.69-5.27-6.93-19.25,7.08-23.2,9.13-40.66,21.04-88.61,22.35-131.31,6.56-3.77-1.39-26.55-11.67-26.8-13.67-.52-4.17,12.73-15.58-.23-17.56-4.29-.65-13.79,2.74-17.42,5.17Z"/>
    <path class="st7" d="M634.99,1325.87c-4.93,5.49-17.75-2.91-25.82-3.98-4.9-.65-12.22-.93-17.07-.38-8.42.95-30.87,15.83-29.94-3.6.78-16.25,26.38-24.86,40.09-23.98,12.98.84,46.16,16.99,32.73,31.94.82-.81-.2-10.39-1.1-12.71-4.26-11.04-21.94-15.77-32.34-16.36-1.44-2.34-7.2-2.38-8.72,0-11.45,1.11-27.5,8.47-28.3,21.59-.57,9.37,4.65,7.68,10.86,6.03,9.6-2.55,14.07-6.16,25.48-5.91,6.66.15,32.47,8.99,34.12,7.36Z"/>
    <path class="st7" d="M460.56,1317.15c-16.53-10.18-34.04-12.98-52.32-5.08-9.44,4.08-28.19,19.79-22.54,31.25,4.77,9.68,16.14-2.51,19.62-4.37,12.6-6.74,20.1-9.43,34.89-8.72.8,1.98,2.83,1.21,4.36,1.45,12.76,2.01,22.78,4.61,17.44-13.08.79.88,5.51.02,4.35,7.87-2.43,16.43-24.1,5.29-33.76,5.63-5.5.19-13.35,2.61-18.53,4.71-8.03,3.25-21.01,17.27-28.63,8.94-11.26-12.31,15.52-33.42,26.36-37.37,18.08-6.59,34.61-3.49,48.75,8.77Z"/>
    <path class="st7" d="M611.74,1434.9c18.08-7.92,19.24-53.91,4.36-66.87-.56-.76-1.08-1.03-1.45-1.45-2.6-2.96-6.99-5.42-10.86-5.88-41.47-4.88-30.9,91.22,7.95,74.2-4.37,2.16-4.37,3.6-10.91,2.97-35.95-3.48-33.41-86.61,3.63-79.33,28.59,5.62,34.12,63.12,7.28,76.36Z"/>
    <path class="st7" d="M453.29,1449.43c24.16-9.57,21.93-77.59-10.95-78.55-30.06-.89-35.54,64.81-5.04,77.1,5.53,2.23,9.51,4.02,15.99,1.45-.3.13-.66,2.33-3.6,2.88-39.68,7.38-46.74-76.27-13.04-82.74,36.13-6.95,49.92,65.84,16.65,79.87Z"/>
    <path class="st7" d="M351.53,1571.54c4.38,1.32,10.85,4.15,15.99,5.81,46.43,15.05,109.67,35.04,152.89,55.71,6.94,3.32,10.16,6.23,15.74,11.16-20.36-11.94-43.52-19.65-65.71-28.05-45.03-17.04-93-34.47-139.25-47.54,4.33-2.02,15.08,1.32,20.35,2.91Z"/>
    <path class="st7" d="M547.78,1491.59c-.35-.58-3.04-.99-2.97-3.6.26-9.38,27.06-7.75,31.27-18.24,6.26-15.6-11.12-15.01-19.92-21.75-8.18-6.26-20.2-26.35-11.37-35.71,8.04-8.52,9.87,5.61,12.27,8.97,10.21,14.33,25.77,11.34,37.27,24.5,27.86,31.89-26.2,65.07-44.48,50.23-1.83-1.48-1.4-3.29-2.07-4.41.67,1.76,10.05,5.47,12.53,5.72,24.59,2.5,54.36-29.59,32.59-51.57-8.51-8.6-24.53-8.62-33.49-18.11-.47-.49-1.01-.95-1.45-1.45-13.14-33.99-19.84,2.11-4.39,16.74,10.17,9.63,36.89,11.93,21.83,31.23-.45.48-.95,1.03-1.45,1.45-5.76,5.83-30,5.9-26.17,15.99Z"/>
    <path class="st7" d="M427.12,1488.68c-6.38,5.21-12.5,16.08-10.97,24.7,2.54,14.3,13.81-2.26,18.05.2.87.5,8.38,14.46,10.36,17.26-.69,2.3-4.11-2.4-4.26-2.62-1.48-2.13-6.07-11.79-6.73-12-4.38-1.4-6.68,5.19-12.97,4.43-13.52-1.63-4.36-30.13,6.52-31.96Z"/>
    <path class="st1" d="M428.58,1487.23c3.64-2.44,13.13-5.83,17.42-5.17,12.96,1.97-.3,13.39.23,17.56.25,1.99,23.03,12.27,26.8,13.67,42.69,15.79,90.65,14.48,131.31-6.56,3.96-2.05,17.94-16.06,23.2-9.13,4.65,6.11-15.61,46.34-24.52,50.69,7.82-9.32,17.71-26.2,20.99-37.87,7.38-26.25-16.86-2.84-27.02,2.04-35.71,17.18-78.36,17.54-115.77,5.71-6.47-2.05-29.82-11.26-34.15-14.87-7.08-5.9,13.54-23.93-8.65-18.58-6.76,1.63-18.15,11.07-19.71,18.08-5.88,26.42,13.31,6.36,15.65,7.69,1.3.75,12.41,20.64,16.25,25.2,36.54,43.46,101.26,58.55,146.59,18.4-13.32,16.42-34.77,23.49-55.24,24.71-4.48.27-10.06.29-14.54,0-30.76-1.97-54.13-17.1-75.59-37.79-1.54-1.9-5.44-7.6-7.27-10.18-1.99-2.79-9.49-16.75-10.36-17.26-4.24-2.46-15.51,14.1-18.05-.2-1.53-8.62,4.59-19.49,10.97-24.7.54-.44.98-1.14,1.45-1.45Z"/>
    <path class="st1" d="M460.56,1317.15c.5.43,1.01.96,1.45,1.45,5.34,17.69-4.68,15.09-17.44,13.08-.79-1.87-2.74-1.38-4.36-1.45-14.79-.71-22.28,1.98-34.89,8.72,10.61-5.45,13.21-11.13,28.6-11.5,7.22-.17,26.63,8.74,28.14.56,2.83-15.36-26.86-18.99-37.16-18.17-12.41.98-32.19,10.47-36.74,22.93-6.21,16.98,9,10.39,17.17,6.19-3.48,1.86-14.85,14.04-19.62,4.37-5.65-11.46,13.1-27.17,22.54-31.25,18.28-7.9,35.8-5.11,52.32,5.08Z"/>
    <path class="st7" d="M537.6,1645.67c1.67.45,9.8,5.48,10.15,5.96.45.61-1.45,1.21-1.43,1.31-3.97-1.65-5.96-4.59-8.72-7.27Z"/>
    <path class="st7" d="M643.72,1602.06c-3.69,2.65-6.96,6.23-11.63,7.27,3.7-2.7,7.14-6.03,10.92-8.69l.71,1.42Z"/>
    <path class="st0" d="M281.76,1277.9c2.12-2.82,1.41-3.79.07-6.55-7.77-16.09-17.16-24.02-21.69-43.79-2.38-10.4-5.47-52.78-.18-60.14,1.97-2.75,2.7,1.2,3.25,1.9,6.36,8.07,10.73,18.51,18.57,26.43,13.61,13.77,48.33,31.27,67.58,31.27h26.17c5.34,0-4.26-15.31-5.14-18.12-21.62-68.78,33.91-92.45,44.7-142.93.95-4.47,1.28-26.52,2.61-26.49,2.2.05,16.89,14.88,18.78,17.56,19.31,27.17,15.09,61.09,31.64,89.02,30.67,51.75,103.75,46.66,119.42-13.75.82-3.14.08-14.4,3.83-11.39,1.89,1.52,11.03,25.36,12.07,29.38,6.25,24.23,3.87,47.77-1.7,71.82-.57,2.46-.19,3.71-3.07,4.91-69.14-10.2-135.48-3.09-203.51,10.18-.63.12-1.21.84-1.45,1.45-35.96,7.21-79.47,22.24-111.93,39.25Z"/>
    <path class="st5" d="M268.47,1908.58c-.85.53-11.32,1.59-9.95-1.95,1.68-4.35,11.66-14.57,14.5-19.65-.95,3.23-3.44,20.9-4.55,21.6Z"/>
    <path class="st7" d="M213.44,1728.53l36.34,49.42c-.2-.22-2.28-.08-3.53-1.5-6.18-7-32.45-40.7-34.28-47.19-1.14-4.04,1.41-.69,1.48-.74Z"/>
    <path class="st7" d="M150.93,1786.68c-6.21-4.06-10.75-10.42-14.54-15.99l14.54,15.99Z"/>
    <path class="st5" d="M690.23,1433.44l-1.45-7.27c.11,1.18,1.19,4.26,1.45,7.27Z"/>
    <path class="st5" d="M268.68,1469.78c0-.1-1.38-.49-1.45-1.45l1.45,1.45Z"/>
    <path class="st5" d="M262.86,1420.36c-.04-.48.04-.97,0-1.45l1.42.73-1.42.73Z"/>
    <path class="st5" d="M261.41,1391.29c0-.1-1.36-.48-1.45-1.45l1.45,1.45Z"/>
    <path class="st4" d="M255.59,1336.05c0-.1-1.41-.52-1.45-1.45l1.45,1.45Z"/>
    <path class="st2" d="M956.25,1363.67c20.42-15.63,32.15-16.29,22.49,13.05-1.83,5.56-22.08,47.15-24.68,49.45-2.3,2.03-6.2,1.55-9.35,3.73-6.61,4.58-12.59,10.29-17.53,16.63-.65.69-7.65,10.06-8.72,11.63-1.5-2.3-6.02,6.67-6.43,7.38-12.88,22.44-22.68,47,4.9,63.19,2.65,1.56,8.66,2.07,9.61,3.47,1.27,1.88.1,5.58,1.03,7.69,10.76,24.31,38.44,21.94,55.94,6.51.66-.58.16-2.28.37-2.49.47-.49,1.01-.97,1.45-1.45,2.4-2.64,6.32-1.74,7.2-9.59,2.23-19.88-23.36,3.46-31.54,4.87-23.23,4.01-11.96-14.78-4.74-25.81.46-.71.66-1.8,1.45-2.91l22.92-18.51c35.02-9.37,19.9,33.53,11.97,50.49-1.21,2.58-1.61,3.4-2.91,5.81l-19.61,24.73c-13,12.4-25.24,28.76-44.35,30.51-4.44,1.88,3.99,8.81,4.36,11.63-13.55,32.45-25.67,64.55-47.4,92.88l-19.47,21.96c-1.61,1.34-3.07,1.93-4.36,2.91-20.64.38-41.21-2.24-61.04-8-7.73-2.24-17.96-8.51-24.72-9.44-5.64-12.42,15.61-78.24,23.48-82.72,1.32-.75,9.71,3.35,13.52,2.79,6.6-.96,26.3-33.71,30.44-40.89,3.35-5.81,17.2-29.88,18.02-34.35,1.33-7.25-6.88-16.79-9.53-24.68-8.21-24.4-1.37-37.22-.27-60.67.82-17.41-1.45-34.49-2.35-51.75,17.33-5.63,28.02,16.45,30.95,30.31,2.03,9.58-.71,35.46,7.29,37.8,18.85,5.53,17.91-32.52,18.5-43.37l38.58-66.8c2.11-2.78,3.4-4.57,5.81-7.27l.72,1.42c1.94-1.5,3.52-3.19,3.64-5.78,1.25-1.12.92-1.72,4.36-4.36Z"/>
    <path class="st5" d="M937.35,1602.06c-.21.33-2.05,5.35-2.91,7.27l-1.43-1.45c.5,2.62-2.36,4.44-2.93,5.81-.37-2.82-8.8-9.75-4.36-11.63,2.03-.86,8.75.6,11.63,0Z"/>
    <path class="st5" d="M773.09,1714c6.76.93,16.99,7.19,24.72,9.44,19.83,5.76,40.4,8.38,61.04,8-15.33,11.6-26.21,18.09-47.27,17.52-5.19-.14-35.58-5.82-37.81-8.75-1.77-2.33-3.51-21.89-3.59-26.21.95.09,1.97-.13,2.91,0Z"/>
    <path class="st7" d="M918.45,1458.15c-12.23,17.95-29.69,52.23-3.91,67.15,3.36,1.94,13.46,3.68,13.96,4.21,1.76,1.89-1.47,14.07,9.82,21.44,15.04,9.81,33.07,3.61,45.55-7.03-.2.21.29,1.91-.37,2.49-17.5,15.42-45.17,17.8-55.94-6.51-.93-2.11.24-5.81-1.03-7.69-.95-1.41-6.96-1.91-9.61-3.47-27.58-16.19-17.78-40.76-4.9-63.19.41-.72,4.93-9.69,6.43-7.38Z"/>
    <path class="st7" d="M927.18,1478.51l-6.92,18.53c-2.53,6.79,3.16,16.62,10.58,16.47,3.9-.08,3.82-11.4,6.52-7.37.19,1.88-3.53,8.41-4.36,8.72-6.92,2.57-13.47-4.59-14.47-11-1.43-9.11,3.8-18.1,8.66-25.34Z"/>
    <path class="st7" d="M956.25,1511.94c-7.22,11.03-18.49,29.82,4.74,25.81,8.18-1.41,33.77-24.75,31.54-4.87-.88,7.85-4.8,6.95-7.2,9.59,2.18-3.9,11.62-16.22.56-15.95-7.25.17-16.86,15.4-31.18,13.84-17.85-1.94-8.02-21.88,1.55-28.42Z"/>
    <path class="st7" d="M946.07,1455.25c6.86-10.28,25.6-11.05,28.76,2.49,4.25,18.19-11.67,18.01-21.49,29.49,2.95-3.11,5.57-6.44,8.71-9.46,5.99-5.77,13.07-5.14,11.38-17.05-1.31-9.21-8.62-13.19-17.53-10.93-.54.14-9.26,5.05-9.82,5.46Z"/>
    <path class="st2" d="M946.07,1455.25c.57-.41,9.28-5.32,9.82-5.46,8.91-2.26,16.22,1.72,17.53,10.93,1.69,11.91-5.39,11.28-11.38,17.05-3.14,3.02-5.76,6.35-8.71,9.46-.47.5-1,.95-1.45,1.45-2.21,2.45-4.65,4.05-7.27,7.27-1.83,2.25-2.67,8.86-7.27,10.18-2.69-4.02-2.61,7.29-6.52,7.37-7.42.15-13.11-9.68-10.58-16.47l6.92-18.53c1.09-1.63,2.4-2.23,2.91-2.91,3.09-4.16,6.82-8.34,10.15-12.36l-1.43-.72c2.7-3.04,3.67-4.69,7.27-7.27Z"/>
    <path class="st7" d="M944.62,1495.95c2.61-3.22,5.05-4.82,7.27-7.27l-7.27,7.27Z"/>
    <path class="st7" d="M930.08,1475.6c1.35-5.07,5.34-9.27,8.72-13.08l1.43.72c-3.33,4.03-7.06,8.2-10.15,12.36Z"/>
    <path class="st7" d="M947.53,1372.39c1.71-1.9,2.46-2.66,4.36-4.36-.12,2.59-1.7,4.29-3.64,5.78l-.72-1.42Z"/>
    <path class="st1" d="M592.84,1296.8c2.59-.25,6.06-.15,8.72,0,10.4.59,28.07,5.32,32.34,16.36.9,2.33,1.92,11.9,1.1,12.71-1.64,1.63-27.46-7.21-34.12-7.36-11.41-.25-15.88,3.36-25.48,5.91,1.18-.25,7.68-5.36,10.58-6.14,6.32-1.69,16.83-1.78,23.42-.97,4.96.62,21.59,8.27,24.15,5.65,2.29-2.35-2.8-12.59-4.97-14.63-12.35-11.63-47.41-14.45-58.23.13-4.89,6.59-6.78,18.41,5.05,15.95-6.21,1.65-11.43,3.34-10.86-6.03.8-13.11,16.86-20.48,28.3-21.59Z"/>
    <path class="st5" d="M444.57,1331.69c-1.53-.24-3.56.53-4.36-1.45,1.62.08,3.57-.42,4.36,1.45Z"/>
    <path class="st1" d="M614.64,1366.58c-42.79-23.88-44.98,61.6-16.36,66.51,31.88,5.46,30.68-47.4,17.81-65.05,14.88,12.96,13.72,58.94-4.36,66.87-38.85,17.02-49.41-79.07-7.95-74.2,3.86.45,8.25,2.92,10.86,5.88Z"/>
    <path class="st5" d="M541.96,1578.81c-3.23,2.47-11.34,2.46-14.54,0,4.47.29,10.05.27,14.54,0Z"/>
    <path class="st1" d="M453.29,1449.43c-6.48,2.57-10.46.78-15.99-1.45,40.59,9.28,38.45-71.58,6.53-74.15-36.27-2.91-26.54,69.57-6.53,74.15-30.5-12.29-25.03-77.98,5.04-77.1,32.88.97,35.11,68.99,10.95,78.55Z"/>
    <path class="st5" d="M601.56,1296.8c-2.66-.15-6.13-.25-8.72,0,1.53-2.38,7.28-2.34,8.72,0Z"/>
    <path class="st1" d="M547.78,1491.59c-3.83-10.09,20.41-10.16,26.17-15.99-8.54,7.18-23.74,9.24-24.71,10.18-1.06,1.04,2.71,7.23,4.35,7.99,9.58,4.46,28.32-2.11,35.68-9.39,11.31-11.19,11.91-32.39-2.31-41.42-11.11-7.05-16.06-3.39-27.55-15.33,8.96,9.49,24.98,9.52,33.49,18.11,21.77,21.98-8,54.07-32.59,51.57-2.48-.25-11.86-3.96-12.53-5.72Z"/>
    <path class="st1" d="M557.95,1426.17c-3.84-4.43-3.4-4.64-6.17-9.1-5.28-8.5-5.78,7.06-4.75,12.02,4.44,21.28,39.34,21.01,33.86,39.65-.89,3.04-3.92,3.72-5.5,5.4,15.06-19.29-11.66-21.6-21.83-31.23-15.46-14.63-8.75-50.73,4.39-16.74Z"/>
    <path class="st3" d="M557.95,1426.17c.44.51.98.96,1.45,1.45,11.49,11.94,16.44,8.28,27.55,15.33,14.22,9.03,13.62,30.23,2.31,41.42-7.36,7.28-26.11,13.85-35.68,9.39-1.65-.77-5.42-6.96-4.35-7.99.97-.95,16.17-3.01,24.71-10.18.5-.42,1-.97,1.45-1.45,1.58-1.68,4.61-2.36,5.5-5.4,5.48-18.64-29.42-18.37-33.86-39.65-1.03-4.96-.53-20.52,4.75-12.02,2.77,4.46,2.32,4.67,6.17,9.1Z"/>
    <path class="st3" d="M597.2,1554.09c-45.33,40.15-110.04,25.07-146.59-18.4-3.84-4.56-14.95-24.45-16.25-25.2-2.33-1.34-21.53,18.72-15.65-7.69,1.56-7.01,12.95-16.45,19.71-18.08,22.19-5.35,1.57,12.68,8.65,18.58,4.33,3.61,27.68,12.83,34.15,14.87,37.41,11.83,80.07,11.47,115.77-5.71,10.16-4.89,34.4-28.3,27.02-2.04-3.28,11.67-13.17,28.55-20.99,37.87-2.96,3.53-2.47,2.85-5.81,5.81Z"/>
    <path class="st3" d="M405.32,1338.96c-8.17,4.19-23.38,10.79-17.17-6.19,4.55-12.46,24.33-21.95,36.74-22.93,10.31-.81,40,2.81,37.16,18.17-1.51,8.19-20.92-.73-28.14-.56-15.38.37-17.98,6.05-28.6,11.5Z"/>
    <path class="st3" d="M614.64,1366.58c.37.42.9.69,1.45,1.45,12.87,17.65,14.07,70.52-17.81,65.05-28.63-4.91-26.44-90.38,16.36-66.51Z"/>
    <path class="st3" d="M575.39,1324.42c-11.83,2.46-9.94-9.36-5.05-15.95,10.82-14.58,45.88-11.76,58.23-.13,2.17,2.04,7.26,12.28,4.97,14.63-2.56,2.62-19.19-5.04-24.15-5.65-6.59-.82-17.1-.72-23.42.97-2.9.77-9.4,5.89-10.58,6.14Z"/>
    <path class="st3" d="M437.3,1447.98c-20.02-4.58-29.74-77.05,6.53-74.15,31.93,2.56,34.06,83.43-6.53,74.15Z"/>
  </g>
  <g>
    <path class="st8" d="M1674.09,1281.95c.71.6,7.99-5.58,9.02-6.52,3.15-2.84,9.25-13.24,12-3.51,8.02,28.29.19,61.75-24.72,78.75-33.25,22.69-80.29,6.85-92.23-31.56-9.15-29.43,4.08-50.62,13.29-76.95,3.74-10.69,1.82-20.32,15.16-9.12,3.06,2.57,5.5,5.92,8.32,8.73,10.76-16.4,16.88-34.36,18.4-54.02,2.85-6.94,14.65,6.73,17.22,9.68,19.58,22.53,28.47,55.06,23.53,84.51Z"/>
    <g>
      <g>
        <path class="st3" d="M1539.5,1656.83h-115.67l1.93-123.38c.48-10.12.48-10.6,5.78-53.01h-2.89c-3.37,14.46-5.78,24.1-7.23,28.92l-49.64,147.47h-65.06l-41.93-129.16c-6.75-20.24-7.71-23.13-11.57-45.79h-2.41l1.45,23.62c.48,7.71.96,14.46.96,16.87l1.93,134.46h-115.18v-321.46h151.81l37.59,109.88c2.41,8.67,3.37,13.01,8.67,48.68h2.89c4.34-27.95,6.27-37.11,9.16-46.27l37.59-112.29h151.81v321.46Z"/>
        <path class="st3" d="M1695.16,1656.83h-117.11v-277.12c8.67,5.78,12.53,6.75,45.3,7.23h26.51c32.77-.48,36.63-1.45,45.3-7.23v277.12Z"/>
        <path class="st3" d="M1973.72,1472.73c-25.06-3.37-56.87-5.3-80-5.3-47.23,0-52.05,1.45-52.05,15.42,0,12.53,6.27,16.39,26.51,16.39,35.18,0,53.98.48,68.92,3.37,34.22,5.78,49.16,26.99,49.16,70.36,0,37.59-11.57,63.62-34.7,77.11-17.35,10.6-49.64,16.39-93.5,16.39-39.52,0-82.89-4.34-126.27-13.01v-68.44c42.41,4.34,70.84,5.78,106.03,5.78,20.72,0,26.99-3.37,26.99-15.42,0-14.94-4.34-16.39-45.78-16.39-31.81,0-43.37-.96-58.32-6.27-27.95-9.16-40.48-33.74-40.48-78.56,0-70.36,31.81-93.5,128.2-93.5,34.22,0,66.03,2.41,125.3,10.6v81.45Z"/>
        <path class="st3" d="M2230.6,1479h-83.86v83.38c0,25.54,6.75,31.81,34.7,31.81,11.08,0,13.49-.48,26.02-2.89q9.64-1.45,14.94-2.41l-2.89,67.95c-37.59,6.75-64.1,9.64-93.5,9.64-40,0-65.54-6.27-80-19.76-14.46-13.49-18.31-25.54-18.31-56.39v-111.33h-36.63v-56.87c46.27-38.56,53.01-44.82,90.12-88.68h65.54v53.49h83.86v92.05Z"/>
        <path class="st3" d="M2513.49,1646.71c-56.39,12.53-86.27,16.39-125.3,16.39-101.21,0-143.62-44.34-143.62-149.88,0-53.5,12.53-89.64,38.56-110.36,22.65-17.83,53.98-25.54,106.51-25.54s87.71,7.71,110.36,25.54c26.02,20.72,36.15,51.57,36.15,110.85,0,15.9-.48,24.1-2.41,39.52h-171.57c.48,10.12,1.93,15.42,5.78,21.21,7.23,10.12,28.92,16.39,58.32,16.39s61.69-4.82,102.17-15.42l-14.94,71.33ZM2441.2,1492.97c0-30.36-10.6-40-42.41-40-28.43,0-40,11.57-40.96,40h83.38Z"/>
        <path class="st3" d="M2670.12,1448.15h2.89c5.78-46.75,24.58-65.06,66.51-65.06,9.16,0,15.9.48,26.02,2.41v124.82c-12.53-1.93-18.31-2.41-26.51-2.41-22.65,0-40.48,6.75-49.64,18.8-4.34,6.27-5.3,8.67-7.23,24.58-1.45,11.57-2.41,20.24-2.41,25.06v80.48h-118.08v-269.89h108.44v61.21Z"/>
      </g>
      <g>
        <path class="st3" d="M1348.65,1697.39c24.1,0,50.6,7.71,64.58,18.8,25.06,18.8,37.11,48.19,37.11,90.61,0,51.57-16.39,90.12-46.75,108.44-16.87,10.12-45.3,17.35-69.88,17.35h-71.81v87.23h-121.93v-322.42h208.68ZM1287.45,1855.94c27.47,0,40-11.08,40-36.15,0-23.13-9.64-32.29-34.22-32.29h-31.33v68.44h25.54Z"/>
        <path class="st3" d="M1729.38,2009.68c-56.39,12.53-86.27,16.39-125.3,16.39-101.21,0-143.62-44.34-143.62-149.88,0-53.5,12.53-89.64,38.56-110.36,22.65-17.83,53.98-25.54,106.51-25.54s87.71,7.71,110.36,25.54c26.02,20.72,36.15,51.57,36.15,110.85,0,15.9-.48,24.1-2.41,39.52h-171.57c.48,10.12,1.93,15.42,5.78,21.21,7.23,10.12,28.92,16.39,58.32,16.39s61.69-4.82,102.17-15.42l-14.94,71.33ZM1657.09,1855.94c0-30.36-10.6-40-42.41-40-28.43,0-40,11.57-40.96,40h83.38Z"/>
        <path class="st3" d="M1899.02,2019.81h-120v-333.99h120v333.99Z"/>
        <path class="st3" d="M2054.68,2019.81h-120v-333.99h120v333.99Z"/>
        <path class="st3" d="M2349.62,2009.68c-56.39,12.53-86.27,16.39-125.3,16.39-101.21,0-143.62-44.34-143.62-149.88,0-53.5,12.53-89.64,38.56-110.36,22.65-17.83,53.98-25.54,106.51-25.54s87.71,7.71,110.36,25.54c26.02,20.72,36.15,51.57,36.15,110.85,0,15.9-.48,24.1-2.41,39.52h-171.57c.48,10.12,1.93,15.42,5.78,21.21,7.23,10.12,28.92,16.39,58.32,16.39s61.69-4.82,102.17-15.42l-14.94,71.33ZM2277.33,1855.94c0-30.36-10.6-40-42.41-40-28.43,0-40,11.57-40.96,40h83.38Z"/>
        <path class="st3" d="M2622.4,1841.97h-83.86v83.38c0,25.54,6.75,31.81,34.7,31.81,11.08,0,13.49-.48,26.02-2.89q9.64-1.45,14.94-2.41l-2.89,67.95c-37.59,6.75-64.1,9.64-93.5,9.64-40,0-65.54-6.27-80-19.76-14.46-13.49-18.31-25.54-18.31-56.39v-111.33h-36.63v-56.87c46.27-38.56,53.01-44.82,90.12-88.68h65.54v53.5h83.86v92.05Z"/>
        <path class="st3" d="M2889.87,1835.7c-25.06-3.37-56.87-5.3-80-5.3-47.23,0-52.05,1.45-52.05,15.42,0,12.53,6.27,16.39,26.51,16.39,35.18,0,53.98.48,68.92,3.37,34.22,5.78,49.16,26.99,49.16,70.36,0,37.59-11.57,63.62-34.7,77.11-17.35,10.6-49.64,16.39-93.5,16.39-39.52,0-82.89-4.34-126.27-13.01v-68.44c42.41,4.34,70.85,5.78,106.03,5.78,20.72,0,26.99-3.37,26.99-15.42,0-14.94-4.34-16.39-45.78-16.39-31.81,0-43.37-.96-58.32-6.27-27.95-9.16-40.48-33.74-40.48-78.56,0-70.36,31.81-93.5,128.2-93.5,34.22,0,66.03,2.41,125.3,10.6v81.45Z"/>
      </g>
    </g>
  </g>
</svg>