<?xml version="1.0" encoding="UTF-8"?>
<svg id="Calque_1" xmlns="http://www.w3.org/2000/svg" version="1.1" viewBox="0 0 3000 3000">
  <!-- Generator: Adobe Illustrator 29.8.6, SVG Export Plug-In . SVG Version: 2.1.1 Build 1)  -->
  <defs>
    <style>
      .st0 {
        fill: #fdb842;
      }

      .st1 {
        fill: #102916;
      }

      .st2 {
        fill: #f9ce91;
      }

      .st3 {
        fill: #174724;
      }

      .st4 {
        fill: #377038;
      }

      .st5 {
        fill: #ebb571;
      }

      .st6 {
        fill: #508943;
      }

      .st7 {
        fill: #f2e8b0;
      }

      .st8 {
        fill: #f28a20;
      }
    </style>
  </defs>
  <path class="st1" d="M1135.34,362.52c2.15,4.51,7.69,2.2,11.16,2.79,91.8,15.48,196.37,102.35,232.06,187.74,21.56,51.6,16.63,108.56,49.67,152.57-4.04-3.7-12.49-7.62-15.14-11.37-13.73-19.49-19.74-79.58-27.5-106.38-30.63-105.78-121.39-185.08-225.8-214.92-72.88-20.83-35.26,9.64-24.28,46.59,34.1,114.77-99.83,175.49-111.39,287.83-2.26,21.98,2.52,43.99-3.14,65.2-12.44-62.15,8.32-116.18,39.98-167.91,35.64-58.21,88.73-91.03,73.6-170.22-2.88-15.07-23.83-55.96-23.8-59.9.05-5.12,5.93-7.73,7.84-12.01h16.74Z"/>
  <path class="st7" d="M1146.5,362.52v2.79c-3.47-.59-9,1.72-11.16-2.79h11.16Z"/>
  <path class="st3" d="M1020.98,772.56c5.67-21.2.88-43.21,3.14-65.2,11.56-112.34,145.48-173.06,111.39-287.83-10.98-36.95-48.6-67.42,24.28-46.59,104.42,29.84,195.18,109.14,225.8,214.92,7.76,26.8,13.77,86.89,27.5,106.38,3.73,4.69,13.66,8.85,17.93,14.16.25.2-1.06,3.65,1.79,5.76,7.98,6.98,43.86,8.79,42.84-5.76,23.82-22.76,27.62-49.48,27.28-82.29-.07-14.8-15.38-86.3-12.92-90.22,5-7.95,35.6,7.52,41.82,11.06,17.72,10.06,33.67,29.92,52.59,38.72,8.36,8.48,16.78,16.54,25.1,25.1,3.01,8.63,10.98,19.56,19.53,22.32,17.96,27.07,38.05,55.91,52.65,85.42,11.67,26.62,17.49,55.08,28.24,81.94,11.44,67.43,1.29,133.92-19.11,197.55.95,14.98,38.32,26.72,44.41,35.89,49.31,183.61,52.93,398.04,61.63,588.95,61.19,20.69,121.02,46.9,173.92,84.11,2.4-1.62-1.74-5.24-1.44-5.51,30.09-1.95,46.17-69.45,64-90.63-26.59-51.86-25.51-108.19-16.47-164.5.98-29.77-10.25-102.31,5.9-122.41,25.21-27.82,71.77-5.81,91.62,17.7,2.9,4.01,12.95,24.11,13.99,25.09,5.91,5.56,5.19-5.23,5.53-5.57,19.29-19.7,37.55-66.66,56.01-92.49,3.47-5.55,12.26-11.18,10.94-19.09.79-1.04,2.01-1.78,2.79-2.79,11.88-3.52,17.56-22.45,25.1-30.68,9.84,2.52,7.34-3.06,9.73-5.61,16.69-17.82,28.64-18.01,52.52-22.34,2.09-.38,1.95-5.5,3.62-5.68,1.81-.2,33.84,7.42,35.37,8.39,37.28,43-5.42,108.53-25.31,149.92-4.77,9.97-15.73,21.95-14.56,31.52,4.4,11.93,18.21,10.45,25.03,18.98,12.79,15.99,5.11,47.16,9.69,53.7,48.19,11.86,62.94,37.06,56.69,92.66,0,0-30.04,74.55-30.04,74.55-28.17,44.74-52.79,61.91-86.47,97.63-16.69,3.71-16.04,20.35-20.96,30.66-30.67,62.71-57.3,127.83-98.98,184.13-.9.86-9.18-.43-8.37,11.16-36.66,40.06-85.21,69.97-140.92,72.48-16.02.49-31.92-6.43-45.97.05-.9-.15-1.88.14-2.79,0,1.26-6.47-5.26-9.67-11.16-5.58-9.36,6.49-3.85,13.1-23.41,10.95l-104.76-34.63c-2.11-.68-4.09.05-5.72,1.37-26.9,145.4-57.96,319.7-96.9,465.14-.66,5.35-2.14,13.59-.33,18.43,45.94,23.28,113.83,43.5,124.6,109.92,14.94,47.33-177.49,36.19-207.39,37.02-295.9-25.23-207.03.43-207.72-267.88l-13.29,3.47-111.6,244c-81.13,48.76-322.46,58.32-410.23,21.28-16.41-30.66,19.46-85.55,41.41-106.97,8.61-3.17,34.89-21.15,37.74-27.82l26.42-170.23c-79.81,21.15-158.28,50.05-225.94-16.73-1.3-10.9-10.98-18.16-13.83-29.41-3.72-14.65-6.32-38.51,5.63-49.93,8.03-7.68,20.98-3.53,23.78-12.59l-7.21-50.34c-.11-1,.29-2.38,0-2.79-2.47-1.42-9.42-6.19-11.16-8.37-3.2-3.15-4.05-8.76-11.16-8.37-6.01-4.3-7.21-13.71-16.74-13.95-17.6-18.65-38.18-37.66-55.79-55.79-10.63-20.63-30.05-37.8-39.58-59.44-24.15-54.11-15.18-90.09-2.25-144.19,20.92-29.27,46.8-64.19,72.52-89.26,12.68-1,13.58-12.74,19.53-16.74,24.33-11.01,43.8-30.93,66.44-44.37,40.6-24.09,85.53-40.53,126.07-63.64-6.64-162.01-24.56-326.54-38.95-487.35-.02-4.96,3.04-6.4,2.64-15.52-.08-1.79.39-4.23,0-5.58-4.27-15-6.3-9.16-11.16-13.95-13.13-17.3-22.63-37.86-34.95-55.82-1.86-2.93-6.29-4.56-6.89-5.55s-2.15-1.71-2.79-2.79l-30.38-107.7c-10.7-124.02,29.05-216.21,102.91-313.5.93-.92,1.8-1.92,2.78-2.79.33-.29,3.05.82,4.87-.66,3.2-2.6,21.63-28.6,31.38-18.87,2.49,45.86,1.68,125.14,47.44,156.21,11.42,12.32,32.72,34.6,39.05,5.58ZM1171.61,412.73c-.27.34-5.37-.99-5.69,1.63,19.27,60.7-.26,107.99-33.37,160.15-3.51,5.33-11.25,5.26-11.15,13.95-7.48,8.37-22.54,23.67-25.1,36.26-12.71,4.18-8.67,8.74-11.16,13.95-19.29,23.44-34.24,65.28-33.74,96.23-.42,24.3,10.48,50.03-5.31,73.92-75.31,35.64-138.35-58.09-142.29-125.51-3.69-.79-3.18,3.44-5.55,5.56-14.36,13.82-25.24,32.8-30.69,53-.26.65-1.69-4.67-5.58,8.37-.26.89.3,2.02,0,2.79-7.07-1.46-5.78,3.39-7.58,7.62-48.87,115.27-44.21,231.8,35.47,327.1-1.78,6.42,4.74,13.13,11.16,13.95.61.74,1.78,1.59,2.79,2.79.47.56-.89,9.39,8.65,7.01,213.55-133.5,490.66-172.45,735.19-115.8,31.62-10.1,36.6-113.93,37.15-143.6,2.24-26.64-32.53-147.68-55.74-154.86,1.19-4.22-4.98-7.73-5.58-8.37-4.44-14.65-17.17-34.14-30.68-41.84-9.18-13.93-25.17-35.81-41.84-41.84-7.9-5.52-6.05-18.39-16.73-13.95-11.56-.22,1.41,39.1.27,48.81-1.27,33.1-12.09,68.6-33.74,93.45-6.06,2.6-14.38,2.79-13.95,11.16-55.28,17-93.59-11.75-114.36-61.37,0,0-10.28-66.43-10.28-66.43-1.46-17.58-10.95-30.52-17.62-45.14,3.19-19.4-34.83-63.91-50.21-75.31-1.25-7.84-8.84-15.46-16.74-16.74-26.54-28.35-64.01-55.51-101.13-67.09-3.23-1.45-1.92-5.19-2.13-5.39-3.34-3.12-2.48,5.22-2.74,5.54ZM1760.17,1609.38c9.43-11.2,6.14-39.32,5.69-54.5-4.17-139.62-19.47-338.45-51.16-473.25-6.65-28.3-8.42-32.91-36.7-44.19-246.93-69.5-559.59-29.35-770.75,120.66,16.21,142.85,27.65,289.88,35.64,433.13.48,4.11,1.66,12.54,4.2,15.33,96.73,25.81,241.12,63.13,338.81,104.71,71.47,26.48,131.13,45.09,192.53,90.58,10.31,6.74,16.67,19.99,22.84,27.58.82.63,2.1-2.52,2.26-2.48,1.65.42,4.89,3,5.58,2.79,4.04-1.21,6.48-4.89,8.37-8.37.63-1.16-.64-4.58,0-5.58,2.23,2.97,55.25-54.4,57.25-55.72,31.35-19.62,91.86-63.79,118.48-89.33,10.69-4.97,41.4-30.82,47.42-36.32,1.5-2.02-2.87-2.55-2.79-2.73,4.34-10.46,6.4-6.25,8.37-8.37v1.39l1.39,1.39,1.39-1.39-2.79-1.39c2.78-2.99-2.16-4.07,8.37-8.37,1.49-1.3,4.35-4.21,5.58-5.58ZM2259.47,1361.13c14.88-27.22,68.3-111.37,57.09-139.4-13.5-33.74-61.44,13.38-73.64,27.31-21.32,24.36-86.54,122.93-93.71,151.05-3.25,15.17,1.28,92.37-29.21,68.43,1.47-39.98,1.83-84.63-33.47-112.97-10.17-10.04-22-22.42-37.79-14.09-16.62,8.84-4.51,38.84-4.1,54.58,1.36,51.78-16.3,120.22-1.21,165.79,5.84,17.63,23.53,35.21,19.65,53.29-2.65,12.33-65.84,119.95-75.44,128.27-14.16,12.26-23.79-2.04-33.37.41-40.29,41.81-75.79,167.47-43.36,221.12,75.86,36.44,163.53,5.93,209.09-62.65,30.45-41.25,57.58-87.83,78.59-134.8,7.16-15.84,20.88-60.64,28.33-70.71,13.84-15.82,58.53-39.26,68.82-65.06,26.05-17.93,55.59-78,61.05-107.69,4.42-45.46-32.08-74.52-66.63-37.36-17.35,13.64-85.95,77.03-41.7,93.29,16.13,5.4,25.47-1.35,38.96-8.17,7.76-3.93,38.71-30.23,32.84-6.22-13.41,44.57-115.83,57.61-108.69-8.69-96.91-18.55-39.76-129.11,12.98-173.48,12.42-9.59,27.5-13.05,34.93-22.25ZM2214.84,1528.49c9.61,1.34,26.24-39.21,40.76-49.9,8.98-8.8,36.99-26.38,41.31-33.99,12.11-21.34-9.28-55.1-35.43-49.41-24.55,5.34-78.81,79.64-80.2,104.09-.74,12.92,12.18,30.46,24.58,34.11,12.16,3.58,8.31-4.37,8.99-4.91ZM1018.19,1659.59c7.28-2.03-5.59-5.96-6.4-6.13-53.73-14.71-269.49,107.69-297.64,153.97,73.04,32.46,151.9,66.95,190.96,141.58,52.96-20.05,99.14-53.88,147.78-80.18,9.75,2.83-1.48,28.74,1.56,36.23l-36.3,26.47-2.76,5.61c5.36,43.8,3.31,90.44,8.39,133.88,3.09,26.43,26.4,21.53,47.4,26.52,114.14,22.2,83.35,35.33,122.73-39.05.17-.09,1.68,2.32,2.73,2.82,7.1-14.34-2.31-22.85-5.52-33.51,4.02-54.65,23.61-80.86,76.71-94.84,0,0,40.44,0,40.44,0,3.79,0-.1,26.38-1.46,30.64-4.84,15.19-26.46,34-19.5,50.57,1.39,3.31,4.04-.44,4.22-.32,23.28,16.07,26.74-.93,44.63-13.95,3.5,3.98,8.9-5.57,13.79-7.11,26.8-8.46,24.44,20.46,27.71,38.88l-10.82,46.34c-30.36,47.63-79.91,30.44-78.3,53.98.55,2.98,5.42,1.45,5.78,1.8s-1.19,4.73,1.86,5.63c18.13-2.12,185.35,21.29,176.67,2.74,1.11-.79,2.03-1.66,2.79-2.79.29-.44,4.43,1.82,5.63-1.86,6.6-39.52,10.79-89,5.52-129.24,8.42,1.57,5.4-4.26,5.58-9.63,2.3-27.89-1.09-57.77-2.79-85.21,8.42,1.57,5.41-4.28,5.58-9.63.22-6.63,1.25-31.03-.64-34.49-.67-1.21-4.77-.25-4.94-.51-4.84-7.81-5.48-9.76-12.49-16.8-11.85-11.9-60.47-57.39-74.78-55.22-24.96,5.92-110.07,99.23-125.86,97.15-19.41-2.56-82.16-72.55-99.28-89.29-49.36-47.92-101.31-108.48-159-145.05ZM1726.7,1793.48c21.29-38.14,56.84-98.18,39.05-142.26l-139.47,113c-1.36,6,71.22,44.49,79.97,54.09,4.37.62,17.71-20.37,20.45-24.84ZM1807.59,1935.74c3.6,14.72,49.15,23.14,63.1,27.6,8.2,1.82,1.07-2.36,1.06-2.5-.09-1.85.13-3.73,0-5.58,6.82,4.49,6.06,3.56,5.24-3.81-4.35-39.46-8.56-70.7-1.73-111.22,7.72-43.44,31.81-83.12,48.28-122.09-1.08-2.46-22.03-14.11-26.69-16.71,6.89-2.61-2.59-4.03-4.69-5.04-10.63-3.4-72.96-40.43-76.21-31.22-3.3-.74-6.89-3.82-11.16-2.79l2.79,273.36ZM1163.24,1746.06c152.79,144.28,69.07,125.93,198.02,36.2,1.74-5.9-2.91-5.15-5.55-8.31-.12-.15,2.39-1.51,2.79-2.65-63.82-21.8-126.39-47.72-191.02-67.18-3.67-1.11-10.1-5.21-12.6.09-17.75-5.74-35.63-11.21-52.94-18.16,21.43,19,40.93,40.01,61.3,60ZM1537.02,1852.06c-1.02-4.23-10.69,7.18-11.01,7.77-21.94,35.09-5.85,98.24-11.2,141.56-2.52,44.19-10.19,88.2-11.26,132.39-.02.31-4.51,3.82-2.77,5.56.64.64,4.8-.62,5.56.02.42.35-.41,2.61,0,2.79,58.84,8.26,174.86-.06,231.52-19.52,6.64-4.93,11.95-24.21,8.35-27.9-3.51-3.59-50.18,16.02-60.34,16.55s-10.92-2.68-17.75-5.4h1.39l1.39-1.39-1.39-1.39-1.39,2.79c-14.04-7.03-69.58-28.9-74.85-41.11,0,0,10.68-154.16,10.68-154.16l156.22-8.35c2.05-.27,12.35-4.03,13.95-5.58,4.02-3.9,4.93-10.74,0-13.95v-5.58c8.45,1.57,5.37-4.27,5.58-9.63.11-6.2,4.22-127.69-9.16-90.27-11.57,20.15-37.56,101.23-68.25,83.83-26.09-15.99-77.54-58.29-108.17-67.54-7.51.28-50.69,49.51-57.1,58.5ZM686.25,1835.32c-78.99,72.32-31.92,173.57,39.05,231.52h2.79c4.93,8.88,8.78,19.16,19.53,22.32,8.72,7.63,15.12,17.44,22.63,26.19,4.06,4.25,23.6,17.27,24.47,20.27-10.4,43.76,15.24,85.36,50.53,109.74,2.38,11-19.4,3.33-22.98,2.06-14.56-5.19-24.98-19.26-38.39-21.58-1.48-.26-4.01-.18-5.58,0-.19.02-1.49-3.71-2.64-2.82-34.89,54.74,64,94.36,107.05,86.31,12.35-1.89,24.5-13.02,34.87-15.35,20.12-4.53,45.43,5.13,55.99-20.72,4.62-7.71,24.71-5.19,25.11-16.74,4.48-7.18,18.08-13.49,22.31-19.53,33.73-37.78,10.61-111.53-30.68-131.1v-2.79l-72.52-58.58c-18.49-18.42-66.17-77.76-76.6-97.78-6.14-14.61,5.65-9.03,4.07-16.58.48-9.81-16.68-18.96-25.1-25.11-23.56-24.45-100.81-75.77-133.89-69.73ZM1767.14,1927.37v2.79l1.39-1.39-1.39-1.39ZM1726.7,1935.74c-27.81-2.88-59.51-4.65-88-2.79-5.36.21-11.19-2.86-9.63,5.58-2.77.08-5.53-.09-8.36-.02,2.99,11.67-2.8,28.1-2.8,37.68v50.21c0,5.37-5.56,15.95-2.91,24.76,1.06,3.51,4.87,1.15,5.7,1.74,15.48,10.66,49.12,29.52,68.19,30.74,20.49-.29,43.43-19.88,62.87-25.42-.21-1.17-2.86-2.38-2.75-2.53,15.42-12.99,20.63-110.97,19.53-122.75-.42-.48-6.17.2-8.38.02-6.81-3.94-36.35-6.79-33.47,2.79ZM1244.13,1966.42c-40.78,19.8-22.66,62.4-25.85,95.51-1.74,12.07-26.12,55.28-24.35,57.87,2.08,3.05,57.64,14.06,64.15,8.41,1.98-1.72,6.71-12.01,11.16-16.74,22.43-23.82,47.98-10.94,71.15-39.03,11.59-13.97,23.59-36.65,9.74-53.02-4.2-2.44-1.47-2.8-5.51,1.46-4.97,5.24-8.64,13.82-15.41,18.07-19.35,12.15-59,5.81-64.43-19.38-6.2-30,23.35-47.26,21.2-67.09-.44-1.23.6-5.15-.01-5.57-3.84-2.62-38.2,12.29-41.83,19.52ZM979.14,1958.06c-5.58-7.47-59.03,26.22-66.18,30.06-1.31.95-5.52-.07-3.53,4.77,14.34,17.3,52.45,60.47,75.29,68.38,8.53-2.67-3.77-88.96.1-101.42-.73-3.42-4.23-1.28-5.68-1.79ZM1299.91,2167.28l-139.35-22.24c-4.26,46.29-65.66,120.59-4.83,148.28,26.59,12.11,103.15,21.72,115.58-11.02,12.36-32.56,15.93-80.78,28.6-115.02ZM1693.22,2161.68c-4.43-4.2-9.54-2.97-14.87-2.5-33.29,2.93-64.49,6.88-98.24,8.08-5.36.19-11.19-2.84-9.62,5.58-4.1,0-183.96,0-189.68,0,3.28-9.4-32.88-7.71-39.05-2.79-1.82.52-5.43-1.16-7.67.58-18.26,26.58-27.98,136.3-53.7,141.69-61.55,27.52-191.41,20.84-178.22-73.61,1.51-14.02,15.25-45.57,13.69-56.06-.4-2.68-3.3-1.17-5.63-1.44-63.41-6.45-34.43-7.29-51.6,50.22-8.27,20.82-29.55,35.75-39.09,55.75l-26.69,162.93c.42,1.57,26.18,8.62,30.9,10.04,24.79,7.63,49.7,15.05,74.75,21.48,45.12,6.14,180.65,19.52,212.56-15.9,15.43-22.34,26.87-48.62,40.54-72.43,1.47-2.7,6.72-9.65,1.3-11.25,8.15-14.99,40.15-75.86,51.01-81.49,11.97-6.21,36.89-5.64,52.22-9.15,10.33-2.37,67.03-18.91,70.81-17.96,8.7,2.18,1.67,10.9-1.13,15.12-88.89,89.66-84.87-50.79-83.64,168.79,73.92,20.21,153.57,10.91,225.93-11.2l-2.78-2.75c3.22-4.24,9.64-3.84,12.1-9.03,25.3-88.65,46.16-185.28,63.26-276.84-2.36-5.5-38.65,4.26-47.47,4.14Z"/>
  <path class="st3" d="M1182.76,998.5c-.89.18-1.9-.18-2.79,0,.47-1.18,1.58-2.55,2.79-2.79v2.79Z"/>
  <path class="st3" d="M1740.64,2317.89l-2.79-2.79h2.79c-.19.89.19,1.9,0,2.79Z"/>
  <path class="st3" d="M1712.75,800.46h-2.79c-.13-.91.13-1.88,0-2.79,1.04.64,2.45,1.64,2.79,2.79Z"/>
  <path class="st3" d="M797.83,825.56h-2.79c.2-.89-.21-1.91,0-2.79l2.79,2.79Z"/>
  <path class="st0" d="M2148.03,1171.32c-2.13-1.61-7.88-43.56-10.51-52.25-10.47-34.6-27.45-56.72-62.71-68.4-9.93-3.29-40.03-3.72-41.39-14.5-.33-2.58,1.61-10.44,3.57-11.94s38.26-7.09,48.65-11.28c24.98-10.08,41.31-27.68,50.34-52.87,3.45-9.64,14.24-94.33,28.59-57.74,10.64,27.13,3.69,51.99,25.19,80.81,27.48,36.85,50.14,25.99,82.47,40.26,37.2,16.43-41.5,29.71-51.91,34.96-18.76,9.46-33.04,26.2-41.06,45.41-5.85,14.01-12.69,63.66-22.14,67.14-2.01.74-7.92,1.28-9.08.4Z"/>
  <path class="st1" d="M1696.01,1006.87c27.93,11.04,42.44,21.43,50.98,50.83,19.91,68.54,25.02,161.78,32.7,233.69l2.79,5.58c11.14,107.41,14.95,215.39,19.83,323.27,59.1,18.96,115.24,47.52,167.06,81.19-.29.28,3.84,3.89,1.44,5.51-52.9-37.21-112.73-63.42-173.92-84.11-4.12-81.94-5.16-164.4-11.66-246.34-4.89-61.66-11.44-128.38-19.83-189.37-3.2-23.23-21.09-140.95-30.14-153.24-5.51-7.48-30.91-17.17-39.25-27.02Z"/>
  <path class="st1" d="M878.72,1137.97c.4,9.12-2.66,10.56-2.63,15.52.38,60.17,14.21,128.38,19.32,189.55,8.28,99.19,13.04,198.53,19.62,297.81-40.55,23.11-85.47,39.55-126.07,63.64-22.64,13.43-42.11,33.35-66.44,44.36,10.8-10.29,23.57-19.22,35.72-27.68,46.21-32.22,98.22-58.11,150.82-78.65-2.04-46.21-2.34-92.99-5.23-139.14l-2.79-11.16c-4.72-72.06-10.2-144.22-16.77-216.14-3.28-35.89-13.71-83.08-13.58-117.49.02-6.24,1.46-17.41,8.03-20.62Z"/>
  <path class="st1" d="M1802.01,1997.11l-2.79,5.58c-3.35,27.15-6.44,53.95-11.16,80.89l-2.79,2.79c-2.27,12.81-3.18,26.16-5.58,39.05l-2.79,5.58c-2.28,12.11-3.07,26.16-5.58,39.05l-2.79,5.58c-9.15,46.59-17.94,93.05-27.89,139.47h-2.79c14.63-68.02,28.04-137.42,41.06-205.8,3.29-17.27,17.99-124.79,23.09-128.93-.43,5.47.61,11.34,0,16.74Z"/>
  <path class="st1" d="M1740.64,2317.89c-10.38,48.36-23.1,96.45-33.35,144.85,46.62,5.53,140.85,73.02,124.78,126.52-5.12,17.06-73.34,23.01-90.08,24.26-73.38,5.5-166.27,1.3-239.35-8.82-17.18-2.38-84.96-12.44-95.85-19.93-1.01-.69-8.29-11.06-8.61-12.3l10.63-186.14-2.86-40.53-109.89,242.98c-10.37,17.91-37.15,22.46-56.46,27.22-80.8,19.94-185.69,24.36-268.83,19.88l-8.37-2.79c-7.21-.53-15.38.87-22.32,0l-8.37-2.79c-32.8-5.42-67.37-3.59-60.12-47.59,4.34-26.34,20.42-48.35,37.81-66.78-14.59,20.53-46.68,71.07-30.26,95.81,5.48,8.26,66.09,17.15,79.11,18.52,66.36,6.96,145.36,2.77,211.55-5.95,24.75-3.26,105.4-15.47,119.57-33.85l111.6-244,13.29-3.47c3.2,27.53-16.89,227.4-8.35,235.69,16.24,15.75,185.23,31.09,216.07,32.19,52.64,1.88,128.86,1.75,179.63-10.26,18.33-4.34,30.3-4.96,27.76-26.76-3.64-31.25-32.55-62.68-58.28-78.62-10.53-6.52-65.03-27.87-66.32-31.3-1.82-4.84-.33-13.08.34-18.42,4.96-39.74,24.08-90.21,32.73-130.42l2.79,2.79Z"/>
  <path class="st1" d="M769.93,2301.15c24.32,13.96,47.65,28.38,76.61,30.77,46.38,3.83,93.6-15.48,138.17-25.21l-26.42,170.23c-2.85,6.68-29.14,24.65-37.74,27.82,9.46-9.37,30.83-23.14,34.43-33.91.25-19.72,28.9-154.74,24.12-161.34-.97-1.34-24.92,11.34-30.47,12.73-66.89,16.83-123.53,30.18-178.7-21.1Z"/>
  <path class="st1" d="M2200.89,1249.55c1.33,7.91-7.46,13.54-10.94,19.09-2.49,3.98-4.77,7.18-5.8,8.8-14.79,23.2-33.72,67.54-50.21,83.68-.34.34.37,11.13-5.53,5.57-1.05-.98-11.1-21.08-13.99-25.09-6.74-6-12.63-13.14-21.71-18.74-19.34-11.93-53.57-19.32-69.91,1.03-16.15,20.1-4.92,92.65-5.9,122.41-.45,13.64-5.1,30.98-5.64,44.57-1.73,43.59,2.67,80.63,22.11,119.93-13.83,18.89-35,75.85-52.84,87.84,3.71-19.1,49.43-76.92,49.21-90.68-.03-1.85-13.51-26.09-15.82-33.37-15.53-48.84-4.11-81.09-2.6-128.29,1.05-32.61-7.63-80.24-.24-109.02,11.64-45.32,77.59-32.81,100.76-2.77,2.03,2.63,1.87,6.09,2.58,7.08.48.43,3.99,0,6.87,2.76,5.77,5.54,3.98,19.13,12.65,16.77,13.26-27.64,27.67-56.16,44.43-81.88,1.99-3.06,5.61-1.55,5.78-1.8,5.51-8.31,8.15-16.52,16.74-27.89Z"/>
  <path class="st1" d="M895.46,633.09c-20.86,33.23-47.22,63.33-63.8,99.38-10.55,22.93-28.72,69.33-33.83,93.09l-2.79-2.79c14.26-60.19,55.92-146.44,100.42-189.68Z"/>
  <path class="st1" d="M822.93,1054.29c-18.5-31.19-25-62.51-30.68-97.63l-2.79-2.79c-1.05-7.53-2.3-20.23-2.79-27.89l2.73-1.39-2.73-1.39c-.72-14.53-.98-33.02,0-47.42l2.79-5.58c.95-10.75.88-19.51,2.79-30.68l2.79-5.58c.49-2.51-.54-5.95,0-8.37h2.79c-8.45,39.3-4.81,81.07-5.27,121.03l30.38,107.7Z"/>
  <path class="st1" d="M1709.96,797.67c.13.91-.13,1.88,0,2.79-10.75-26.87-16.56-55.33-28.24-81.94-11.68-26.62-30.95-48.74-44.28-74.27,34.74,46.07,64,95.23,72.52,153.42Z"/>
  <path class="st1" d="M2345.94,1213.29l2.79,5.58c6.26,48.08-31.96,111.99-58.58,150.63.29-7.72,10.33-20.08,14.56-28.73,17.88-36.61,51.07-89.61,36.32-132.31-1.04-3.02-8.77-16.2-11-17.61-1.53-.97-33.56-8.6-35.37-8.39-1.68.19-1.53,5.3-3.62,5.68-23.88,4.33-35.83,4.52-52.52,22.34-2.39,2.55.1,8.13-9.73,5.61,9.11-9.21,16.97-19.44,28.79-25.57,32.02-16.6,77.51-18.04,88.36,22.78Z"/>
  <path class="st1" d="M1481.23,702.83c18.42-34.11,19.03-75.01,13.64-112.66-1.76-12.29-18.05-52.68-4.66-59.62,21.92-11.36,78.16,40.43,94.23,55.13-18.92-8.79-34.88-28.65-52.59-38.72-6.23-3.54-36.83-19.01-41.82-11.06-2.47,3.92,12.84,75.42,12.92,90.22.15,30.73-2.38,53.36-21.71,76.71Z"/>
  <path class="st1" d="M767.14,2147.74l7.21,50.34c-2.81,9.06-15.75,4.91-23.78,12.59-11.95,11.42-9.35,35.27-5.63,49.93,2.86,11.25,12.53,18.51,13.83,29.41-14.83-18.22-24.85-31.81-22.31-57.17,3.28-32.7,31.68-31.5,33.26-36.6,1.06-3.41-5.13-20.37-5.59-27.59-.47-7.38,3.62-15.26,3.01-20.89Z"/>
  <path class="st1" d="M898.24,630.3c50.85-65.33,39.76,12.95,44.99,48.45,4.65,31.54,17.01,64.91,38.69,88.23-28.93-19.95-40.04-62.69-44.56-96.3-1.39-10.37-.75-57.79-2.87-59.91-9.75-9.73-28.18,16.27-31.38,18.87-1.82,1.48-4.54.37-4.87.66Z"/>
  <path class="st1" d="M630.46,1854.85l-13.88,65.62c-1.03,23.59,6.63,56.98,16.14,78.56,9.54,21.64,28.95,38.81,39.58,59.44-51.11-54.53-82.58-132.4-41.84-203.63Z"/>
  <path class="st1" d="M2290.15,1372.28c17.94,4.11,35.12,22.97,38.38,41.12,1.17,6.52-.41,26.53.98,28.32,1.27,1.63,27.11,6.5,37.13,17.26,43.04,46.23,12.92,108.66-15.12,153.19l30.05-74.56c1.51-26.39,4.12-47.57-12.38-69.7-13.13-17.61-41.97-19.61-44.32-22.96-4.58-6.53,3.1-37.71-9.69-53.7-6.82-8.52-20.63-7.05-25.03-18.98Z"/>
  <path class="st1" d="M2111.63,1960.85c-48.06,40.7-80.1,54.56-145.05,50.21l-2.79-2.79c-4.45-.43-9.81.71-13.95,0,14.05-6.48,29.95.44,45.97-.05,44.3-1.36,81.43-21.76,115.82-47.37Z"/>
  <path class="st1" d="M1475.65,708.41c-.3.26,1.22,3.59-1.72,5.8-9.17,6.89-31.57,7.03-41.12-.04-2.85-2.11-1.54-5.56-1.79-5.76,16.02,7.49,28.65,7.46,44.63,0Z"/>
  <path class="st1" d="M2265.05,1709.8c-21.88,23.2-50.15,106.4-69.21,141.39-12.89,23.66-29.51,51.22-47.94,70.6,39.01-56.84,66.58-119.33,96.19-181.34,4.92-10.31,4.27-26.95,20.96-30.66Z"/>
  <path class="st1" d="M1020.98,775.35c-9.63,22.02-21.95,8.2-33.47-2.79,11.32,5.99,21.98,13.88,33.47,2.79Z"/>
  <path class="st1" d="M700.2,1768.38c-7.79,8.32-5.23,7.9-16.74,16.74-15.6,20.71-37.16,45.2-50.21,66.95,5.91-19,19.82-33.47,31.9-47.52,8.91-10.36,6.42-10.3,18.31-19.43,4.07-5.41,5.59-16.1,16.74-16.74Z"/>
  <path class="st1" d="M825.72,1057.08c.6.99,5.03,2.62,6.89,5.55,10.99,17.35,21.73,35.23,32.16,53.03-15.23-16.07-31.24-37.76-39.05-58.58Z"/>
  <path class="st1" d="M675.09,2061.26c15.54,16.19,34.67,33.44,50.21,50.21-9.75-6.18-21.4-17.81-29.69-26.1-7.03-7.03-16.09-14.95-20.52-24.11Z"/>
  <path class="st1" d="M878.72,1132.39l-11.16-13.95c4.86,4.79,6.89-1.05,11.16,13.95Z"/>
  <path class="st1" d="M1935.9,2002.69c5.9-4.09,12.42-.89,11.16,5.58-3.48-.52-8.42-3.13-11.16-5.58Z"/>
  <path class="st1" d="M2226,1218.87c-4.3,8.69-12.62,24.89-22.32,27.89,7.49-9.68,13.79-18.97,22.32-27.89Z"/>
  <path class="st4" d="M903.82,1503.38c-.04-.57-2.42-5.5-2.79-11.16l2.79,11.16Z"/>
  <path class="st1" d="M2145.11,1924.58c.06,5.3-5.02,7.45-8.37,11.16-.81-11.59,7.46-10.3,8.37-11.16Z"/>
  <path class="st1" d="M719.72,1751.64c-2.5,2.6-6.68,14.02-16.74,13.95,4.27-4.69,10.42-12.45,16.74-13.95Z"/>
  <path class="st1" d="M742.04,2125.42c-5.07-.16-10.9-7.52-13.95-11.16,8.01-.19,9.94,7.34,13.95,11.16Z"/>
  <path class="st4" d="M940.09,2633.09c-5.02-.63-7.93-2.72-8.37-2.79l8.37,2.79Z"/>
  <path class="st4" d="M970.77,2635.88c-5.92-.32-7.93-2.76-8.37-2.79l8.37,2.79Z"/>
  <path class="st1" d="M1609.54,610.78c7.25,7.82,12.74,14.02,19.53,22.32-8.55-2.76-16.52-13.69-19.53-22.32Z"/>
  <path class="st6" d="M1718.33,836.72l-2.79-8.37c.05.44,2.43,2.55,2.79,8.37Z"/>
  <path class="st1" d="M1634.65,641.46l-2.79-5.58c2,2.49,2.29,4.94,2.79,5.58Z"/>
  <path class="st4" d="M1799.22,2002.69l2.79-5.58c-.53,4.65-2.75,5.27-2.79,5.58Z"/>
  <path class="st4" d="M1782.48,1296.97l-2.79-5.58c.03.31,2.3.88,2.79,5.58Z"/>
  <path class="st6" d="M1776.9,2131l2.79-5.58c-.77,4.11-2.73,5.27-2.79,5.58Z"/>
  <path class="st1" d="M755.99,2136.58c-4.13-2.28-7.81-5.05-11.16-8.37,7.11-.39,7.96,5.22,11.16,8.37Z"/>
  <path class="st1" d="M767.14,2144.95c-.29-.41-3.98-.45-8.37-5.58l8.37,5.58Z"/>
  <path class="st6" d="M1768.54,2175.63l2.79-5.58c-.79,4.07-2.73,5.27-2.79,5.58Z"/>
  <path class="st6" d="M2348.73,1218.87l-2.79-5.58c.08.3,2.2,1.07,2.79,5.58Z"/>
  <path class="st6" d="M786.67,875.77c.32-4.71,2.76-5.27,2.79-5.58l-2.79,5.58Z"/>
  <path class="st6" d="M792.25,839.51c.72-4.18,2.73-5.27,2.79-5.58l-2.79,5.58Z"/>
  <path class="st1" d="M2114.42,1958.06l8.37-8.37c-2.89,2.79-4.75,5.19-8.37,8.37Z"/>
  <path class="st6" d="M1785.27,2086.37l2.79-2.79c-.31,1.77-2.75,2.6-2.79,2.79Z"/>
  <path class="st6" d="M792.25,956.66c-.03-.19-2.52-.84-2.79-2.79l2.79,2.79Z"/>
  <path class="st6" d="M786.67,925.98c-.06-.93.05-1.86,0-2.79l2.73,1.39-2.73,1.39Z"/>
  <path class="st4" d="M1966.58,2011.05c-1.82-.12-2.59-2.77-2.79-2.79l2.79,2.79Z"/>
  <path class="st1" d="M1598.38,599.62l-2.79-2.79c.93.93,1.86,1.85,2.79,2.79Z"/>
  <path class="st1" d="M1590.02,591.25l-2.79-2.79c.96.9,1.84,1.88,2.79,2.79Z"/>
  <path class="st2" d="M1018.19,1098.92c211.28-79.68,462.52-125.46,679.88-43.91,9.83,10.5,33.67,192.97,36.94,221.09,12.49,107.34,19.49,215.56,22.51,323.66-2.17,14.42-48.43,51.46-62.03,62.68-.73.61-12.26,9.83-7.85,11.1-9.36,7.12-18.12,15.3-27.89,22.32l-1.37-2.73c-46.43,42.07-116.35,68.07-140.89,128.25,0,0-8.36,5.58-8.36,5.58-10.82-11.06-16.41-21.01-30.68-27.89-4.79-2.31-4.35,4.11-5.58-5.58-.02-.18,3.62-1.35,2.75-2.52-.67-.91-16.28-10.56-19.49-11.43-11.07-10.58-18.83-17.35-32.99-24.2-82.93-39.67-204.28-78.02-293.37-106.91-7.53-53.22-13.53-106.99-19.48-160.44-2.57-23.12-5.33-134.51-23.79-143.59-4.27-2.1-4.85,2.91-5.56,5.46-10.12,75.51,8.29,207.64,18.15,287.41-10.12-3.05-30.74-9.45-39.05-5.58-36.43-10.3-73.69-22.83-111.59-25.09-4.64-54.6-4.14-110.01-8.35-164.59l-2.79-2.79c-2.41-30.82-5.71-61.36-8.37-92.05l2.73-1.39-2.73-1.39c-1.51-17.3-1.19-35.77-2.79-53l-2.79-2.79c-3.21-34.26-5.81-68.88-8.37-103.21l-2.79-2.79c-.31-6.54-1.36-19.96,1.44-25.07,3.47-6.33,42.43-28.63,51.56-33.51l2.79,2.56c-10.76,4.22-51.96,28.13-52.98,37.94,15.73,131.49,28.43,263.66,36.35,395.93.59,9.81-2.32,32.03-.28,38.92,1.56,5.25,93.38,18.41,106.15,26.72l-39.04-527.18ZM1643.01,1165.87c25.76-28.69-37.91-59.68-62.81-61.29-26.3-1.7-75.43,14.83-76.93,46.01-1.78,37.29,41.3,8.73,57.45,6.91,9.3-1.05,23.35-.51,32.75.74,15.48,2.05,40.09,18.17,49.54,7.64ZM1308.29,1149.13c-27.14-23.54-58.86-29.48-93.54-16.83-20.8,7.58-72.19,48.08-50.59,71.71,18.04,19.73,49.25-26.67,90.5-26.19,18.53-.65,60.12,20.74,64.78-10.8,1.64-18-7.39-11.3-11.14-17.89ZM1598.38,1375.07c51.51-25.41,40.89-135.75-13.97-146.53-81.52-17.03-70.64,186.26,13.97,146.53ZM1294.34,1402.97c63.85-26.93,37.38-166.59-31.94-153.26-69.78,10.38-44.59,193.19,31.94,153.26ZM1475.65,1483.86c24.29,49.19,146.9-26.34,89.32-87.92-22.06-25.26-51.92-19.53-71.51-47.02-4.6-6.45-8.11-33.57-23.54-17.22-16.94,17.95,6.12,56.5,21.82,68.51,16.89,12.93,50.25,11.8,38.23,41.74-5.52,20.34-80.8,19.9-54.31,41.91ZM1246.92,1475.49c-20.74,5.78-43.54,58.21-15.29,64.12,12.07,1.46,16.48-11.19,24.89-8.5,2.07.1,15.33,34.82,21.09,28.06,92.29,151.98,324.52,116.83,356.61-59.33-7.63-29.86-47.8,8.36-61.85,15.18-67.76,32.86-148.67,33.86-220.04,12.68-8.02-2.38-64.31-24.2-66.26-27.21-2.67-4.13,17.17-30.58,2.05-37.09-13.28-5.72-32.73.45-41.2,12.1Z"/>
  <path class="st8" d="M1272.02,474.1c1.53,1.3,3.47,3.68,5.58,5.58,6.43,5.79,10.91,10.47,16.74,16.74.89.96,1.93,1.82,2.79,2.79,19.72,22.23,34.31,45.84,47.42,72.52.91,1.85,1.94,3.77,2.79,5.58,12.17,33.73,11.66,73.24,25.1,106,.97,2.36,2,3.85,2.79,5.58,10.45,43.97,65.52,83.66,108.79,55.79.86-.28,2,.3,2.79,0,8.8-3.37,8.77-6.65,13.95-11.16,2.38-2.07,3.51-3.16,5.58-5.58,33.1-38.57,37.72-87.79,25.1-136.68.33-.41,1.88.32,2.79,0,2.9,5.83,9.37,7.43,13.95,11.16,1,.81,1.8,1.93,2.79,2.79,13.31,11.52,27.3,25.87,39.05,39.05.87.98,1.93,1.81,2.79,2.79,10.68,12.16,19.34,27.2,30.68,39.05.41.69-.4,2.1,0,2.79l5.58,5.58c.39.71-.39,2.07,0,2.79,53.66,98.88,67.23,184.08,27.89,292.89-.8.83-2.11,2.48-2.79,2.79-26.15-9.78-53.55-12.7-80.89-16.74,5.52-2.29,4.79-4.69,5.88-9.42,10.69-46.14,15.26-91.31,3.27-137.81-1.99-7.71-19.52-53.46-23.15-56.38-7.19-5.77-5.78,15.83-7.34,21.86-30.06,115.92-170.3,125.69-229.15,26.38-31.75-53.58-23.65-118.69-60.71-170.81-3.64-5.13-31.82-33.59-36.05-33.69-2.55-.06-3.18,42.27-5.01,50.84-20.71,96.86-127.26,142.28-85.77,274.26,1.69,5.38,20.12,34.77,9.86,34.77h-50.21c-36.93,0-103.56-33.59-129.67-60.01-15.04-15.21-23.43-35.24-35.63-50.72-1.05-1.34-2.45-8.91-6.23-3.64-10.14,14.13-4.22,95.45.34,115.4,8.69,37.93,26.7,53.15,41.62,84.03,2.56,5.29,3.92,7.16-.14,12.57-11.73,6.15-40.73,30.91-51.17,34.22-5.54,1.76-6.18-.67-10.2-3.54-1.01-1.2-2.18-2.05-2.79-2.79-3.8-4.63-7.22-9.28-11.16-13.95-.84-1-2-1.79-2.79-2.79-77.23-105.34-70.58-215.35-25.1-331.94.3-.77-.26-1.9,0-2.79l5.58-8.37c.32-.8-.34-2.01,0-2.79l30.68-50.21c2.37-2.12,1.86-6.35,5.55-5.56,3.68,35.99,15.18,67.93,39.08,94.82,21.15,30.73,66.48,59.29,100.42,33.47,1-.76,1.9-1.87,2.79-2.79,24.11-24.97,9.36-51.45,11.06-82.39,1.58-28.77,13.3-56.48,25.2-82.19.84-1.81,1.89-3.69,2.79-5.58,4.97-3.08,8.5-8.92,11.16-13.95.39-.73-.4-2.09,0-2.79l22.32-30.68c.83-.93,1.87-1.93,2.79-2.79,3.45-3.24,6.02-7.09,8.37-11.16.9-.95,1.95-1.79,2.79-2.79,38.77-46.07,55.39-102.24,39.05-161.79,36.44,15.81,70.15,35.68,100.42,61.37Z"/>
  <path class="st6" d="M1018.19,1659.59c12.93,6.11,54.39,41.61,66.95,53l11.16,11.16c24.17,22.6,48.4,48.97,72.52,72.52l8.37,8.37c17.12,16.74,79.87,86.73,99.28,89.29,15.79,2.08,100.9-91.23,125.86-97.15,14.3-2.17,62.93,43.32,74.78,55.22,7.01,7.04,7.65,8.99,12.49,16.8.66,14.9.03,29.82,0,44.63,0,3.72.06,7.44,0,11.16-.46,27.97-1.4,55.78-2.79,83.68-.14,2.78.15,5.59,0,8.37-2.27,41.06-4.74,82.1-11.16,122.73-.76,1.13-1.68,2.01-2.79,2.79l-178.52-8.37c-.36-.35-5.23,1.18-5.78-1.8-2.97-16.25,31.91-16.59,45.72-23.8,9.95-5.2,26.65-20.72,32.58-30.18,13.58-21.65,18.85-50.35,8.91-74.46-11.71-28.4-22.04-16.41-39.6-3.64-17.89,13.01-21.35,30.02-44.63,13.95-10.61-19.09,47.83-74.05,11.29-85.2-52.53-16.03-121.73,41.31-111.7,99.15.55,3.2,2.72,5.2,2.79,5.58v25.1c-6.08,3.31-20.46,52.17-29.81,55.36-10.09,3.44-77.9-12.75-92.92-16.31l-16.74-192.47c-3.04-7.49,8.19-33.4-1.56-36.23-48.64,26.3-94.82,60.13-147.78,80.18-22.76-42.78-58.15-72.7-98.91-96.95-27.13-19.52-59.44-36.39-92.05-44.63-1.56-5.69,20.02-21.99,25.33-26.27,23.63-19.03,59.74-42.27,86.24-57.41,36.79-21.02,89.27-46.43,129.62-58.67,20.4-6.19,42.66-15.04,62.85-5.49Z"/>
  <path class="st6" d="M1735.06,2156.1c-11.71,67.85-23.59,136.59-39.05,203.63-.2.88.2,1.91,0,2.79l-2.79,11.16c-2.68,11.36-12.41,53.57-15.79,60.7-2.46,5.19-8.89,4.79-12.1,9.03-62.93,19.21-126.89,23.81-192.47,16.74l11.34-4.38,5.39-137.88c5.37-2.16,32.52-23.75,36.22-29.32,2.8-4.22,9.83-12.94,1.13-15.12-3.78-.94-60.48,15.6-70.81,17.96-15.33,3.51-40.25,2.94-52.22,9.15-10.86,5.63-42.86,66.49-51.01,81.49-12.63,23.24-23.47,53.43-36.26,75.31-1.12,1.92-2.01,4.41-2.79,5.58l-2.79,2.79c-.63.77-7.87,8.06-8.37,8.37-77.67,15.46-153.79,13.64-231.52,0-15.41-3.88-32.07-9.32-47.42-13.95l11.29-4.57,36.14-218.6c1.48-1.44,21.16,5.5,27.22-.67,4.11-4.18,13.58-46.53,11.82-55.1,2.33.26,5.23-1.24,5.63,1.44,1.56,10.48-12.18,42.04-13.69,56.05-5.14,47.72,18.81,73.98,63.85,81.98,33.92,13.42,84.67,14.36,114.37-8.37,1.39-1.06,5.46-.49,8.43-4,12.16-14.34,28.72-97.44,38.94-122.96,1.34-3.35,4.51-13.32,6.32-14.73,2.24-1.74,5.84-.05,7.66-.58,13.09.92,25.9,2.18,39.05,2.79,1.85.09,3.73-.1,5.58,0,60.13,3.28,115.74,2.97,175.73,0,2.78-.14,5.59.15,8.37,0,41.17-2.23,81.8-7.03,122.73-11.16,12.55-1.26,31.3-5.51,41.84-5.58Z"/>
  <path class="st2" d="M683.46,2013.84c-29.37-46.39-40.49-76.38-20.86-131.04,3.79-10.55,17.72-41.91,29.8-41.46,36.13,2.07,95.27,46.44,127.74,63.71,7.75,3.08,19.86,19.26,25.1,25.1-.24.94.31,2.09,0,2.79-4.47.43-7.58,3.4-11.16,5.58-.14.08-5.02-6.35-2.83,1.41,7.71,16.32,55.63,85.65,75.36,96.22,4.07,4.38,7.99,19.38,19.53,19.52,21.21,20.38,41.08,37.61,66.95,50.21v2.79c35.64,38.42,56.59,107.62,5.58,142.26,1.25-7.05,5.6-32.47-.18-36.14-.72-.46-7.87-.42-8.17-.14-1.97,3.47-13.12,47.59-13.97,55.8-21.84,20.73-33.05,19.62-61.37,19.52-10.62.67-18.66,8.41-32.81,10.43-36.82,5.23-123.86-17.2-103.73-68.87,7.38-5.54,61.87,46.38,73.87,25.02,3.08-5.49,1.07-5.18-1.49-8.42-2.24-1.38-6.61-2.79-8.37-5.58-9.15-20.26-30.09-31.89-37.61-55.83-5.69-17.91-.18-44.05-4.83-53.62-4.2-8.65-12.52-10.71-18.93-16.06-4.46-3.73-9.4-7.04-13.95-11.16,5.76-1.51-3.09-7.04-4.44-8.21-9.75-8.42-17.83-18.57-29.04-25.26h-2.79c-4.15-5.37-2.74-12.49-9.78-16.68l-1.38,2.73c-1.48-1.99-6.31-2.99-5.58-8.37-2.71-3.48-30.81-32.12-30.68-36.26ZM939.68,2284.02c2.14-1.35,6.92-35.25,8.74-41.45-6.67,15.02-52.3,49.92-8.74,41.45Z"/>
  <path class="st6" d="M1776.9,1771.17c-.92,35.39-2.79,70.53-2.79,106v5.58c0,4.65,0,9.3,0,13.95-1.59,1.55-11.9,5.31-13.95,5.58-33.44,4.46-75.78,1.14-110.13,2.84-9.45.47-45.28,2.26-48.42,7.37l-11,152.37c3.96,13.63,56.96,34.62,71.93,38.26,1.65.68,3.37,1.91,5.58,2.79,6.83,2.71,7.82,5.91,17.75,5.4s56.83-20.14,60.34-16.55c3.6,3.68-1.72,22.97-8.35,27.89l-231.52,19.53c-.41-.18.42-2.43,0-2.79l-2.79-5.58c.2-2.76-.18-5.6,0-8.37,3.87-3.38,4.53-8.12,5.26-12.86,11.87-77.59,11.06-160.88,14.43-239.41,1.17-9.26,8.93-14.29,13.78-21.08,6.42-8.99,49.59-58.22,57.1-58.5,5.77-.21,46.04,24.42,54.23,29.45,13.03,8,44.42,34.25,53.94,38.08,18.71,7.54,23.36-3.16,32.85-15.94,14.87-20.04,24.78-45.68,35.4-67.89,1.23-2.57-.08-9.47,6.36-6.1Z"/>
  <path class="st6" d="M1299.91,2167.28c-12.67,34.24-16.25,82.47-28.6,115.02-12.43,32.74-88.98,23.13-115.58,11.02-60.83-27.69.56-101.99,4.83-148.28l139.35,22.24Z"/>
  <path class="st6" d="M1815.96,1665.17c20.39,4.55,61.69,25.55,80.89,36.26,4.66,2.6,25.61,14.25,26.69,16.71,1.31,2.97-2.98,6-4.37,8.4-53.54,91.79-54.66,123.27-47.42,228.73.13,1.84-.09,3.73,0,5.58l-61.37-19.53c-1.16-1.45-1.68-3.94-2.79-5.58l5.69-118.65-8.48-154.71c4.27-1.03,7.85,2.05,11.16,2.79Z"/>
  <path class="st6" d="M1760.17,1932.95c2.2.19,7.95-.49,8.37-.02,3.65,4.16-8.6,98.62-11.37,109.98-1.35,5.56-5.09,8.41-8.16,12.77-15.97,6.59-43.55,24.1-60.45,24.21-17.28.12-41.58-19.54-59.49-21.42-2.79-1.71-5.69-3.68-8.37-5.58l5.58-114.37c.89-.15,1.87.06,2.79,0,29.64-2.1,62.08-1.43,92.05-2.79,1.85-.08,3.72.07,5.58,0,11.31-.41,22.07-3.75,33.47-2.79Z"/>
  <path class="st6" d="M1154.87,1704.22c67.5,21.82,134.61,44.36,200.84,69.73,2.64,3.16,7.3,2.41,5.55,8.31-15.94,2.97-81.82,73.34-87.39,72.31-7.23-1.34-91.81-89.91-105.05-102.94l-5.58-5.58c-20.37-20-39.88-41-61.3-60,17.31,6.95,35.18,12.42,52.94,18.16Z"/>
  <path class="st0" d="M1285.97,1952.48c.23.63-.01,1.84,0,2.79-14.98,24.51-42.04,57.73-13.05,82.77,29.22,25.25,59.18,9.5,77.21-18.61.45.26,2.64,2.45,2.79,2.79,2.18,29.31-10.75,55.29-39.19,65.41-17.13,6.09-37.6,2.3-44.49,23.85-4.45,4.73-9.18,15.01-11.16,16.74-7.9-2.94-56.39-6.4-58.58-8.38-3.88-3.5,23.54-52.84,24.51-63.58,3.01-33.22-20.21-56.59,17.33-87.04,1.01-.82,1.82-2.13,2.79-2.79,11.44-7.71,27.94-13.53,41.84-13.95Z"/>
  <path class="st4" d="M1110.24,2181.21c1.75,8.58-7.71,50.92-11.82,55.1-6.06,6.17-25.74-.76-27.22.67l-36.14,218.6-11.29,4.57c-4.72-1.42-30.49-8.47-30.9-10.04l26.69-162.93c9.54-20,30.82-34.93,39.09-55.75,4.39-11.05,7.88-51.08,9.93-52.81,1.6-1.36,35.71,1.92,41.67,2.6Z"/>
  <path class="st6" d="M1765.75,1651.22c4.28,45.78-15.18,103.35-39.05,142.26-2.74,4.46-16.08,25.46-20.45,24.84-8.75-9.61-81.33-48.09-79.97-54.09l139.47-113Z"/>
  <path class="st4" d="M1054.45,1905.06l16.74,192.47c-21-4.98-44.31-.09-47.4-26.52-5.08-43.44-3.02-90.08-8.39-133.88l2.76-5.61,36.3-26.47Z"/>
  <path class="st4" d="M1489.6,2317.89l-5.39,137.88-11.34,4.38c-10.22-1.1-20.27-3.69-30.68-2.79,2.62-18.13-5.47-125.71,4.91-131.07,8.22-4.24,33.72-4.87,42.51-8.4Z"/>
  <path class="st7" d="M1746.22,1358.34l2.79,13.95c5.93,67.58,12.79,143.01,14.04,210.48.19,10.14.72,16.81-2.88,26.62-.23.62-1.97,1.92-2.79,2.79-.9.95-1.98,1.75-2.79,2.79-10.53,4.3-5.58,5.38-8.37,8.37-1.97,2.12-4.03-2.09-8.37,8.37l-39.05,36.26c-1,.78-3.59,1.23-5.58,2.79-1.53,1.19-4.06,1.63-5.58,2.79-4.41-1.27,7.11-10.49,7.85-11.1,13.6-11.22,59.86-48.26,62.03-62.68-3.02-108.1-10.03-216.32-22.51-323.66-3.27-28.12-27.11-210.6-36.94-221.09-11.23-11.98-108.57-31.07-129.36-33.81-190.72-25.11-373.79,10.05-550.52,77.72-2.03.78-8.01,3.91-8.37,0,166.91-79.91,424.46-111.52,605.38-74,14.89,3.09,78.78,18.94,86.54,27.82,9.17,10.48,26.9,141.54,30.09,165.17,6.31,46.71,10.02,93.53,14.38,140.43Z"/>
  <path class="st1" d="M1760.17,1609.38c3.6-9.81,3.07-16.49,2.88-26.62-1.25-67.46-8.11-142.89-14.04-210.48-.51-5.76-2.58-11.68-2.79-13.95-4.36-46.9-8.07-93.72-14.38-140.43-3.19-23.63-20.92-154.68-30.09-165.17-7.77-8.88-71.66-24.74-86.54-27.82-180.93-37.52-438.47-5.91-605.38,74-14.94,7.15-31.77,14.6-44.63,25.1-9.13,4.88-48.09,27.18-51.56,33.51-2.8,5.11-1.75,18.53-1.44,25.07.09,1.8,2.77,2.59,2.79,2.79,2.56,34.32,5.16,68.95,8.37,103.21.17,1.86,2.77,2.59,2.79,2.79,1.6,17.23,1.28,35.7,2.79,53,.08.92-.08,1.87,0,2.79,2.66,30.69,5.95,61.23,8.37,92.05.14,1.84,2.77,2.59,2.79,2.79,4.21,54.58,3.71,109.99,8.35,164.59,37.9,2.26,75.16,14.79,111.59,25.09,88.74,25.09,180.8,58.53,267.21,91.23,42.59,16.12,87.04,30.91,126.1,53.82.98.86,1.85,1.88,2.79,2.79,5.3,5.15,9.12,10.79,16.74,13.95,1.23,9.68.79,3.27,5.58,5.58v2.79c-61.4-45.49-121.07-64.1-192.53-90.59-61.78-22.9-129.68-48.01-192.48-66.94-20.32-6.13-141.25-32.17-146.34-37.76-2.54-2.79-3.72-11.22-4.19-15.33-7.01-60.48-5.93-127.88-11.22-189.62-6.94-81.15-17.44-162.72-24.44-243.51,109.9-83.44,250-124.82,386.13-142.43,107.04-13.84,283.92-18.43,384.62,21.76,28.28,11.29,30.04,15.89,36.7,44.19,31.69,134.8,46.99,333.63,51.16,473.25.45,15.18,3.75,43.3-5.69,54.5Z"/>
  <path class="st1" d="M1179.97,998.5c.89-.18,1.89.18,2.79,0-77.07,21.31-149.58,44.8-220.42,82.23-11.08,5.85-41.92,28.79-49.87,30.77-9.54,2.39-8.18-6.45-8.65-7.01,4.02,2.87,4.65,5.3,10.2,3.54,10.44-3.31,39.44-28.08,51.17-34.22,62.28-32.63,145.77-61.48,214.78-75.31Z"/>
  <path class="st1" d="M1573.28,976.19c27.34,4.03,54.74,6.96,80.89,16.74-1.63.75-1.47,3.09-6.51,2.79-11.61-.69-37.08-10.17-52.01-12.61-138.4-22.59-276.04-11.62-412.89,15.4v-2.79c130.53-25.45,257.84-39.1,390.52-19.53Z"/>
  <path class="st1" d="M861.98,753.04c-45.48,116.59-52.13,226.6,25.1,331.94-76.68-96.26-81.23-209.76-32.68-324.32,1.8-4.24.5-9.08,7.58-7.62Z"/>
  <path class="st7" d="M2231.58,1269.08l-74.04,128.19c-1.13,20.81.66,93.84-35.51,83.22-15.34-4.5-10.09-54.16-13.98-72.54-5.63-26.59-26.13-68.95-59.39-58.15,1.72,33.13,6.07,65.9,4.5,99.31-2.11,45-15.24,69.59.52,116.42,5.1,15.15,20.84,33.46,18.29,47.36-1.57,8.57-28.15,54.77-34.58,65.91-7.94,13.78-45.75,76.63-58.41,78.47-7.31,1.06-23.41-6.79-25.93-5.36-15.09,8.6-55.87,134.89-45.05,158.72-1.8-.25-3.75.17-5.58,0-.89-44.32,11.54-94.05,33-132.97,2.84-5.15,14.03-25.97,17.25-27.55,8.99-4.4,22.83,7.28,34.78-1.33,6.04-4.35,34.93-52.1,40.97-62.23,7.06-11.86,39.34-67.69,40.8-76.56,1.19-7.22-18.37-38.02-21.79-49.39-13.79-45.88,2.33-88.35,2.52-134.24.13-33.29-26.53-113.27,33.79-73.61.94.9,1.92,1.82,2.79,2.79,12.82,14.3,23.77,36.58,26.65,55.64,2.32,15.37-7.26,83.88,23.58,65.75,17.67-10.39,10.87-60.83,15.48-76.6,8.68-29.67,59.01-104.51,79.34-131.26Z"/>
  <path class="st1" d="M1537.02,1852.06c-4.85,6.8-12.61,11.83-13.78,21.08-3.37,78.53-2.56,161.82-14.43,239.41-.73,4.75-1.39,9.49-5.26,12.86,2.65-41.37,8.55-82.62,11.26-124.02,2.32-35.5-2.82-94.86,2.82-125.48.81-4.4,5.88-11.58,8.37-16.08.33-.59,10-12,11.01-7.77Z"/>
  <polygon class="st1" points="1807.59 1935.74 1804.8 1662.38 1813.27 1817.09 1807.59 1935.74"/>
  <path class="st1" d="M1656.96,990.14c39.34-108.8,25.77-194.01-27.89-292.89,7.04-.25,7.12,3.98,9.7,8.43,23.18,40.05,44.2,100.06,46.04,146.42,1.16,29.22-8.48,117.91-27.84,138.03Z"/>
  <path class="st1" d="M2083.74,1352.76c-60.32-39.65-33.66,40.32-33.79,73.61-.18,45.89-16.3,88.36-2.52,134.24,3.42,11.37,22.98,42.17,21.79,49.39-1.46,8.87-33.74,64.7-40.8,76.56-6.04,10.14-34.93,57.88-40.97,62.23-11.95,8.61-25.79-3.07-34.78,1.33-3.22,1.58-14.41,22.4-17.25,27.55-21.46,38.92-33.89,88.64-33,132.97.17,8.29,3.49,45.82,6.89,50.29,4.29,5.64,62.58,16.52,72.55,16.8,40.41,1.1,61.29-11.36,90.71-33.61,2.48-1.87,5.29-3,8.37-5.58,11.9-9.94,29.32-24.78,39.05-36.26-37.07,50.21-89.45,84.86-154.5,77.79-8.22-.89-49.15-11.3-54.58-15.15-17.32-12.26-11.15-91.97-7.23-112.99,3.12-16.71,36.5-104.51,50.59-108.12,9.58-2.45,19.21,11.85,33.37-.41,9.6-8.31,72.79-115.94,75.44-128.27,3.88-18.08-13.81-35.66-19.65-53.29-15.09-45.56,2.57-114.01,1.21-165.79-.41-15.73-12.52-45.74,4.1-54.58,14.4-7.66,25.43,2.11,35,11.3Z"/>
  <path class="st1" d="M1737.85,2122.63c-14.23,10.56-96.63,17.85-118.6,19.48-22.85,1.7-97.07,7.03-112.92.05l231.52-19.53Z"/>
  <path class="st1" d="M1665.33,2443.41l2.78,2.75c-72.36,22.11-152.01,31.4-225.93,11.2,10.41-.9,20.47,1.69,30.68,2.79,65.58,7.08,129.53,2.48,192.47-16.74Z"/>
  <path class="st1" d="M1302.71,2474.09c-33.17,20.55-163.98,15.77-204.19,7.53-9.3-1.9-18.29-5.26-27.33-7.53,77.73,13.64,153.85,15.46,231.52,0Z"/>
  <path class="st1" d="M1919.16,1726.54c-14.93,37.42-37.04,73.04-43.9,113.7-6.84,40.52-2.63,71.76,1.73,111.22.81,7.37,1.57,8.3-5.24,3.81-7.24-105.47-6.12-136.94,47.42-228.73Z"/>
  <path class="st1" d="M1562.12,2172.84c-60,2.97-115.6,3.28-175.73,0h175.73Z"/>
  <path class="st1" d="M1472.86,2142.16c-.44.31,1.66,4.72-1.77,5.7-7.2,2.06-44.7.27-55.52-.01-39.67-1.04-79.67-7.26-119.38-8.43-3.05-.9-1.49-5.27-1.86-5.63l178.52,8.37Z"/>
  <path class="st1" d="M1735.06,2156.1c1.93-.01,5.69-1.07,5.63,1.44-13.96,67.49-24.29,136.45-44.68,202.19,15.46-67.04,27.34-135.77,39.05-203.63Z"/>
  <path class="st5" d="M976.35,2267.68c2.21-6.9,11.97-51.13,13.97-53.01.3-.28,7.46-.32,8.17.14,5.77,3.67,1.42,29.09.18,36.14-.69,3.92.09,5.32,0,5.58-.32.9.38,2.2,0,2.79l-22.32,8.37Z"/>
  <path class="st1" d="M1046.08,808.82c15.79-23.89,4.89-49.62,5.31-73.92.47-27.23,11.16-70.88,30.95-90.65-11.9,25.71-23.62,53.42-25.2,82.19-1.7,30.93,13.05,57.42-11.06,82.39Z"/>
  <path class="st1" d="M1760.17,1902.27l-156.22,8.35-10.68,154.16c2.69,9.85,57.27,33.39,69.27,38.32-14.96-3.64-67.97-24.63-71.93-38.26l11-152.37c3.14-5.1,38.97-6.9,48.42-7.37,34.35-1.7,76.69,1.62,110.13-2.84Z"/>
  <path class="st7" d="M2217.63,1709.8c-18.96,42.36-33.16,87.31-55.79,128.31-4.28,7.76-11.85,20.09-16.74,27.89l-11.16,16.74c-3.27,4.59-11.51,16.66-13.95,19.53-9.73,11.48-27.15,26.32-39.05,36.26l37.35-42.14c41.71-54.35,64.96-115.95,90.96-178.22,1.1-2.63,6.57-6.13,5.62-11.15l2.75,2.78Z"/>
  <path class="st1" d="M2259.47,1361.13c13.19-20.46,55.73-108.39,55.25-129.77-.68-30.77-46.18-12.29-55.25,7.03-6.61,5.06-5.98,6.22-8.37,8.37-3.64,3.27-5.09,4.72-8.37,8.37-4.64,5.17-7.11,8.62-11.16,13.95-20.33,26.75-70.66,101.6-79.34,131.26-4.61,15.77,2.19,66.21-15.48,76.6-30.84,18.13-21.26-50.38-23.58-65.75-2.87-19.07-13.83-41.34-26.65-55.64,16.06,10.52,33.47,47.17,33.47,65.55v47.42c0,2.74,6.73,4.47,9.77,4.46,20.89-.03,15.82-58.75,19.43-72.89,7.17-28.13,72.39-126.7,93.71-151.05,12.2-13.93,60.14-61.05,73.64-27.31,11.21,28.03-42.21,112.18-57.09,139.4Z"/>
  <path class="st1" d="M1171.61,412.73c.26-.32-.61-8.66,2.74-5.54.21.2-1.1,3.94,2.13,5.39,7.33,3.29,14.64,4,23.86,9.07,24.64,13.52,52.97,31.78,71.69,52.44-30.27-25.69-63.98-45.55-100.42-61.37,16.34,59.55-.28,115.72-39.05,161.79,20.99-34.63,42.54-73.5,41.93-115.59-.15-9.97-9.07-40.26-8.56-44.56.31-2.62,5.42-1.3,5.69-1.63Z"/>
  <path class="st1" d="M1486.81,2016.63c5.32,22.54,2.22,50.68-.03,73.89-1.03,10.59-2.92,39.13-5.49,46.99-1.2,3.68-5.34,1.42-5.63,1.86,6.42-40.63,8.89-81.67,11.16-122.73Z"/>
  <path class="st1" d="M1693.22,2161.68c-40.94,4.12-81.56,8.92-122.73,11.16-1.57-8.42,4.26-5.39,9.62-5.58,33.75-1.2,64.94-5.15,98.24-8.08,5.33-.47,10.44-1.7,14.87,2.5Z"/>
  <path class="st1" d="M1626.28,1938.53l-5.58,114.37c-.83-.59-4.64,1.77-5.7-1.74-2.66-8.81,2.91-19.39,2.91-24.76v-50.21c0-9.57,5.79-26.01,2.8-37.68,1.8-.26,3.85.31,5.57.02Z"/>
  <path class="st1" d="M1372.44,683.3c-13.45-32.75-12.93-72.27-25.1-106,5.8,12.32,13.76,24.28,14.83,39.57l10.28,66.43Z"/>
  <path class="st1" d="M1776.9,1771.17c4.52,2.36,3.28,84.05,2.79,96.37-.21,5.35,2.86,11.19-5.58,9.63,0-35.47,1.87-70.6,2.79-106Z"/>
  <path class="st1" d="M1506.33,727.93c16.01-26.14,27.94-56.46,28.16-87.87.08-11.02-8.52-42.04-3.06-48.82,12.61,48.89,8,98.11-25.1,136.68Z"/>
  <path class="st1" d="M979.14,1958.06c1.45.51,4.95-1.63,5.68,1.79-3.87,12.46,8.43,98.74-.1,101.42l-5.58-103.21Z"/>
  <path class="st7" d="M1020.98,2237c-4.24,6.03-17.84,12.35-22.32,19.53.09-.26-.69-1.66,0-5.58,51.01-34.64,30.06-103.84-5.58-142.26,36.32,23.66,52.87,92.75,27.89,128.31Z"/>
  <path class="st1" d="M683.46,2013.84c.94,1.49,1.44,3.59,2.79,5.58,7.26,10.69,15.99,22.9,27.89,30.68-.73,5.38,4.1,6.38,5.58,8.37,2,2.68,3.73,5.59,5.58,8.37-39.92-36.48-84.97-88.75-80.82-146.39,1.69-23.46,19.3-68.49,38.98-82.34-41.21,48.86-49.51,129.45,0,175.73Z"/>
  <path class="st1" d="M1721.12,1935.74c-29.97,1.36-62.41.69-92.05,2.79-1.57-8.44,4.26-5.37,9.63-5.58,26.33-1.04,56.82-1.55,82.42,2.79Z"/>
  <path class="st1" d="M1166.03,2320.68c37.63,6.69,79.67,9.87,114.37-8.37-29.7,22.72-80.44,21.78-114.37,8.37Z"/>
  <path class="st1" d="M767.14,2105.89c4.55,4.12,9.49,7.42,13.95,11.16,25.05,18.65,12.94,36.54,17.97,61.53,2.13,10.59,19.63,41.17,26.66,50.05-21.66-21.27-32.48-43.69-33.63-74.05-.23-6.15,3.6-15.59,2.62-18.96-.87-3.01-20.42-16.02-24.47-20.27-5.17-5.43-9.2-12.31-14.26-17.82,3.58,2.81,7.8,5.33,11.16,8.37Z"/>
  <path class="st1" d="M1489.6,1924.58c4.54,23.17,3.58,50.38,2.79,74.06-.18,5.36,2.84,11.19-5.58,9.63,1.39-27.91,2.33-55.71,2.79-83.68Z"/>
  <path class="st1" d="M1241.34,1969.21c-37.54,30.44-14.32,53.81-17.33,87.04-.97,10.74-28.39,60.07-24.51,63.58,2.2,1.98,50.68,5.44,58.58,8.38-6.5,5.66-62.07-5.36-64.15-8.41-1.77-2.59,22.61-45.8,24.35-57.87,4.41-30.73-16.23-74.29,23.07-92.72Z"/>
  <path class="st1" d="M2256.68,1363.91c-6.26,6.51-21.61,11.09-32.14,19.46-32.88,26.12-72.41,88.65-64.81,131.89,6.65,37.8,47.92,34.54,51.83,41.6,1.72,3.11.01,13.12,1.72,19.23,13.21,47.34,98.25,25.23,106.98-10.54,5.86-24.01-25.08,2.29-32.84,6.22-13.49,6.82-22.83,13.57-38.96,8.17-43.17-14.46,21.46-78.22,38.91-90.5-5.64,4.53-20.5,21.5-25.1,27.89-1.52,2.12-1.9,4.22-2.79,5.58-18.37,12.54-37.22,50.81-2.98,54.53,27.49,2.99,45.93-26.23,59.83-26.56,21.23-.51,3.12,23.12-1.07,30.61-.84.93-1.89,1.85-2.79,2.79-23.96,20.42-58.55,32.32-87.41,13.49-21.66-14.13-15.47-37.51-18.84-41.14-.95-1.02-20.34-4.35-26.78-8.08-49.46-28.63-15.96-94.41,7.51-128.85,2.05-3.01,15.5-20.99,16.74-22.32,12.78-13.65,34.08-30.5,53-33.47Z"/>
  <path class="st1" d="M1020.98,2237c24.98-35.56,8.43-104.66-27.89-128.31v-2.79c38.29,25.24,61.78,92.28,27.89,131.1Z"/>
  <path class="st1" d="M1291.55,2013.84c-.17-.12-2.83,3.63-4.22.32-6.96-16.57,14.66-35.38,19.5-50.57,1.36-4.27,5.25-30.64,1.46-30.64h-40.45c-3.59,0-36.82,14.07-41.42,17.16-27.83,18.68-31.19,47.02-35.29,77.68-10.02-57.85,59.18-115.18,111.7-99.15,36.54,11.15-21.9,66.12-11.29,85.2Z"/>
  <path class="st7" d="M808.98,1899.48c-25.63-17.48-87.08-57.04-116.58-58.13-12.08-.45-26.01,30.9-29.8,41.46-19.63,54.66-8.51,84.65,20.86,131.04-49.51-46.28-41.21-126.87,0-175.73,1.05-.74,1.94-2.4,2.79-2.79,44.04,10.73,90.45,32.55,122.73,64.16Z"/>
  <path class="st1" d="M2290.15,1486.65c34.55-37.16,71.05-8.1,66.63,37.36-2.36,24.23-29.52,71.1-44.31,91.59-3.36,4.65-10.98,14.33-16.74,16.1,8.7-10.63,21.31-29.63,27.89-41.84,2.5-4.63,3.26-6.2,5.58-11.16,38.62-35.96,32.04-144.15-39.05-92.05Z"/>
  <path class="st1" d="M942.87,778.14c26.93,30.29,59.15,48.42,100.42,33.47-33.94,25.82-79.27-2.74-100.42-33.47Z"/>
  <path class="st1" d="M778.3,2225.84c-28.89,65.8,95.8,103.01,136.68,64.16,13.19-.84,24.05,1.42,37.5-2.94,9.2-2.98,13.65-9.62,21.07-13.79-10.56,25.85-35.87,16.19-55.99,20.72-10.37,2.33-22.51,13.46-34.86,15.35-36.08,5.51-90.06-14.2-109.99-45.83-6.74-10.69-6.23-33.45,2.94-40.48,1.16-.89,2.45,2.84,2.64,2.82Z"/>
  <path class="st1" d="M1489.6,1868.8c.17.27,4.27-.7,4.94.51,1.9,3.46.86,27.86.64,34.49-.18,5.35,2.84,11.2-5.58,9.63.03-14.81.66-29.73,0-44.63Z"/>
  <path class="st1" d="M1375.23,688.88c20.78,45.57,56.97,72.4,108.79,55.79-43.27,27.87-98.34-11.82-108.79-55.79Z"/>
  <path class="st1" d="M825.72,1723.75l69.1-38.29c35.67-11.13,79.15-39.72,116.97-31.99.81.17,13.68,4.1,6.4,6.13-20.19-9.55-42.46-.7-62.85,5.49-40.35,12.24-92.83,37.65-129.62,58.67Z"/>
  <path class="st7" d="M2259.47,1361.13c-.56.88-1.91,1.87-2.79,2.79-18.91,2.97-40.22,19.83-53,33.47,9.48-12.16,20.96-23.13,33.64-31.91,6.05-4.19,13.54-3.27,17.95-7.16,5.01-4.41,43.85-84.22,47.37-94.89,18.52-56.29-3.99-55.03-43.17-25.03,9.08-19.32,54.57-37.8,55.25-7.03.47,21.37-42.06,109.3-55.25,129.77Z"/>
  <path class="st1" d="M1350.13,2019.42c-18.03,28.12-47.99,43.87-77.21,18.61-28.98-25.04-1.92-58.26,13.05-82.77.24,17.42-27.29,36-21.2,64.3,5.43,25.19,45.08,31.53,64.43,19.38,6.77-4.25,10.43-12.82,15.41-18.07,4.04-4.26,1.32-3.9,5.51-1.46Z"/>
  <path class="st1" d="M1765.75,1651.22c15.55,37.91-6.48,66.92-16.21,102.34l-22.84,39.92c23.87-38.9,43.33-96.48,39.05-142.26Z"/>
  <path class="st1" d="M1871.74,1960.85c0,.14,7.14,4.32-1.06,2.5-11.07-2.46-54.5-14.71-60.31-22.02l61.37,19.53Z"/>
  <path class="st1" d="M1366.86,2078l10.82-46.34c-3.27-18.43-.91-47.34-27.71-38.88-4.89,1.55-10.29,11.1-13.79,7.11,17.55-12.77,27.89-24.76,39.6,3.64,9.94,24.11,4.66,52.81-8.91,74.46Z"/>
  <path class="st1" d="M1154.87,1704.22c2.5-5.3,8.93-1.2,12.6-.09,64.63,19.46,127.2,45.38,191.02,67.18-.39,1.14-2.91,2.5-2.79,2.65-66.23-25.38-133.34-47.91-200.84-69.73Z"/>
  <path class="st1" d="M1749.01,2055.69c-.11.15,2.54,1.36,2.75,2.53-19.44,5.54-42.38,25.13-62.87,25.42-14.19.2-47.91-17.85-59.83-25.16,17.91,1.88,42.21,21.54,59.49,21.42,16.9-.11,44.48-17.62,60.45-24.21Z"/>
  <path class="st7" d="M2329.21,1578.7c15.21-32.55,44.22-114.87-22.97-96.89l-43.97,35.53c4.6-6.39,19.46-23.36,25.1-27.89,1.02-.82,1.82-2.08,2.79-2.79,71.09-52.1,77.67,56.09,39.05,92.05Z"/>
  <path class="st1" d="M2214.84,1528.49c-.68.54,3.17,8.48-8.99,4.91-12.4-3.65-25.32-21.19-24.58-34.11,1.39-24.45,55.65-98.75,80.2-104.09,26.15-5.69,47.54,28.07,35.43,49.41-4.31,7.6-32.33,25.18-41.31,33.98-16.04,15.72-23.19,32.17-35.12,47.98-1.9,2.52-5.14,1.53-5.64,1.92,1.59-.59,8.74-13.13,8.37-16.74,8.82-2.52,10.44-15.21,13.95-19.53l13.95-13.95c.88-.97,1.89-1.84,2.79-2.79,18.84-22.03,49.39-21.69,41.24-56.59-6.07-25.99-42.01-24.49-55.19-4.78-6.91,4.95-8.77,8.11-13.95,13.95-6.48,7.31-14.15,15.37-16.74,25.1-.96,1.3-3.48,2.45-5.58,5.58-9.33,13.9-19.36,31.14-16.61,48.63,1.93,12.3,14.49,26.05,27.77,21.11Z"/>
  <path class="st1" d="M1341.76,2170.05c1.64-.47,3.1-2.48,6.78-2.88,7.84-.87,35.82-2.84,32.27,5.67-13.15-.61-25.96-1.87-39.05-2.79Z"/>
  <path class="st1" d="M783.88,2225.84c13.41,2.32,23.83,16.39,38.39,21.58,3.57,1.27,25.35,8.94,22.98-2.06,1.45,1.15,4.82,1.83,5.58,2.79-.51,13.96-17.49,6.67-25.04,4.11-14.58-4.94-29.49-17.5-41.91-26.42Z"/>
  <path class="st7" d="M783.88,2225.84c12.42,8.92,27.33,21.48,41.91,26.42,7.55,2.56,24.52,9.85,25.04-4.11,2.56,3.24,4.57,2.93,1.49,8.42-11.99,21.36-66.49-30.57-73.87-25.02-2.18,1.64-3.24,20.2-1.71,25.1,10.35,33.22,75.29,48.08,105.44,43.77,14.14-2.02,22.19-9.76,32.81-10.43-40.88,38.85-165.57,1.64-136.68-64.16,1.57-.18,4.09-.26,5.58,0Z"/>
  <path class="st1" d="M1269.23,2111.47c6.89-21.55,27.36-17.76,44.49-23.85,28.44-10.12,41.38-36.1,39.19-65.41,8.31,18.38-.94,36.18-12.53,50.23-23.17,28.08-48.72,15.21-71.15,39.03Z"/>
  <path class="st1" d="M1760.17,1932.95c-11.41-.96-22.17,2.38-33.47,2.79-2.88-9.58,26.66-6.73,33.47-2.79Z"/>
  <path class="st1" d="M1193.92,2033.37c1.39,7.72,9.5,15.2,2.73,27.93-1.05-.5-2.56-2.92-2.73-2.82v-25.1Z"/>
  <path class="st1" d="M1244.13,1966.42c3.63-7.22,37.99-22.14,41.83-19.52.61.42-.43,4.34.01,5.57-13.9.42-30.4,6.24-41.84,13.95Z"/>
  <path class="st7" d="M1478.44,1799.06c14.28,6.88,19.86,16.84,30.68,27.89v2.79c-.69.21-3.93-2.37-5.58-2.79l-13.95-13.95c-6.16-7.43-1.99-4.37-11.16-11.16v-2.79Z"/>
  <path class="st1" d="M898.24,688.88l-30.68,50.21c8.29-19.16,15.9-36.96,30.68-50.21Z"/>
  <path class="st7" d="M839.67,2237h-5.58c-2.19-2.24-7.23-6.94-8.37-8.37-7.03-8.88-24.53-39.46-26.66-50.05-5.03-24.99,7.08-42.88-17.97-61.53,6.4,5.36,14.73,7.42,18.93,16.06,4.65,9.58-.86,35.72,4.83,53.62,6.83,21.5,24.7,33.73,34.82,50.26Z"/>
  <path class="st1" d="M1297.13,499.2c14.54,9.93,29.7,31.85,38.79,46.91,2.22,3.68,12.15,21.24,8.63,25.62-13.11-26.68-27.7-50.29-47.42-72.52Z"/>
  <path class="st7" d="M733.67,2072.42c11.21,6.69,19.29,16.85,29.04,25.26,1.35,1.17,10.2,6.7,4.44,8.21-3.35-3.04-7.58-5.56-11.16-8.37-.89-.97-1.93-1.81-2.79-2.79l-2.79-2.79c-.87-.99-1.92-1.81-2.79-2.79-4.76-5.34-9.59-11.04-13.95-16.74Z"/>
  <path class="st7" d="M917.77,2044.53c2.92,3.39,5.34,7.89,8.37,11.16-11.54-.15-15.46-15.15-19.53-19.53h2.79c4.03,4.83,7.03,6.81,8.37,8.37Z"/>
  <path class="st1" d="M686.25,1835.32c8.42-3.88,26.16,3.19,36.19,7.05,25.7,9.89,51.95,27.18,75.07,42.08l22.63,20.61c-3.99-2.76-8.78-3.96-11.16-5.58-32.28-31.6-78.7-53.43-122.73-64.16Z"/>
  <path class="st1" d="M2292.94,1634.49c-7.86,25.59-54.58,46.79-66.03,62.27-7.44,10.07-21.17,54.86-28.33,70.71-10.82,23.92-22.8,48.39-36.75,70.65,22.62-41.01,36.83-85.95,55.79-128.31,1.65-3.69,5.18-13.31,5.58-13.95,3.88-6.29,55.33-44.29,69.73-61.37Z"/>
  <path class="st1" d="M1693.22,1670.75l-52.37,44.51-66.11,44.82-51.67,52.93c17.95-17.63,32.81-40.19,52.97-57.21,16.05-13.54,35.8-22.22,50.23-37.63,4.75-3.29,7.36-5.6,11.16-8.37,8.95-1.99,15.23-8.86,22.32-13.95,9.77-7.02,18.53-15.19,27.89-22.32,1.52-1.16,4.05-1.59,5.58-2.79Z"/>
  <path class="st1" d="M1548.17,602.41c-4.58-3.73-11.05-5.33-13.95-11.16,9.89-3.48,7.82,3.92,13.95,11.16Z"/>
  <path class="st1" d="M1550.96,605.2c14.21,5.69,32.81,25.02,39.05,39.05-11.75-13.18-25.75-27.53-39.05-39.05Z"/>
  <path class="st1" d="M1486.81,744.67c-.43-8.37,7.88-8.55,13.95-11.16-5.17,4.5-5.14,7.79-13.95,11.16Z"/>
  <path class="st1" d="M806.19,1852.06c-29.53-17.57-61.18-29.9-92.05-44.63,32.61,8.24,64.92,25.11,92.05,44.63Z"/>
  <path class="st7" d="M2323.63,1589.86c-6.58,12.21-19.2,31.21-27.89,41.84-.82,1-1.95,1.79-2.79,2.79-14.41,17.08-65.85,55.08-69.73,61.37-5.53,1.15-18.43-1.65-22.32,0,36.68-3.35,60.16-34.76,85.11-58.55l37.63-47.45Z"/>
  <path class="st1" d="M917.77,2044.53l72.52,58.58-61.37-44.63c-.92-.94-1.9-1.83-2.79-2.79-3.03-3.27-5.45-7.77-8.37-11.16Z"/>
  <path class="st7" d="M728.09,2066.84h-2.79c-1.85-2.78-3.58-5.69-5.58-8.37l1.38-2.73c5.35,2.39,5.13,7.93,6.99,11.1Z"/>
  <path class="st1" d="M845.25,1932.95c-1.33,3-9.37,1.66-4.07,13.79,6.92,15.85,54.28,72.68,68.23,89.42h-2.79c-.91-.98-1.93-1.85-2.79-2.79l-69.73-94.84c3.58-2.18,6.69-5.15,11.16-5.58Z"/>
  <path class="st1" d="M747.62,2089.16c-9.11-2.37-11.98-9.76-16.74-16.74h2.79c4.35,5.7,9.19,11.4,13.95,16.74Z"/>
  <path class="st1" d="M1085.13,638.67c2.48-5.2-1.56-9.77,11.16-13.95-2.66,5.03-6.18,10.87-11.16,13.95Z"/>
  <path class="st1" d="M1118.61,591.25l-22.32,30.68c7.74-13.6,13.74-21,22.32-30.68Z"/>
  <path class="st1" d="M901.03,1101.71c-6.42-.82-12.93-7.52-11.16-13.95,3.94,4.66,7.36,9.32,11.16,13.95Z"/>
  <path class="st1" d="M1815.96,1665.17c3.03-4.98,12.14.71,15.83,2.33,20.38,8.96,40.33,19.21,60.38,28.89,2.1,1.01,11.58,2.44,4.69,5.04-19.2-10.72-60.5-31.72-80.89-36.26Z"/>
  <path class="st1" d="M1774.12,1896.69c0-4.65,0-9.3,0-13.95,4.93,3.2,4.02,10.05,0,13.95Z"/>
  <path class="st1" d="M839.67,2237c1.08,1.76,1.78,3.78,2.79,5.58-1.36-1.19-3.79-.88-8.37-5.58h5.58Z"/>
  <path class="st1" d="M1506.33,2139.37c-.76-.65-4.92.62-5.56-.02-1.74-1.73,2.75-5.25,2.77-5.56l2.79,5.58Z"/>
  <path class="st1" d="M1737.85,1631.7c-.07.18,4.29.71,2.79,2.73-2.62,3.52-35.32,28.41-41.84,33.53l39.05-36.26Z"/>
  <path class="st1" d="M1592.8,647.04c14.72,7.82,22.32,24.98,30.68,39.05-11.35-11.85-20-26.9-30.68-39.05Z"/>
  <path class="st1" d="M867.56,741.88l-5.58,8.37c3.88-13.04,5.32-7.72,5.58-8.37Z"/>
  <path class="st1" d="M2133.95,1882.74l11.16-16.74c-3.97,6.34-6.82,10.65-11.16,16.74Z"/>
  <path class="st1" d="M1693.22,2373.68l2.79-11.16c-.89,3.83-1.93,7.51-2.79,11.16Z"/>
  <path class="st1" d="M1294.34,496.41c-5.83-6.27-10.31-10.95-16.74-16.74,7.9,1.28,15.48,8.9,16.74,16.74Z"/>
  <path class="st1" d="M1121.4,588.46c-.45-7.13,5.37-8,8.37-11.16-2.34,4.07-4.92,7.92-8.37,11.16Z"/>
  <path class="st1" d="M1168.82,1751.64c-1.86-1.83-5.08-5.08-5.58-5.58l5.58,5.58Z"/>
  <path class="st1" d="M1503.54,1826.95c-.16-.04-1.45,3.11-2.26,2.48s-9.09-13.3-11.68-16.42l13.95,13.95Z"/>
  <path class="st1" d="M998.66,2259.31c-4.53,6.95-16.85,7.75-22.32,11.16v-2.79l22.32-8.37Z"/>
  <path class="st1" d="M1316.65,2457.36c12.79-21.88,23.63-52.08,36.26-75.31,5.42,1.6.17,8.55-1.3,11.25-11.6,21.36-22.83,43.03-34.96,64.06Z"/>
  <polygon class="st1" points="1746.22 1623.33 1749.01 1624.72 1747.62 1626.12 1746.22 1624.72 1746.22 1623.33"/>
  <path class="st1" d="M1754.59,1614.96c.81-1.04,1.89-1.84,2.79-2.79-.96.74-1.87,2.41-2.79,2.79Z"/>
  <path class="st1" d="M1096.29,1723.75l-11.16-11.16c4.36,3.95,7.52,7.75,11.16,11.16Z"/>
  <path class="st1" d="M1177.18,1804.64l-8.37-8.37c2.85,2.78,5.57,5.63,8.37,8.37Z"/>
  <path class="st7" d="M1523.07,1813.01c-1.15,1.13-4.03,1.69-5.58,2.79,29.2-45.65,65.97-68.01,108.79-97.63-14.43,15.42-34.18,24.09-50.23,37.63-20.16,17.01-35.03,39.58-52.97,57.21Z"/>
  <path class="st1" d="M1509.12,1829.74v-2.79l8.37-5.58c-1.89,3.48-4.33,7.16-8.37,8.37Z"/>
  <path class="st1" d="M845.25,1930.16l-16.74-19.53c6.12,4.57,18.34,13.28,16.74,19.53Z"/>
  <polygon class="st1" points="1767.14 1927.37 1768.54 1928.77 1767.14 1930.16 1767.14 1927.37"/>
  <path class="st1" d="M1311.08,2465.73l2.79-2.79c-.73,1.09-1.98,1.8-2.79,2.79Z"/>
  <path class="st1" d="M753.2,2094.74c-.87-.98-1.92-1.8-2.79-2.79l2.79,2.79Z"/>
  <path class="st7" d="M990.29,2103.1v2.79c-23.16-16.14-41.51-27.18-61.37-47.42l61.37,44.63Z"/>
  <polygon class="st1" points="1668.12 2105.89 1669.51 2103.1 1670.91 2104.5 1669.51 2105.89 1668.12 2105.89"/>
  <path class="st1" d="M1629.07,694.46l-5.58-5.58c.34.58,3.6,2.01,5.58,5.58Z"/>
  <path class="st5" d="M1018.19,1098.92l39.04,527.18c-12.77-8.3-104.59-21.47-106.15-26.72-2.05-6.89.86-29.11.28-38.92-7.92-132.27-20.62-264.45-36.35-395.93,1.03-9.81,42.23-33.72,52.98-37.94l-2.79-2.56c12.86-10.5,29.7-17.95,44.63-25.1.36,3.91,6.33.78,8.37,0Z"/>
  <path class="st5" d="M1129.76,1648.43c-9.86-3.2-22.28-8.62-30.68-11.16-4.21-30.05-8.54-60.42-11.11-90.7-3.52-41.57-16.23-163.62-7.04-196.7.71-2.55,1.29-7.56,5.56-5.46,18.46,9.08,21.22,120.47,23.79,143.59,5.95,53.45,11.95,107.22,19.48,160.44Z"/>
  <path class="st7" d="M1246.92,1475.49c8.47-11.65,27.92-17.82,41.2-12.1,15.12,6.51-4.73,32.96-2.05,37.09,1.95,3.01,58.24,24.83,66.26,27.21,71.37,21.19,152.28,20.18,220.04-12.68,14.05-6.81,54.23-45.03,61.85-15.17,4.78,18.7-33.29,79.1-46.86,94.23-83.22,92.76-220.19,77.78-295.79-15.38,41.18,39.71,86.03,68.75,145.05,72.52,6.13,4.71,21.69,4.73,27.89,0,39.28-2.34,80.45-15.92,106-47.42,6.42-5.68,5.47-4.38,11.16-11.16,17.09-8.35,55.97-85.55,47.05-97.28-10.1-13.29-36.93,13.59-44.52,17.52-78.02,40.38-170.04,42.89-251.97,12.59-7.23-2.67-50.94-22.4-51.42-26.22-1-8,24.43-29.9-.43-33.69-8.24-1.26-26.45,5.25-33.44,9.92Z"/>
  <path class="st7" d="M1643.01,1165.87c-9.46,10.54-34.07-5.59-49.54-7.64-9.4-1.24-23.45-1.78-32.75-.74-16.15,1.82-59.23,30.38-57.45-6.91,1.49-31.18,50.63-47.71,76.93-46.01,24.9,1.61,88.57,32.6,62.81,61.29,1.58-1.56-.38-19.93-2.11-24.39-8.18-21.19-42.1-30.27-62.05-31.39-2.76-4.48-13.81-4.56-16.74,0-21.96,2.12-52.78,16.25-54.31,41.42-1.1,17.99,8.92,14.74,20.84,11.58,18.41-4.89,27-11.82,48.89-11.33,12.78.28,62.31,17.25,65.47,14.12Z"/>
  <path class="st7" d="M1308.29,1149.13c-31.71-19.54-65.33-24.9-100.4-9.75-18.12,7.83-54.1,37.98-43.25,59.97,9.16,18.57,30.98-4.81,37.66-8.38,24.19-12.94,38.57-18.09,66.95-16.74,1.53,3.8,5.44,2.33,8.37,2.79,24.49,3.86,43.72,8.85,33.47-25.1,1.52,1.68,10.58.03,8.35,15.1-4.66,31.53-46.25,10.15-64.78,10.79-10.55.37-25.61,5-35.56,9.03-15.4,6.24-40.32,33.14-54.94,17.16-21.6-23.63,29.79-64.13,50.59-71.71,34.69-12.65,66.41-6.7,93.54,16.83Z"/>
  <path class="st7" d="M1598.38,1375.07c34.7-15.21,36.93-103.44,8.37-128.31-1.07-1.46-2.07-1.98-2.79-2.79-4.99-5.68-13.42-10.4-20.83-11.28-79.57-9.35-59.3,175.04,15.25,142.38-8.39,4.14-8.38,6.91-20.93,5.7-68.98-6.67-64.11-166.2,6.96-152.23,54.85,10.78,65.48,121.12,13.97,146.53Z"/>
  <path class="st7" d="M1294.34,1402.97c46.35-18.36,42.08-148.88-21.02-150.74-57.69-1.7-68.19,124.37-9.66,147.95,10.62,4.28,18.25,7.72,30.68,2.79-.58.25-1.26,4.47-6.91,5.52-76.14,14.16-89.68-146.35-25.03-158.78,69.33-13.33,95.79,126.33,31.94,153.26Z"/>
  <path class="st7" d="M1099.08,1637.28c8.4,2.53,20.83,7.96,30.68,11.16,89.09,28.89,210.45,67.23,293.37,106.91,13.32,6.37,19.5,11.95,30.2,21.41-39.06-22.91-83.51-37.7-126.1-53.82-86.41-32.7-178.46-66.14-267.21-91.23,8.31-3.87,28.94,2.53,39.05,5.58Z"/>
  <path class="st7" d="M1475.65,1483.86c-.66-1.12-5.83-1.9-5.69-6.91.49-18,51.92-14.87,60-35,12.02-29.94-21.34-28.81-38.23-41.74-15.7-12.02-38.76-50.56-21.82-68.51,15.43-16.35,18.94,10.77,23.54,17.22,19.59,27.49,49.45,21.76,71.52,47.02,53.47,61.2-50.28,124.87-85.35,96.4-3.51-2.85-2.69-6.32-3.96-8.47,1.28,3.37,19.28,10.49,24.05,10.98,47.18,4.81,104.32-56.77,62.54-98.96-16.34-16.49-47.08-16.54-64.27-34.76-.9-.94-1.94-1.82-2.79-2.79-25.21-65.22-38.08,4.06-8.42,32.13,19.52,18.47,70.79,22.9,41.89,59.92-.87.93-1.82,1.98-2.79,2.79-11.05,11.19-57.56,11.32-50.21,30.68Z"/>
  <path class="st7" d="M1244.13,1478.28c-12.24,9.99-23.99,30.85-21.05,47.4,4.87,27.43,26.51-4.34,34.64.38,1.67.97,16.08,27.75,19.89,33.12-1.32,4.42-7.88-4.61-8.18-5.03-2.85-4.09-11.65-22.62-12.91-23.02-8.41-2.69-12.82,9.95-24.89,8.5-25.94-3.14-8.36-57.81,12.51-61.33Z"/>
  <path class="st1" d="M1246.92,1475.49c6.98-4.67,25.2-11.18,33.44-9.92,24.86,3.79-.57,25.69.43,33.69.48,3.83,44.19,23.55,51.42,26.22,81.92,30.3,173.95,27.78,251.97-12.59,7.59-3.93,34.42-30.81,44.52-17.52,8.92,11.73-29.96,88.92-47.05,97.28,15-17.88,33.98-50.28,40.28-72.67,14.17-50.38-32.35-5.45-51.84,3.92-68.51,32.96-150.37,33.66-222.15,10.96-12.42-3.93-57.21-21.61-65.53-28.54-13.58-11.31,25.98-45.92-16.59-35.64-12.98,3.13-34.82,21.24-37.82,34.7-11.28,50.69,25.55,12.19,30.02,14.76,2.49,1.43,23.82,39.6,31.18,48.36,70.12,83.4,194.31,112.34,281.29,35.3-25.55,31.5-66.72,45.08-106,47.42-8.6.51-19.31.55-27.89,0-59.02-3.78-103.87-32.81-145.05-72.52-2.96-3.65-10.43-14.58-13.95-19.53-3.81-5.36-18.22-32.15-19.89-33.12-8.13-4.71-29.77,27.06-34.64-.38-2.94-16.55,8.81-37.41,21.05-47.4,1.03-.84,1.88-2.18,2.79-2.79Z"/>
  <path class="st1" d="M1308.29,1149.13c.95.83,1.94,1.85,2.79,2.79,10.24,33.95-8.98,28.96-33.47,25.1-1.51-3.59-5.27-2.64-8.37-2.79-28.37-1.36-42.76,3.8-66.95,16.74,20.36-10.46,25.36-21.36,54.87-22.06,13.86-.33,51.1,16.77,54,1.07,5.44-29.48-51.53-36.43-71.32-34.87-23.82,1.88-61.76,20.09-70.5,43.99-11.92,32.59,17.27,19.93,32.94,11.88-6.68,3.57-28.5,26.95-37.66,8.38-10.85-21.99,25.13-52.14,43.25-59.97,35.07-15.15,68.69-9.8,100.4,9.75Z"/>
  <path class="st7" d="M1456.12,1779.53c3.21.87,18.81,10.52,19.49,11.43.87,1.17-2.77,2.33-2.75,2.52-7.61-3.16-11.43-8.8-16.74-13.95Z"/>
  <path class="st7" d="M1659.75,1695.85c-7.09,5.09-13.36,11.96-22.32,13.95,7.1-5.17,13.71-11.57,20.95-16.68l1.37,2.73Z"/>
  <path class="st0" d="M965.19,1073.82c4.06-5.4,2.7-7.28.14-12.57-14.92-30.88-32.93-46.1-41.62-84.03-4.57-19.95-10.49-101.28-.34-115.4,3.78-5.27,5.17,2.31,6.23,3.64,12.2,15.49,20.59,35.51,35.63,50.72,26.12,26.42,92.74,60.01,129.67,60.01h50.21c10.25,0-8.17-29.38-9.86-34.77-41.48-131.98,65.06-177.41,85.77-274.26,1.83-8.57,2.46-50.9,5.01-50.84,4.23.1,32.4,28.56,36.05,33.69,37.05,52.13,28.95,117.23,60.71,170.81,58.85,99.31,199.09,89.55,229.15-26.38,1.56-6.03.16-27.64,7.34-21.86,3.63,2.92,21.17,48.66,23.15,56.38,11.99,46.49,7.42,91.67-3.27,137.81-1.09,4.72-.37,7.13-5.88,9.42-132.68-19.58-259.98-5.93-390.52,19.53-1.21.24-2.32,1.61-2.79,2.79-69.01,13.83-152.5,42.68-214.78,75.31Z"/>
  <path class="st5" d="M939.68,2284.02c-1.62,1.02-21.72,3.06-19.09-3.74,3.23-8.34,22.38-27.96,27.83-37.71-1.83,6.2-6.6,40.1-8.74,41.45Z"/>
  <path class="st7" d="M834.09,1938.53l69.73,94.84c-.39-.43-4.38-.16-6.78-2.87-11.87-13.42-62.28-78.1-65.79-90.55-2.19-7.76,2.7-1.33,2.83-1.41Z"/>
  <path class="st7" d="M714.14,2050.11c-11.91-7.79-20.63-19.99-27.89-30.68l27.89,30.68Z"/>
  <path class="st5" d="M1749.01,1372.28l-2.79-13.95c.21,2.27,2.28,8.18,2.79,13.95Z"/>
  <path class="st5" d="M940.09,1442.02c-.02-.2-2.65-.95-2.79-2.79l2.79,2.79Z"/>
  <path class="st5" d="M928.93,1347.18c-.08-.92.08-1.87,0-2.79l2.73,1.39-2.73,1.39Z"/>
  <path class="st5" d="M926.14,1291.39c-.02-.2-2.61-.93-2.79-2.79l2.79,2.79Z"/>
  <path class="st4" d="M914.98,1185.39c-.01-.2-2.7-.99-2.79-2.79l2.79,2.79Z"/>
  <path class="st2" d="M2259.47,1238.39c39.18-30,61.69-31.26,43.17,25.03-3.51,10.67-42.36,90.48-47.37,94.89-4.41,3.89-11.9,2.97-17.95,7.16-12.68,8.78-24.16,19.75-33.64,31.91-1.24,1.32-14.68,19.3-16.74,22.32-2.87-4.42-11.55,12.79-12.34,14.17-24.71,43.06-43.53,90.19,9.4,121.26,5.09,2.99,16.61,3.97,18.44,6.66,2.44,3.61.18,10.71,1.98,14.76,20.66,46.65,73.76,42.09,107.34,12.5,1.26-1.11.31-4.37.7-4.78.9-.94,1.95-1.86,2.79-2.79,4.61-5.07,12.13-3.34,13.82-18.4,4.29-38.14-44.82,6.64-60.52,9.35-44.57,7.7-22.95-28.36-9.09-49.53.89-1.36,1.27-3.46,2.79-5.58l43.97-35.53c67.19-17.98,38.18,64.34,22.97,96.89-2.32,4.96-3.08,6.52-5.58,11.16l-37.63,47.45c-24.95,23.79-48.43,55.19-85.11,58.55-8.51,3.61,7.67,16.9,8.37,22.32-26,62.27-49.25,123.87-90.96,178.22l-37.35,42.14c-3.08,2.58-5.89,3.71-8.37,5.58-39.6.72-79.09-4.31-117.14-15.36-14.83-4.31-34.46-16.34-47.44-18.11-10.82-23.84,29.96-150.13,45.05-158.72,2.52-1.44,18.63,6.42,25.93,5.36,12.66-1.84,50.47-64.69,58.41-78.47,6.42-11.15,33.01-57.34,34.58-65.91,2.54-13.91-13.19-32.21-18.29-47.36-15.76-46.83-2.63-71.43-.52-116.42,1.57-33.41-2.78-66.18-4.5-99.31,33.26-10.8,53.76,31.57,59.39,58.15,3.89,18.38-1.36,68.04,13.98,72.54,36.16,10.62,34.37-62.41,35.51-83.22l74.04-128.19c4.05-5.33,6.52-8.78,11.16-13.95l1.38,2.73c3.72-2.87,6.76-6.12,6.99-11.1,2.39-2.15,1.76-3.31,8.37-8.37Z"/>
  <path class="st5" d="M2223.21,1695.85c-.39.64-3.93,10.26-5.58,13.95l-2.75-2.78c.96,5.02-4.52,8.53-5.62,11.15-.7-5.41-16.88-18.7-8.37-22.32,3.89-1.65,16.79,1.15,22.32,0Z"/>
  <path class="st5" d="M1908.01,1910.64c12.98,1.78,32.6,13.81,47.44,18.11,38.05,11.05,77.53,16.08,117.14,15.36-29.41,22.26-50.3,34.72-90.71,33.61-9.97-.27-68.27-11.16-72.55-16.8-3.4-4.47-6.73-42-6.89-50.29,1.82.17,3.78-.25,5.58,0Z"/>
  <path class="st7" d="M2186.95,1419.7c-23.47,34.44-56.97,100.22-7.51,128.85,6.44,3.73,25.83,7.05,26.78,8.08,3.37,3.62-2.82,27,18.84,41.14,28.86,18.83,63.45,6.94,87.41-13.49-.39.4.56,3.66-.7,4.78-33.58,29.6-86.68,34.16-107.34-12.5-1.79-4.05.47-11.15-1.98-14.76-1.83-2.7-13.35-3.67-18.44-6.66-52.93-31.08-34.11-78.21-9.4-121.26.79-1.37,9.46-18.59,12.34-14.17Z"/>
  <path class="st7" d="M2203.68,1458.75l-13.28,35.55c-4.85,13.03,6.05,31.89,20.3,31.6,7.49-.15,7.34-21.87,12.51-14.15.37,3.6-6.77,16.14-8.37,16.74-13.28,4.94-25.84-8.81-27.77-21.11-2.75-17.49,7.28-34.72,16.61-48.63Z"/>
  <path class="st7" d="M2259.47,1522.91c-13.86,21.16-35.48,57.22,9.09,49.53,15.7-2.71,64.81-47.49,60.52-9.35-1.69,15.06-9.21,13.33-13.82,18.4,4.18-7.49,22.3-31.12,1.07-30.61-13.91.33-32.34,29.55-59.83,26.56-34.24-3.72-15.4-41.99,2.98-54.53Z"/>
  <path class="st7" d="M2239.94,1414.12c13.17-19.72,49.12-21.21,55.19,4.78,8.15,34.9-22.4,34.56-41.24,56.59,5.66-5.97,10.69-12.36,16.71-18.16,11.49-11.07,25.08-9.86,21.83-32.71-2.51-17.67-16.54-25.31-33.63-20.98-1.05.26-17.76,9.7-18.85,10.48Z"/>
  <path class="st2" d="M2239.94,1414.12c1.09-.78,17.81-10.21,18.85-10.48,17.09-4.33,31.12,3.31,33.63,20.98,3.25,22.85-10.34,21.64-21.83,32.71-6.02,5.8-11.05,12.19-16.71,18.16-.9.95-1.91,1.82-2.79,2.79-4.25,4.7-8.93,7.77-13.95,13.95-3.51,4.32-5.13,17.01-13.95,19.53-5.17-7.72-5.02,14-12.51,14.15-14.25.29-25.15-18.57-20.3-31.6l13.28-35.55c2.1-3.13,4.61-4.28,5.58-5.58,5.92-7.98,13.09-16,19.47-23.72l-2.74-1.38c5.18-5.84,7.04-8.99,13.95-13.95Z"/>
  <path class="st7" d="M2237.16,1492.23c5.02-6.18,9.7-9.25,13.95-13.95l-13.95,13.95Z"/>
  <path class="st7" d="M2209.26,1453.18c2.59-9.74,10.26-17.79,16.74-25.1l2.74,1.38c-6.38,7.72-13.55,15.74-19.47,23.72Z"/>
  <path class="st7" d="M2242.73,1255.13c3.28-3.65,4.73-5.1,8.37-8.37-.23,4.98-3.27,8.23-6.99,11.1l-1.38-2.73Z"/>
  <path class="st1" d="M1562.12,1110.08c4.98-.48,11.64-.29,16.74,0,19.95,1.12,53.87,10.21,62.05,31.39,1.72,4.46,3.68,22.83,2.11,24.39-3.16,3.13-52.69-13.84-65.47-14.12-21.89-.48-30.48,6.45-48.89,11.33,2.27-.47,14.74-10.29,20.3-11.78,12.13-3.24,32.3-3.42,44.94-1.85,9.52,1.18,41.43,15.88,46.34,10.85,4.4-4.51-5.36-24.16-9.53-28.08-23.71-22.31-90.97-27.73-111.74.25-9.39,12.65-13.02,35.33,9.69,30.61-11.92,3.16-21.93,6.41-20.84-11.58,1.53-25.17,32.35-39.3,54.31-41.42Z"/>
  <path class="st5" d="M1277.6,1177.03c-2.93-.46-6.84,1.01-8.37-2.79,3.1.15,6.86-.8,8.37,2.79Z"/>
  <path class="st1" d="M1603.96,1243.97c-82.12-45.82-86.32,118.2-31.39,127.62,61.18,10.49,58.87-90.95,34.18-124.83,28.56,24.87,26.33,113.11-8.37,128.31-74.55,32.67-94.82-151.73-15.25-142.38,7.41.87,15.84,5.6,20.83,11.28Z"/>
  <path class="st5" d="M1464.49,1651.22c-6.21,4.73-21.76,4.71-27.89,0,8.58.55,19.29.51,27.89,0Z"/>
  <path class="st1" d="M1294.34,1402.97c-12.44,4.93-20.06,1.49-30.68-2.79,77.88,17.81,73.79-137.36,12.52-142.28-69.6-5.58-50.94,133.5-12.52,142.28-58.53-23.58-48.02-149.65,9.66-147.95,63.1,1.86,67.37,132.38,21.02,150.74Z"/>
  <path class="st5" d="M1578.86,1110.08c-5.1-.29-11.76-.48-16.74,0,2.93-4.56,13.97-4.48,16.74,0Z"/>
  <path class="st1" d="M1475.65,1483.86c-7.35-19.37,39.16-19.5,50.21-30.68-16.38,13.77-45.55,17.73-47.42,19.54-2.04,1.99,5.19,13.86,8.36,15.34,18.37,8.55,54.34-4.05,68.47-18.03,21.7-21.47,22.86-62.15-4.44-79.48-21.32-13.54-30.82-6.51-52.86-29.42,17.19,18.22,47.93,18.26,64.27,34.76,41.78,42.18-15.36,103.76-62.54,98.96-4.76-.49-22.77-7.61-24.05-10.98Z"/>
  <path class="st1" d="M1495.18,1358.34c-7.38-8.49-6.52-8.91-11.83-17.46-10.13-16.3-11.09,13.54-9.11,23.06,8.52,40.84,75.49,40.31,64.97,76.08-1.71,5.83-7.52,7.13-10.56,10.36,28.9-37.03-22.37-41.45-41.89-59.92-29.66-28.07-16.79-97.35,8.42-32.13Z"/>
  <path class="st3" d="M1495.18,1358.34c.85.97,1.89,1.85,2.79,2.79,22.04,22.91,31.54,15.89,52.86,29.42,27.3,17.33,26.14,58.01,4.44,79.48-14.13,13.98-50.09,26.58-68.47,18.03-3.16-1.47-10.4-13.35-8.36-15.34,1.87-1.82,31.04-5.77,47.42-19.54.96-.81,1.92-1.86,2.79-2.79,3.04-3.23,8.84-4.53,10.56-10.36,10.52-35.77-56.46-35.25-64.97-76.08-1.99-9.52-1.02-39.37,9.11-23.06,5.31,8.55,4.46,8.97,11.83,17.46Z"/>
  <path class="st3" d="M1570.49,1603.8c-86.98,77.04-211.17,48.1-281.29-35.3-7.36-8.76-28.69-46.93-31.18-48.36-4.47-2.57-41.31,35.93-30.02-14.76,2.99-13.45,24.84-31.56,37.82-34.7,42.57-10.28,3.01,24.33,16.59,35.64,8.31,6.92,53.11,24.61,65.53,28.54,71.78,22.7,153.64,22,222.15-10.96,19.49-9.38,66.01-54.3,51.84-3.92-6.3,22.39-25.28,54.78-40.28,72.67-5.69,6.78-4.74,5.47-11.16,11.16Z"/>
  <path class="st3" d="M1202.29,1190.97c-15.67,8.05-44.86,20.71-32.94-11.88,8.74-23.9,46.68-42.11,70.5-43.99,19.78-1.56,76.75,5.39,71.32,34.87-2.9,15.71-40.14-1.4-54-1.07-29.52.7-34.51,11.6-54.87,22.06Z"/>
  <path class="st3" d="M1603.96,1243.97c.72.81,1.72,1.33,2.79,2.79,24.7,33.87,27,135.31-34.18,124.83-54.93-9.42-50.73-173.43,31.39-127.62Z"/>
  <path class="st3" d="M1528.65,1163.08c-22.71,4.72-19.08-17.96-9.69-30.61,20.77-27.99,88.03-22.56,111.74-.25,4.17,3.92,13.93,23.57,9.53,28.08-4.91,5.03-36.82-9.67-46.34-10.85-12.64-1.57-32.81-1.39-44.94,1.85-5.56,1.49-18.03,11.31-20.3,11.78Z"/>
  <path class="st3" d="M1263.66,1400.18c-38.41-8.78-57.08-147.86,12.52-142.28,61.27,4.91,65.36,160.09-12.52,142.28Z"/>
</svg>